<?xml version="1.0" standalone="no"?>
<!DOCTYPE svg PUBLIC "-//W3C//DTD SVG 20010904//EN"
 "http://www.w3.org/TR/2001/REC-SVG-20010904/DTD/svg10.dtd">
<svg version="1.0" xmlns="http://www.w3.org/2000/svg"
 width="700.000000pt" height="700.000000pt" viewBox="0 0 700.000000 700.000000"
 preserveAspectRatio="xMidYMid meet">
<metadata>
Created by potrace 1.14, written by Peter Selinger 2001-2017
</metadata>
<g transform="translate(0.000000,700.000000) scale(0.100000,-0.100000)"
fill="#000000" stroke="none">
<path d="M6781 6653 c-36 -147 -87 -295 -147 -422 -146 -310 -361 -521 -711
-699 -240 -122 -363 -170 -1353 -528 -648 -235 -676 -244 -690 -225 -8 10 -72
92 -142 182 -372 481 -835 958 -1290 1332 -60 49 -108 91 -108 94 0 3 66 75
146 159 80 85 140 154 133 154 -8 0 -195 9 -417 21 -222 12 -405 19 -407 17
-4 -4 89 -713 101 -767 5 -22 19 -10 153 129 l147 154 157 -172 c282 -310 552
-645 801 -995 213 -298 331 -476 320 -486 -5 -4 -81 -36 -169 -71 -200 -79
-486 -200 -564 -240 -441 -222 -802 -530 -1028 -877 -210 -321 -319 -736 -298
-1133 38 -729 326 -1354 899 -1950 56 -58 141 -151 190 -207 71 -82 95 -103
116 -103 14 0 73 16 131 35 172 58 274 75 459 75 223 0 424 -33 668 -108 l61
-20 24 42 c76 130 153 346 359 1006 219 705 303 1506 222 2140 -42 335 -139
692 -258 953 l-33 74 276 128 c606 282 981 472 1270 643 630 374 928 756 1006
1293 16 112 21 469 7 469 -4 0 -19 -44 -31 -97z m-2918 -2732 c164 -445 214
-1044 141 -1691 -52 -459 -188 -1195 -297 -1603 -38 -143 -44 -158 -62 -153
-218 51 -391 71 -565 63 -115 -5 -158 -13 -335 -62 -34 -9 -111 108 -261 400
-551 1071 -534 1857 53 2415 169 162 345 279 628 420 166 83 643 308 656 309
3 1 21 -43 42 -98z"/>
</g>
</svg>
