<?xml version="1.0" encoding="utf-8"?>
<!-- Generator: Adobe Illustrator 26.2.1, SVG Export Plug-In . SVG Version: 6.00 Build 0)  -->
<svg version="1.1" id="Capa_1" xmlns="http://www.w3.org/2000/svg" xmlns:xlink="http://www.w3.org/1999/xlink" x="0px" y="0px"
	 viewBox="0 0 737.7 504.8" style="enable-background:new 0 0 737.7 504.8;" xml:space="preserve">
<style type="text/css">
	.st0{fill:#00EFE7;}
</style>
<g>
	<g>
		<path class="st0" d="M454.5,272.4c0,2-1.6,3.6-3.8,3.6c-2.3,0-3.9-1.6-3.9-3.6c0-2.1,1.6-3.7,3.9-3.7
			C453,268.7,454.5,270.3,454.5,272.4z M454.3,302h-7.1l1.2-21.9h4.8L454.3,302z"/>
		<path class="st0" d="M490.3,273c0,7.4-5.5,12-14.3,12h-7.6v9.7h-6.2V261H476C484.8,261,490.3,265.5,490.3,273z M484,273
			c0-4.2-2.8-6.7-8.3-6.7h-7.3v13.3h7.3C481.2,279.6,484,277.2,484,273z"/>
		<path class="st0" d="M494.1,281.8c0-7.7,5.8-13.1,13.6-13.1c8,0,13.7,5.4,13.7,13.1s-5.7,13.2-13.7,13.2
			C499.8,294.9,494.1,289.5,494.1,281.8z M515.3,281.8c0-4.9-3.3-8-7.6-8c-4.3,0-7.6,3.1-7.6,8s3.3,8,7.6,8
			C512.1,289.8,515.3,286.7,515.3,281.8z"/>
		<path class="st0" d="M542.2,268.7v5.7c-0.5-0.1-1-0.1-1.4-0.1c-4.6,0-7.4,2.7-7.4,7.9v12.4h-6V269h5.7v3.7
			C534.9,270,538,268.7,542.2,268.7z"/>
		<path class="st0" d="M576.8,293.2c-1.4,1.2-3.6,1.7-5.8,1.7c-5.6,0-8.8-3-8.8-8.6V274H558v-4.8h4.2v-5.9h6v5.9h6.9v4.8h-6.9v12.2
			c0,2.5,1.2,3.8,3.6,3.8c1.2,0,2.4-0.3,3.4-1.1L576.8,293.2z"/>
		<path class="st0" d="M581.2,261.2c0-2,1.6-3.6,3.8-3.6c2.2,0,3.8,1.5,3.8,3.5c0,2.1-1.6,3.7-3.8,3.7
			C582.8,264.8,581.2,263.2,581.2,261.2z M582,269h6v25.6h-6V269z"/>
		<path class="st0" d="M620.2,283.7h-20.1c0.7,3.7,3.8,6.1,8.3,6.1c2.9,0,5.1-0.9,7-2.8l3.2,3.7c-2.3,2.7-5.9,4.2-10.3,4.2
			c-8.6,0-14.2-5.5-14.2-13.2s5.6-13.1,13.2-13.1c7.5,0,13,5.2,13,13.2C620.3,282.4,620.2,283.1,620.2,283.7z M600,279.7h14.5
			c-0.5-3.7-3.3-6.2-7.2-6.2C603.4,273.5,600.6,276,600,279.7z"/>
		<path class="st0" d="M669.2,279.9v14.7h-6v-13.9c0-4.6-2.1-6.8-5.8-6.8c-3.9,0-6.7,2.6-6.7,7.7v13h-6v-13.9c0-4.6-2.1-6.8-5.8-6.8
			c-4,0-6.7,2.6-6.7,7.7v13h-6V269h5.7v3.3c1.9-2.3,4.9-3.6,8.4-3.6c3.7,0,6.9,1.4,8.6,4.3c2.1-2.6,5.5-4.3,9.6-4.3
			C664.9,268.7,669.2,272.2,669.2,279.9z"/>
		<path class="st0" d="M704.4,281.8c0,8-5.5,13.2-13,13.2c-3.3,0-6.1-1.1-8.2-3.5v12.4h-6V269h5.7v3.4c2-2.4,5-3.6,8.5-3.6
			C698.9,268.7,704.4,273.9,704.4,281.8z M698.3,281.8c0-4.9-3.3-8-7.6-8s-7.6,3.1-7.6,8s3.3,8,7.6,8S698.3,286.7,698.3,281.8z"/>
		<path class="st0" d="M708.3,281.8c0-7.7,5.8-13.1,13.6-13.1c8,0,13.7,5.4,13.7,13.1s-5.7,13.2-13.7,13.2
			C714,294.9,708.3,289.5,708.3,281.8z M729.5,281.8c0-4.9-3.3-8-7.6-8c-4.3,0-7.6,3.1-7.6,8s3.3,8,7.6,8
			C726.3,289.8,729.5,286.7,729.5,281.8z"/>
		<path class="st0" d="M483.9,309h6v35.6h-6V309z"/>
		<path class="st0" d="M497.3,311.2c0-2,1.6-3.6,3.8-3.6c2.2,0,3.8,1.5,3.8,3.5c0,2.1-1.6,3.7-3.8,3.7
			C498.9,314.8,497.3,313.2,497.3,311.2z M498.1,319h6v25.6h-6V319z"/>
		<path class="st0" d="M555.1,329.9v14.7h-6v-13.9c0-4.6-2.1-6.8-5.8-6.8c-3.9,0-6.7,2.6-6.7,7.7v13h-6v-13.9c0-4.6-2.1-6.8-5.8-6.8
			c-4,0-6.7,2.6-6.7,7.7v13h-6V319h5.7v3.3c1.9-2.3,4.9-3.6,8.4-3.6c3.7,0,6.9,1.4,8.6,4.3c2.1-2.6,5.5-4.3,9.6-4.3
			C550.8,318.7,555.1,322.2,555.1,329.9z"/>
		<path class="st0" d="M562.3,311.2c0-2,1.6-3.6,3.8-3.6c2.2,0,3.8,1.5,3.8,3.5c0,2.1-1.6,3.7-3.8,3.7
			C563.9,314.8,562.3,313.2,562.3,311.2z M563.1,319h6v25.6h-6V319z"/>
		<path class="st0" d="M592.6,343.2c-1.4,1.2-3.6,1.7-5.8,1.7c-5.6,0-8.8-3-8.8-8.6V324h-4.2v-4.8h4.2v-5.9h6v5.9h6.9v4.8H584v12.2
			c0,2.5,1.2,3.8,3.6,3.8c1.2,0,2.4-0.3,3.4-1.1L592.6,343.2z"/>
		<path class="st0" d="M619.3,329.6v15h-5.7v-3.1c-1.4,2.2-4.2,3.5-8.1,3.5c-5.9,0-9.6-3.2-9.6-7.7c0-4.3,2.9-7.6,10.7-7.6h6.6v-0.4
			c0-3.5-2.1-5.6-6.4-5.6c-2.9,0-5.9,1-7.8,2.5l-2.4-4.4c2.7-2.1,6.7-3.2,10.8-3.2C615.1,318.7,619.3,322.2,619.3,329.6z
			 M613.3,336.6v-3h-6.2c-4.1,0-5.2,1.5-5.2,3.4c0,2.2,1.8,3.6,4.9,3.6C609.8,340.6,612.3,339.2,613.3,336.6z"/>
		<path class="st0" d="M652.6,309v35.6h-5.8v-3.3c-2,2.4-5,3.6-8.5,3.6c-7.4,0-13-5.2-13-13.2s5.5-13.1,13-13.1
			c3.3,0,6.2,1.1,8.3,3.5V309H652.6z M646.7,331.8c0-4.9-3.3-8-7.6-8s-7.6,3.1-7.6,8s3.3,8,7.6,8S646.7,336.7,646.7,331.8z"/>
		<path class="st0" d="M658.7,331.8c0-7.7,5.8-13.1,13.6-13.1c8,0,13.7,5.4,13.7,13.1s-5.7,13.2-13.7,13.2
			C664.4,344.9,658.7,339.5,658.7,331.8z M680,331.8c0-4.9-3.3-8-7.6-8c-4.3,0-7.6,3.1-7.6,8s3.3,8,7.6,8
			C676.7,339.8,680,336.7,680,331.8z"/>
		<path class="st0" d="M690.9,341.2c0-2.1,1.6-3.7,3.9-3.7c2.2,0,3.8,1.6,3.8,3.7s-1.6,3.7-3.8,3.7
			C692.6,344.9,690.9,343.3,690.9,341.2z M691.3,311h7.1l-1.2,22.5h-4.8L691.3,311z"/>
	</g>
	<g>
		<g>
			<path class="st0" d="M405.7,430.5c-0.5,0-1-0.4-1.1-0.9c-0.1-0.6,0.2-1.3,0.9-1.4l10.7-2.5c0.6-0.1,1.3,0.2,1.4,0.9
				c0.1,0.6-0.2,1.3-0.9,1.4l-10.7,2.5C405.9,430.5,405.8,430.5,405.7,430.5z"/>
		</g>
		<g>
			<path class="st0" d="M273.7,462.6c-1.1,0-2-0.7-2.3-1.8c-0.3-1.3,0.5-2.5,1.8-2.8l65.5-15.3c1.3-0.3,2.5,0.5,2.8,1.8
				c0.3,1.3-0.5,2.5-1.8,2.8l-65.5,15.3C274.1,462.6,273.9,462.6,273.7,462.6z"/>
		</g>
		<g>
			<path class="st0" d="M193.4,481.4c-0.9,0-1.7-0.5-2.1-1.3L66.6,233.8L2.9,249.7c-1.3,0.3-2.5-0.5-2.9-1.7
				c-0.3-1.3,0.5-2.5,1.7-2.9l65.5-16.4c1.1-0.3,2.2,0.2,2.7,1.2l124.7,246.3l12.4-2.9c1.3-0.3,2.5,0.5,2.8,1.8
				c0.3,1.3-0.5,2.5-1.8,2.8l-14.2,3.3C193.8,481.4,193.6,481.4,193.4,481.4z"/>
		</g>
		<g>
			<path class="st0" d="M82.4,262.2c-1,0-2-0.7-2.3-1.7c-0.4-1.3,0.4-2.6,1.6-2.9l40.4-11.6c1.3-0.4,2.6,0.4,2.9,1.6
				c0.4,1.3-0.4,2.6-1.6,2.9l-40.4,11.6C82.8,262.1,82.6,262.2,82.4,262.2z"/>
		</g>
		<g>
			<path class="st0" d="M172.2,439.6c-1.1,0-2-0.7-2.3-1.8c-0.3-1.3,0.5-2.5,1.8-2.8L411,380.4V185.6l-36.7,8
				c-1.3,0.3-2.5-0.5-2.8-1.8c-0.3-1.3,0.5-2.5,1.8-2.8l39.6-8.7c0.7-0.2,1.4,0,2,0.5c0.6,0.4,0.9,1.1,0.9,1.8v199.6
				c0,1.1-0.8,2.1-1.8,2.3l-241.1,54.9C172.6,439.6,172.4,439.6,172.2,439.6z"/>
		</g>
		<g>
			<path class="st0" d="M191.5,405.4c-1.1,0-2-0.7-2.3-1.8l-13.8-59.9c-0.3-1.3,0.5-2.5,1.8-2.8c1.3-0.3,2.5,0.5,2.8,1.8l13.3,57.6
				l191.1-43.5l-20.2-82.9c-0.3-1.3,0.5-2.5,1.7-2.8c1.3-0.3,2.5,0.5,2.8,1.7l20.7,85.2c0.1,0.6,0,1.3-0.3,1.8
				c-0.3,0.5-0.9,0.9-1.5,1.1L192,405.3C191.8,405.4,191.6,405.4,191.5,405.4z"/>
		</g>
		<g>
			<path class="st0" d="M149.2,218.8c-1.1,0-2-0.7-2.3-1.8l-15.4-66c-0.1-0.6,0-1.3,0.3-1.8l38.3-59.9c0.3-0.5,0.8-0.9,1.4-1
				l92.2-21.5c0.6-0.1,1.2,0,1.7,0.3l61.4,36.9c0.5,0.3,0.9,0.8,1.1,1.5l11.5,46.8c0.3,1.3-0.5,2.5-1.7,2.9
				c-1.3,0.3-2.5-0.5-2.8-1.7l-11.3-45.9L264,71.6l-90.3,21.1l-37.3,58.2l15.1,65.1c0.3,1.3-0.5,2.5-1.8,2.8
				C149.6,218.8,149.4,218.8,149.2,218.8z"/>
		</g>
		<g>
			<path class="st0" d="M235.6,118.3c-0.5,0-0.9-0.1-1.3-0.4c-0.1-0.1-13.9-9.6-28.2-23.8c-19.5-19.2-30.8-37.4-33.8-54.1
				c-4-22.4,5.2-32,11-35.7c10.8-6.9,25.2-4.6,33.3,1.1c15.4,10.8,16.4,29.1,17.8,52.4c0.3,5.9,0.7,11.9,1.3,18.3
				c0.1,1.3-0.8,2.4-2.1,2.6c-1.4,0.1-2.4-0.8-2.6-2.1c-0.6-6.5-1-12.6-1.3-18.5c-1.3-22.8-2.3-39.4-15.8-48.8
				c-6.9-4.9-19.3-6.6-28.1-1c-8.5,5.4-11.5,16.1-8.9,30.9c6.7,37.7,59.5,74.5,60,74.9c1.1,0.7,1.3,2.2,0.6,3.3
				C237.1,117.9,236.4,118.3,235.6,118.3z"/>
		</g>
		<g>
			<path class="st0" d="M207.7,278c3.4,14.8-4.2,28.8-25.5,33.7c-12.6,2.9-25.5,1.3-33.8-4l2.7-8.1c7,4.6,17.9,6.5,29.1,3.9
				c14.8-3.4,21-12.5,18.5-23c-2.6-11.2-11.2-16.6-33.3-11.4l-18.6,4.3l-5.6-44.7l47.7-11l1.8,8l-39.8,9.2l3.4,28.5l11.2-2.6
				C191.8,254.5,204.1,262.5,207.7,278z"/>
			<path class="st0" d="M214.9,257.4c-6.4-27.8,4.3-47.7,24.5-52.4c20.2-4.7,38.7,8.5,45.1,36.3c6.4,27.8-4.4,47.7-24.6,52.4
				C239.7,298.4,221.3,285.2,214.9,257.4z M275.2,243.4c-5.4-23.3-18.8-33.7-34-30.2c-15.2,3.5-22.7,18.8-17.3,42
				c5.4,23.3,18.8,33.7,34,30.2C273.1,282,280.6,266.7,275.2,243.4z"/>
			<path class="st0" d="M291.3,218.1c-3.3-14.2,2.5-25.5,14.2-28.2c11.6-2.7,21.8,4.8,25.1,19.1c3.3,14.3-2.6,25.5-14.2,28.2
				C304.7,239.9,294.6,232.3,291.3,218.1z M324.4,210.4c-2.6-11.3-9.5-16.8-17.6-14.9c-8.2,1.9-11.9,10-9.3,21.2
				c2.6,11.2,9.4,16.8,17.6,14.9C323.2,229.7,327,221.7,324.4,210.4z M358.4,178.3l7.3-1.7l-39.3,100.9l-7.3,1.7L358.4,178.3z
				 M354.2,246.8c-3.3-14.2,2.6-25.5,14.2-28.2c11.7-2.7,21.9,4.9,25.1,19.1c3.3,14.2-2.5,25.5-14.2,28.2
				C367.8,268.6,357.5,261,354.2,246.8z M387.3,239.1c-2.6-11.2-9.4-16.8-17.6-14.9c-8.1,1.9-11.9,9.8-9.3,21.2
				c2.6,11.3,9.5,16.8,17.6,14.9C386.3,258.4,389.9,250.3,387.3,239.1z"/>
		</g>
		<g>
			<path class="st0" d="M204,336.2l5.4-1.1c4.3-0.9,7.7,1.3,8.5,5.2c0.8,3.9-1.5,7.3-5.8,8.2l-5.4,1.1L204,336.2z M211.9,347.2
				c3.5-0.7,5.4-3.5,4.7-6.7c-0.7-3.2-3.4-5-7-4.2l-3.9,0.8L208,348L211.9,347.2z"/>
			<path class="st0" d="M231.7,343.1l0.3,1.2l-9.4,2l-2.8-13.3l9.1-1.9l0.3,1.2l-7.7,1.6l1,4.7l6.9-1.4l0.2,1.2l-6.9,1.4l1,5
				L231.7,343.1z"/>
			<path class="st0" d="M237.5,329.3l5.4-1.1c4.3-0.9,7.7,1.3,8.5,5.2c0.8,3.9-1.5,7.3-5.8,8.1l-5.4,1.1L237.5,329.3z M245.4,340.3
				c3.5-0.7,5.4-3.5,4.7-6.7c-0.7-3.2-3.4-5-7-4.2l-3.9,0.8l2.3,10.9L245.4,340.3z"/>
			<path class="st0" d="M265.2,336.2l0.3,1.2l-9.4,2l-2.8-13.3l9.1-1.9l0.3,1.2l-7.7,1.6l1,4.7l6.9-1.4l0.2,1.2l-6.9,1.4l1,5
				L265.2,336.2z"/>
			<path class="st0" d="M267.2,335.3l0.3-1.2c1.1,0.7,3,1.1,4.7,0.7c2.5-0.5,3.4-1.8,3.1-3.1c-0.8-3.7-8.5,0.3-9.5-4.6
				c-0.4-2,0.8-4,4.2-4.7c1.5-0.3,3.2-0.2,4.4,0.3l-0.2,1.2c-1.3-0.5-2.7-0.6-3.9-0.3c-2.4,0.5-3.3,1.8-3,3.1
				c0.8,3.7,8.5-0.3,9.5,4.6c0.4,2-0.8,4-4.2,4.7C270.5,336.5,268.4,336.2,267.2,335.3z"/>
			<path class="st0" d="M277.9,327.8c-0.8-3.9,1.6-7.4,5.6-8.2c1.9-0.4,3.8-0.1,5.3,0.9l-0.7,1.1c-1.3-0.9-2.7-1.1-4.3-0.8
				c-3.2,0.7-5.2,3.5-4.5,6.7c0.7,3.2,3.6,5,6.8,4.4c1.5-0.3,2.8-1.1,3.6-2.4l1.1,0.7c-0.9,1.5-2.5,2.6-4.5,3
				C282.3,334,278.7,331.7,277.9,327.8z"/>
			<path class="st0" d="M292.8,325.8l-1.6-7.6l1.4-0.3l1.6,7.6c0.7,3.2,2.4,4.3,5,3.8c2.6-0.5,3.8-2.3,3.1-5.5l-1.6-7.6l1.4-0.3
				l1.6,7.6c0.8,3.8-0.9,6.2-4.3,6.9C296.1,331.1,293.6,329.6,292.8,325.8z"/>
			<path class="st0" d="M318.4,325.1l0.3,1.2l-9.4,2l-2.8-13.3l9.1-1.9l0.3,1.2l-7.7,1.6l1,4.7l6.9-1.4l0.2,1.2l-6.9,1.4l1,5
				L318.4,325.1z"/>
			<path class="st0" d="M330.4,310l2.8,13.3l-1.2,0.2l-10.8-9l2.2,10.8l-1.4,0.3l-2.8-13.3l1.2-0.2l10.8,9l-2.2-10.8L330.4,310z"/>
			<path class="st0" d="M337.5,309.8l-4.7,1l-0.3-1.2l10.8-2.2l0.3,1.2l-4.7,1l2.5,12.1l-1.4,0.3L337.5,309.8z"/>
			<path class="st0" d="M345.7,313.8c-0.8-3.9,1.6-7.4,5.6-8.2c4-0.8,7.6,1.4,8.4,5.3c0.8,3.9-1.6,7.4-5.6,8.2
				C350,320,346.5,317.7,345.7,313.8z M358.2,311.2c-0.7-3.2-3.5-5-6.7-4.4c-3.2,0.7-5.1,3.5-4.5,6.7c0.7,3.2,3.5,5,6.8,4.4
				C357,317.2,358.9,314.4,358.2,311.2z"/>
		</g>
		<g>
			<path class="st0" d="M240.8,504.8c-20,0-36.3-16.3-36.3-36.3c0-20,16.3-36.3,36.3-36.3c20,0,36.3,16.3,36.3,36.3
				C277.1,488.5,260.8,504.8,240.8,504.8z M240.8,436.9c-17.4,0-31.6,14.2-31.6,31.6s14.2,31.6,31.6,31.6s31.6-14.2,31.6-31.6
				S258.2,436.9,240.8,436.9z"/>
		</g>
		<g>
			<path class="st0" d="M373.2,475.4c-20,0-36.3-16.3-36.3-36.3s16.3-36.3,36.3-36.3c20,0,36.3,16.3,36.3,36.3
				S393.2,475.4,373.2,475.4z M373.2,407.4c-17.4,0-31.6,14.2-31.6,31.6s14.2,31.6,31.6,31.6s31.6-14.2,31.6-31.6
				S390.6,407.4,373.2,407.4z"/>
		</g>
		<g>
			<path class="st0" d="M226.3,122.9c-9.3,0-16.9-7.6-16.9-16.9c0-9.3,7.6-16.9,16.9-16.9c9.3,0,16.9,7.6,16.9,16.9
				C243.3,115.3,235.7,122.9,226.3,122.9z M226.3,93.8c-6.7,0-12.2,5.5-12.2,12.2c0,6.7,5.5,12.2,12.2,12.2
				c6.7,0,12.2-5.5,12.2-12.2C238.6,99.3,233.1,93.8,226.3,93.8z"/>
		</g>
	</g>
</g>
</svg>
