<svg id="Layer_2" data-name="Layer 2" xmlns="http://www.w3.org/2000/svg" width="55" height="55.5" viewBox="0 0 55 55.5">
  <defs>
    <style>
      .cls-1 {
        fill: #fff;
      }

      .cls-2 {
        fill: #1f252d;
      }
    </style>
  </defs>
  <title>facebook_CC</title>
  <g>
    <path class="cls-1" d="M55.1,27.7A27.6,27.6,0,1,0,23.2,55V35.7h-7v-8h7v-6c0-7,4.1-10.8,10.4-10.8a46.6,46.6,0,0,1,6.2.5v6.8H36.3c-3.4,0-4.5,2.2-4.5,4.4v5.1h7.7l-1.3,8H31.8V55A27.7,27.7,0,0,0,55.1,27.7Z"/>
    <path class="cls-2" d="M38.2,35.7l1.3-8H31.8V22.6c0-2.2,1.1-4.4,4.5-4.4h3.5V11.4a46.6,46.6,0,0,0-6.2-.5c-6.3,0-10.4,3.8-10.4,10.8v6h-7v8h7V55a29.9,29.9,0,0,0,4.3.4,29.9,29.9,0,0,0,4.3-.4V35.7Z"/>
  </g>
</svg>
