<svg id="Layer_2" data-name="Layer 2" xmlns="http://www.w3.org/2000/svg" width="55.2" height="55.2" viewBox="0 0 55.2 55.2">
  <defs>
    <style>
      .cls-1 {
        fill: #fff;
      }

      .cls-2 {
        fill: #1f252d;
      }
    </style>
  </defs>
  <title>instagram_CC</title>
  <g>
    <circle class="cls-1" cx="27.6" cy="27.6" r="27.6"/>
    <g>
      <path class="cls-2" d="M27.5,13.5h7a8.4,8.4,0,0,1,3.2.6,4.6,4.6,0,0,1,2,1.3,4.4,4.4,0,0,1,1.3,2,6.8,6.8,0,0,1,.6,3.2c.1,1.8.1,2.4.1,7s0,5.2-.1,7.1A6.8,6.8,0,0,1,41,38a4.4,4.4,0,0,1-1.3,2,4.6,4.6,0,0,1-2,1.3,11.1,11.1,0,0,1-3.2.6h-14a12,12,0,0,1-3.3-.6A5.7,5.7,0,0,1,13.9,38a11.1,11.1,0,0,1-.6-3.2c0-1.9-.1-2.4-.1-7.1s.1-5.2.1-7a11.1,11.1,0,0,1,.6-3.2,5.7,5.7,0,0,1,3.3-3.3,9.1,9.1,0,0,1,3.3-.6h7m0-3.2c-4.7,0-5.3.1-7.2.2a9.8,9.8,0,0,0-4.2.8,8.2,8.2,0,0,0-3.1,2,9.8,9.8,0,0,0-2,3,15,15,0,0,0-.8,4.3c-.1,1.8-.1,2.4-.1,7.1s0,5.4.1,7.2a13.6,13.6,0,0,0,.8,4.2,10.3,10.3,0,0,0,2,3.1,8.2,8.2,0,0,0,3.1,2,14.2,14.2,0,0,0,4.2.8H34.7a14.2,14.2,0,0,0,4.2-.8,8.2,8.2,0,0,0,3.1-2,10.3,10.3,0,0,0,2-3.1,13.6,13.6,0,0,0,.8-4.2c.1-1.8.1-2.4.1-7.2s0-5.3-.1-7.1a15,15,0,0,0-.8-4.3,9.8,9.8,0,0,0-2-3,8.2,8.2,0,0,0-3.1-2,9.8,9.8,0,0,0-4.2-.8c-1.9-.1-2.5-.2-7.2-.2Z" transform="translate(0.1 -0.1)"/>
      <path class="cls-2" d="M27.5,18.8a9,9,0,1,0,8.9,8.9A8.9,8.9,0,0,0,27.5,18.8Zm0,14.7a5.8,5.8,0,1,1,5.8-5.8A5.8,5.8,0,0,1,27.5,33.5Z" transform="translate(0.1 -0.1)"/>
      <circle class="cls-2" cx="36.9" cy="18.3" r="2.1"/>
    </g>
  </g>
</svg>
