<svg id="Layer_2" data-name="Layer 2" xmlns="http://www.w3.org/2000/svg" width="122.4" height="178.2" viewBox="0 0 122.4 178.2">
  <defs>
    <style>
      .cls-1 {
        fill: #fff;
      }

      .cls-2 {
        fill: #d02c2f;
      }
    </style>
  </defs>
  <title>isotipo_CC</title>
  <circle class="cls-1" cx="61.2" cy="89.1" r="60.7"/>
  <path class="cls-2" d="M115.6,68.7c-.4-.9-1.1-2.4-2.3-2.2s-1.1,1.1-1.1,2.7a17.9,17.9,0,0,1-.9,5.4c-.6,2.2-2.9,7-7.8,14.9-2.7,4.4-6.9,9.5-8.8,10.6s-4.5.1-5.8-4.5a47.8,47.8,0,0,1-1.2-5.7,52.9,52.9,0,0,1,.6-13.8c.8-4.4,4.4-11.9,6.7-11.7s.2,3.1.1,3.6-.4.7-.6.7-.7.3-.4.7,1.1,3.3,2.8,3.7,4.6-2.4,4.3-10.2c-.1-3.3-2.9-5.8-4.7-5.8-5.3,0-11.5,7.5-13.2,14.2-1.3,5-2.1,9.5-2.9,14.5-.3,2.1-1,4.3-1.5,6.5a58.1,58.1,0,0,1-4.7,11.9c-1,2.1-3.6,7.7-7.3,11.8a42.5,42.5,0,0,1-5.2,5.2c-1.1-4.3-4-15.7-4.4-17.6a31.9,31.9,0,0,1-.7-4.1,6.5,6.5,0,0,1,.2-2.5c.3-.7,2.3-4.6,3-6.3A343.1,343.1,0,0,0,74.3,52.6a176.8,176.8,0,0,0,6.4-26.9c.9-7.3.9-12.9-.1-16.9S78.1,2.1,76.1.9s-4.5-1-7.2.6-5,4.2-7.2,7.8a71.1,71.1,0,0,0-7.2,16.9,118.2,118.2,0,0,0-3.9,18.6C49.8,51,49.3,57.2,49.1,63s-.2,11.2,0,15.8.7,9.3,1.2,14.5c0,2.2-.8,4.2-1.9,7.4s-3.4,7.6-5.2,11a91.3,91.3,0,0,1-6,9.2c-2.1,2.7-4.7,5.6-6.3,5.9s-5.1-3.4-5.8-6.9a48.5,48.5,0,0,1,.2-17.1c.8-4.4,5.4-11.7,6.3-11.8s.6,2.3.5,3.3-.4,1-.7,1-.7.2-.4.7,1,2,1.1,2.2,1.1,1.5,1.7,1.6c2.5.2,3.8-2.6,4-3.6a17.7,17.7,0,0,0-.4-8.1c-.9-2.6-2.5-3.9-3.9-4.3-3.6-1-8,2.6-11.7,10.3a44.2,44.2,0,0,0-4.1,17,35.8,35.8,0,0,0,1.4,11.3c1.7,5.6,5.5,10.4,11.6,10.2,3.9-.5,5.7-1.8,7.2-3.6s2.1-2.3,3.2-3.7c.1,2.7.7,4.5,1.8,5.6a6.7,6.7,0,0,0,4.8,1.7c4.4.1,9.1-3.1,10.7-3.9a146.4,146.4,0,0,0,8.8,19.9c1.9,3.6,5.3,6.6,8.7,5.7a4.4,4.4,0,0,0,2.9-3.6,2,2,0,0,0-1.9-2.4c-1.6-.2-2.2.7-2.9,1.3s-1.1-1-2.4-3.5a77.1,77.1,0,0,1-3.7-7.6c-1.2-2.8-4.5-11.6-4.7-12.1a44.3,44.3,0,0,0,8.1-8.1,72.5,72.5,0,0,0,6.8-10.5,101.3,101.3,0,0,0,5-10.6c.7,1.6,2.7,5.3,5.6,7.3,4.5,3.1,8.4,2.4,12.2-2.2s4.9-7.1,7.5-11.7a72.7,72.7,0,0,0,6.2-12.9c1.1-3.3,1.7-7.1,1-9M54.2,70.8a157.4,157.4,0,0,1,1.2-15.9c.7-5.6,1.7-11.4,3-17.3a126,126,0,0,1,4.5-15.8,54.8,54.8,0,0,1,5.5-11.6c1.9-2.9,3.9-4.3,5.9-4.3S75.8,8.1,76,9.5a49.1,49.1,0,0,1-.2,10.7,152.9,152.9,0,0,1-2.6,15.6c-1.2,5.8-2.8,12-4.6,18.3s-4,12.7-6.3,19A168.7,168.7,0,0,1,55.4,89c-.1-.7-1.3-13.4-1.2-18.2m-7.8,56.6c-.6-.9-2-2.7,2.9-13.8l3.2-7.7q.2,1.5,1.8,8.1c1.2,4.4,1.6,7,2.7,10.1-8,4.6-10.1,4-10.6,3.3"/>
</svg>
