<svg id="Layer_2" data-name="Layer 2" xmlns="http://www.w3.org/2000/svg" width="391" height="86" viewBox="0 0 391 86">
  <defs>
    <style>
      .cls-1 {
        fill: #fff;
      }
    </style>
  </defs>
  <title>logotipo_CC</title>
  <g>
    <path class="cls-1" d="M6.5,15.5H4.3A4.5,4.5,0,0,0-.2,20V46.7a4.5,4.5,0,0,0,4.5,4.4H6.5a4.4,4.4,0,0,0,4.3-4.4V41.6L8.2,42.7a2.2,2.2,0,0,0-.9,2V46a2,2,0,0,1-2,2,2,2,0,0,1-1.9-2V20.6a1.9,1.9,0,0,1,1.9-1.9,1.9,1.9,0,0,1,2,1.9v4.5l2.6-1.2a2,2,0,0,0,.9-1.9V20A4.5,4.5,0,0,0,6.5,15.5Z"/>
    <path class="cls-1" d="M207,15.5h-2.2a4.5,4.5,0,0,0-4.5,4.5V46.7a4.5,4.5,0,0,0,4.5,4.4H207a4.4,4.4,0,0,0,4.3-4.4V43.2l-2.6,1.2a1.9,1.9,0,0,0-1,1.9V46a1.9,1.9,0,1,1-3.8,0V20.6a1.9,1.9,0,1,1,3.8,0v2.8l2.6-1.2c.5-.2,1-.7,1-1.9V20A4.5,4.5,0,0,0,207,15.5Z"/>
    <path class="cls-1" d="M36.6,15.5H33.8A4.5,4.5,0,0,0,29.3,20V46.7a4.6,4.6,0,0,0,4.5,4.4h2.8a4.4,4.4,0,0,0,4.3-4.4V20A4.5,4.5,0,0,0,36.6,15.5ZM37.3,46a2,2,0,0,1-1.9,2h-.6a2.1,2.1,0,0,1-1.9-2V20.6a2,2,0,0,1,1.9-1.9h.6a1.9,1.9,0,0,1,1.9,1.9Z"/>
    <path class="cls-1" d="M64.2,17a1.1,1.1,0,0,0-1.1-1.1H60.6V50.8h8.6a1.9,1.9,0,0,0,1.9-1c.2-.3.7-1.7,1.1-2.6h-8Z"/>
    <path class="cls-1" d="M90.3,15.9H88.1V50c.1.3.2.8,1.1.8h2.5V17.3A1.4,1.4,0,0,0,90.3,15.9Z"/>
    <path class="cls-1" d="M119.5,36l-3.7-18.2c-.2-1-.6-1.9-2.5-1.9h-1.7V50.8h3.6V31.3L119,48.5c.2.7.5,2.3,2.4,2.3h1.7V15.9h-3.6Z"/>
    <path class="cls-1" d="M237,15.5h-2.7a4.5,4.5,0,0,0-4.5,4.5V46.7a4.6,4.6,0,0,0,4.5,4.4H237a4.6,4.6,0,0,0,4.4-4.4V20A4.6,4.6,0,0,0,237,15.5Zm.7,30.5a1.9,1.9,0,0,1-1.9,2h-.5a2,2,0,0,1-1.9-2V20.6a1.9,1.9,0,0,1,1.9-1.9h.5a1.8,1.8,0,0,1,1.9,1.9Z"/>
    <path class="cls-1" d="M270.9,37.7V20.3a4.4,4.4,0,0,0-4.4-4.4H260V50.8h3.5V42.4h1.9c1,0,1.9.5,1.9,2.2v6.2h3.6V44s.1-2.5-1.3-3.2C271,40.4,270.9,37.7,270.9,37.7Zm-3.6-.7c0,1.6-.9,2-1.9,2h-1.9V19.2h1.9a1.7,1.7,0,0,1,1.9,1.8Z"/>
    <path class="cls-1" d="M301.1,20.3a4.5,4.5,0,0,0-4.5-4.4h-6.9V50.8h6.9a4.5,4.5,0,0,0,4.5-4.4Zm-3.6,25.1a1.7,1.7,0,0,1-1.9,1.8h-2.3V19.5h2.3a1.7,1.7,0,0,1,1.9,1.8Z"/>
    <path class="cls-1" d="M331.1,46.7V20a4.6,4.6,0,0,0-4.4-4.5H324a4.5,4.5,0,0,0-4.5,4.5V46.7a4.5,4.5,0,0,0,4.5,4.4h2.7A4.6,4.6,0,0,0,331.1,46.7Zm-3.7-.7a1.9,1.9,0,0,1-1.9,2H325a2,2,0,0,1-1.9-2V20.6a1.9,1.9,0,0,1,1.9-1.9h.5a1.8,1.8,0,0,1,1.9,1.9Z"/>
    <path class="cls-1" d="M360.6,37.1V20.3a4.4,4.4,0,0,0-4.4-4.4h-6.5V50.8h6.5a4.4,4.4,0,0,0,4.4-4.4V42.8a2.8,2.8,0,0,0-2-2.8A3,3,0,0,0,360.6,37.1ZM357,45.4a1.7,1.7,0,0,1-1.8,1.8h-2V41.6h2c.9,0,1.8.4,1.8,2Zm0-9.1c0,1.6-.9,2-1.8,2h-2V19.5h2a1.7,1.7,0,0,1,1.8,1.8Z"/>
    <path class="cls-1" d="M386.1,17.8c-.1-1-.4-1.9-1.9-1.9h-1.9L377,50.8h3.9l3.2-24.1,3.1,24.1h4Z"/>
    <path class="cls-1" d="M166.6,63.9a1.7,1.7,0,0,0,1.4,0,2,2,0,0,0,.8-1.5l-.4-.2h-.8a.2.2,0,0,0-.2.2h-.2A4.5,4.5,0,0,1,166,61a19.1,19.1,0,0,1-1.6-3.2l-1.3-3.3-.7-1.9a19.3,19.3,0,0,0,3.5-3.5,31.8,31.8,0,0,0,2.8-4.3,46.9,46.9,0,0,0,2.1-4.6,33.4,33.4,0,0,0,1.4-4.1,12.3,12.3,0,0,0,.4-2.9c0-.8-.2-1.2-.6-1.1s-1.6.2-1.6,1.4a11.1,11.1,0,0,1-.3,2.3,14.7,14.7,0,0,1-.6,2.7,21.5,21.5,0,0,1-1,2.7,9.9,9.9,0,0,1-1,2.3,10.1,10.1,0,0,1-1.6,2.6,25,25,0,0,1-1.8,2.4l-1.5,1.8-.7.6h0l-1.2-4.7c-.3-1.3-.6-2.2-.7-3a7.4,7.4,0,0,1-.3-1.8,2,2,0,0,1,.1-1.1,4.7,4.7,0,0,1,.5-1l.7-1.6a168.5,168.5,0,0,0,6.1-15.9,69.5,69.5,0,0,0,2.6-11.3,19.5,19.5,0,0,0,0-6.9A5.3,5.3,0,0,0,168,.4a2.7,2.7,0,0,0-2.8.3,8.3,8.3,0,0,0-2.9,3.2,26,26,0,0,0-3,7,40.5,40.5,0,0,0-1.6,7.7,49.6,49.6,0,0,0-.6,7.6c-.1,2.4-.1,4.6,0,6.5s.2,4.1.4,6.4c.2.3.1,1-.3,2s-.8,2.2-1.4,3.4-1,2.6-1.4,3.9a9.3,9.3,0,0,0-.7,3.2,3.9,3.9,0,0,0,.7,2.8,2.3,2.3,0,0,0,1.8.6,5.3,5.3,0,0,0,2.3-.6l2.3-1.1.5,1.4c.4.8,1,2.3,1.8,4.4a15.2,15.2,0,0,0,1.8,3.2A6.1,6.1,0,0,0,166.6,63.9Zm-7.9-34.5a52.8,52.8,0,0,1,.5-6.6c.3-2.4.7-4.8,1.2-7.3a69.4,69.4,0,0,1,1.9-6.7A19.5,19.5,0,0,1,164.7,4c.8-1.3,1.7-2,2.6-2s.8.6,1,1.8a23.6,23.6,0,0,1-.1,4.5c-.2,1.9-.6,4.1-1.1,6.5a78.5,78.5,0,0,1-1.9,7.7c-.8,2.7-1.7,5.3-2.7,8s-2.1,5.1-3.2,7.4a13.7,13.7,0,0,1-.2-1.6c0-.4-.1-.8-.1-1.2v-.9A20.9,20.9,0,0,1,158.7,29.4Zm1.6,22.5c-2.7,1.6-4.4,2-4.9,1.3s.1-2.8,1.7-6.5a12.4,12.4,0,0,0,.9-2.8,2.5,2.5,0,0,1,.2-1.2c.1.3.2,1.3.5,2.8a32.7,32.7,0,0,0,1.6,6.1C160.4,51.8,160.3,51.9,160.3,51.9Z"/>
    <path class="cls-1" d="M41.1,78.2c0,2.7-.1,5.1-.2,7.3h2c-.1-1.3-.2-3.4-.2-6.1h4.9V77.9H42.7c0-2.1,0-3.7-.1-4.9h6.5V71.6H40.9C41,73.5,41.1,75.7,41.1,78.2Z"/>
    <path class="cls-1" d="M53.8,74.1c.1,1.6.1,3.4.1,5.5s0,4.1-.1,5.9h1.9c0-1.8-.1-3.8-.1-5.9s.1-3.9.1-5.5Z"/>
    <path class="cls-1" d="M67.2,79.9h0a3.2,3.2,0,0,0,2.3-3.1c0-1.7-1.4-2.6-4.2-2.6h-4c.1,1.6.2,3.4.2,5.5s-.1,4.1-.2,5.9h2c-.1-1.4-.1-3-.1-4.8h1.3a3.9,3.9,0,0,1,1.8.3,2.6,2.6,0,0,1,1.1,1.2c.3.6.7,1.7,1.3,3.3h2a28.9,28.9,0,0,0-1.9-4.3A2.8,2.8,0,0,0,67.2,79.9Zm-3-.4H63.1V75.4h1.7c2,0,2.9.7,2.9,2S66.5,79.5,64.2,79.5Z"/>
    <path class="cls-1" d="M87.8,74.1H85.1a17.2,17.2,0,0,1-1.6,4.7,18.3,18.3,0,0,0-1.6,4.6h-.1a24.5,24.5,0,0,0-1.4-4.6,18.2,18.2,0,0,1-1.5-4.7H76.2c0,.7-.2,2.8-.6,6.2s-.7,5.2-.7,5.2h1.8c0-1,.1-2.6.3-5s.4-4.1.4-4.9h.1l.3,1.3c.4,1.1,1,2.8,2,5.2a18.4,18.4,0,0,1,1.1,3.4h1.4a15,15,0,0,1,1.2-3.3,39.4,39.4,0,0,0,2.1-5.3,12.8,12.8,0,0,0,.4-1.3h.1c0,.5.1,2,.3,4.6s.3,4.1.3,5.3h2c0-.1-.2-1.8-.5-5.2S87.8,74.8,87.8,74.1Z"/>
    <path class="cls-1" d="M99.9,74.1H97.4a31.2,31.2,0,0,1-2.3,5.8,57.8,57.8,0,0,0-2.4,5.6h2.1a20.6,20.6,0,0,1,1.1-3.6h5.2a20.6,20.6,0,0,1,1.1,3.6h2.2a41,41,0,0,0-2.2-5.7A39.2,39.2,0,0,1,99.9,74.1Zm-3.6,6.6c1.4-3.4,2.2-5.2,2.2-5.4h.1c0,.3.7,2,2,5.4Z"/>
    <path class="cls-1" d="M120.2,79.8a10.6,10.6,0,0,1-.2,2.1,3,3,0,0,1-.6,1.4,1.5,1.5,0,0,1-1.1.8,3.8,3.8,0,0,1-1.6.3,3.4,3.4,0,0,1-1.6-.4v1.6l1.8.2a8.8,8.8,0,0,0,2.4-.3,4.4,4.4,0,0,0,1.5-1.2,4.8,4.8,0,0,0,.9-1.9,10.9,10.9,0,0,0,.3-2.8c0-1.6,0-3.1.1-4.4s0-2.5.1-3.6H120C120.1,73.9,120.2,76.6,120.2,79.8Z"/>
    <path class="cls-1" d="M136.2,79.4a7.7,7.7,0,0,1-.8,4.1,3,3,0,0,1-2.4,1,2.8,2.8,0,0,1-2.5-1.1,7.7,7.7,0,0,1-.7-3.9c0-1.4,0-3.2.1-5.4h-2c0,2.2.1,4,.1,5.6s.4,4,1.2,4.8a4.9,4.9,0,0,0,3.7,1.3c3.3,0,5-2,5-5.9,0-1.7,0-3.6.1-5.8h-1.9C136.2,76.3,136.2,78.1,136.2,79.4Z"/>
    <path class="cls-1" d="M149.3,79.9h0a3.1,3.1,0,0,0,2.3-3.1c0-1.7-1.4-2.6-4.1-2.6h-4c.1,1.6.1,3.4.1,5.5s0,4.1-.1,5.9h1.9c-.1-1.4-.1-3-.1-4.8h1.3a4.4,4.4,0,0,1,1.9.3,3.2,3.2,0,0,1,1,1.2,22.2,22.2,0,0,1,1.3,3.3h2.1a39.3,39.3,0,0,0-2-4.3A2.6,2.6,0,0,0,149.3,79.9Zm-3-.4h-1c0-1.7-.1-3.1-.1-4.1H147c1.9,0,2.8.7,2.8,2S148.7,79.5,146.3,79.5Z"/>
    <path class="cls-1" d="M158.3,71.3l-1,1.8h1.3l1.5-1.8a9,9,0,0,0,1.5-1.7h-2.3A17.7,17.7,0,0,1,158.3,71.3Z"/>
    <path class="cls-1" d="M157.3,74.1c.1,1.6.1,3.4.1,5.5s0,4.1-.1,5.9h1.9c0-1.8-.1-3.8-.1-5.9s.1-3.9.1-5.5Z"/>
    <path class="cls-1" d="M168.4,74.1h-3.6c.1,1.6.2,3.4.2,5.5s-.1,4.1-.2,5.9l3.4.2a6.2,6.2,0,0,0,6.5-6.3,5.3,5.3,0,0,0-1.6-3.8A6.6,6.6,0,0,0,168.4,74.1Zm3.3,8.9a4.5,4.5,0,0,1-3.6,1.3h-1.4c-.1-1.6-.1-3.1-.1-4.6s0-2.8-.1-4.1h1.3a5,5,0,0,1,3.8,1.3,4.3,4.3,0,0,1,1.2,3.1A5,5,0,0,1,171.7,83Z"/>
    <path class="cls-1" d="M179.6,74.1c.1,1.6.2,3.4.2,5.5s-.1,4.1-.2,5.9h2c-.1-1.8-.1-3.8-.1-5.9s0-3.9.1-5.5Z"/>
    <path class="cls-1" d="M189.8,83a4.7,4.7,0,0,1-.2-6.3,4.2,4.2,0,0,1,3.3-1.3l2,.3.3-1.5a6.5,6.5,0,0,0-1.9-.2,6.6,6.6,0,0,0-4.9,1.8,6,6,0,0,0-1.8,4.3,5.4,5.4,0,0,0,1.6,4,6.6,6.6,0,0,0,4.9,1.7l2.6-.3V84l-2.4.4A4.6,4.6,0,0,1,189.8,83Z"/>
    <path class="cls-1" d="M206.4,74.1h-2.5a37.2,37.2,0,0,1-2.4,5.8,57.8,57.8,0,0,0-2.4,5.6h2.1a20.6,20.6,0,0,1,1.1-3.6h5.2a14,14,0,0,1,1.1,3.6h2.2a41,41,0,0,0-2.2-5.7A32.5,32.5,0,0,1,206.4,74.1Zm-3.7,6.6a49.5,49.5,0,0,0,2.2-5.4h.1a49.9,49.9,0,0,0,2.1,5.4Z"/>
    <path class="cls-1" d="M228.1,77a8.7,8.7,0,0,0-1.5,3.2h-.1a9.7,9.7,0,0,0-1.5-3.3,16,16,0,0,1-1.5-2.8h-2.2a8.9,8.9,0,0,0,1.2,2l2.1,3.2a5.9,5.9,0,0,1,.8,2.5c0,1.3,0,2.5-.1,3.7h2c-.1-1.2-.1-2.5-.1-3.7a3.7,3.7,0,0,1,.8-2.2,28.5,28.5,0,0,1,2.1-3.2,7.2,7.2,0,0,0,1.4-2.3h-2A14.6,14.6,0,0,1,228.1,77Z"/>
    <path class="cls-1" d="M246.3,82.6a5.9,5.9,0,0,1-1.5-4,6.6,6.6,0,0,1,1.3-4,5.1,5.1,0,0,1,4-1.6,11.5,11.5,0,0,1,2.2.4l.3-1.7-2.1-.3a7.5,7.5,0,0,0-5.5,2.2,7.6,7.6,0,0,0-2.1,5.3,6.7,6.7,0,0,0,1.9,4.9c1.2,1.4,3,2,5.5,2a9.2,9.2,0,0,0,2.9-.4V83.8a11.2,11.2,0,0,1-2.7.5A5.8,5.8,0,0,1,246.3,82.6Z"/>
    <path class="cls-1" d="M263.4,73.9a5.7,5.7,0,0,0-4.2,1.7,5.8,5.8,0,0,0-1.8,4.5,5.4,5.4,0,0,0,1.7,4.2,6.1,6.1,0,0,0,4,1.6,5.7,5.7,0,0,0,4.1-1.7,6,6,0,0,0,1.8-4.6,5.4,5.4,0,0,0-1.7-4.2A5.6,5.6,0,0,0,263.4,73.9Zm2.6,9.3a3.3,3.3,0,0,1-2.6,1.3,4.2,4.2,0,0,1-2.9-1.2,5.4,5.4,0,0,1,0-6.8,3.5,3.5,0,0,1,2.6-1.3,3.5,3.5,0,0,1,2.8,1.3,4.2,4.2,0,0,1,1.3,3.3A4.9,4.9,0,0,1,266,83.2Z"/>
    <path class="cls-1" d="M281.8,74.1c.1,1.6.2,3.3.2,5.4a24.3,24.3,0,0,0,.2,3.6h-.1a27.6,27.6,0,0,0-3.3-5,30.1,30.1,0,0,1-2.7-4H274c.1,1.6.2,3.4.2,5.5s-.1,4.1-.2,5.9h1.8c-.1-2-.2-3.9-.2-5.8a22.4,22.4,0,0,0-.2-3.5h.2c.2.7,1.4,2.5,3.5,5.2a48.6,48.6,0,0,1,3,4.1h1.5c-.1-1.8-.1-3.8-.1-5.9s0-3.9.1-5.5Z"/>
    <path class="cls-1" d="M287.9,75.5h3.8c.1,1.2.1,2.5.1,4.2s0,4-.1,5.9h1.9c-.1-2-.1-4-.1-5.9V75.4h3.8V74.1H288Z"/>
    <path class="cls-1" d="M307.1,74.1h-2.5a31.2,31.2,0,0,1-2.3,5.8,57.8,57.8,0,0,0-2.4,5.6H302a20.6,20.6,0,0,1,1.1-3.6h5.2a20.6,20.6,0,0,1,1.1,3.6h2.2a41,41,0,0,0-2.2-5.7A39.2,39.2,0,0,1,307.1,74.1Zm-3.6,6.6q2.1-5.1,2.1-5.4h.2c0,.3.7,2,2,5.4Z"/>
    <path class="cls-1" d="M322,79.3h0a2.5,2.5,0,0,0,1.9-2.6c0-1.7-1.3-2.5-4-2.5h-4c.1,1.6.1,3.4.1,5.5s0,4.1-.1,5.9h3a8.4,8.4,0,0,0,4.2-.9,3,3,0,0,0,1.6-2.6C324.7,80.5,323.8,79.6,322,79.3Zm-4.4-3.9h2c1.7,0,2.5.6,2.5,1.8a1.5,1.5,0,0,1-.8,1.4,6.4,6.4,0,0,1-2.7.4h-.9C317.7,77.1,317.6,75.9,317.6,75.4Zm4.4,8.4a7.1,7.1,0,0,1-3,.5h-1.2c-.1-1.2-.1-2.5-.1-4h1.2c2.7,0,4,.7,4,2.1A1.8,1.8,0,0,1,322,83.8Z"/>
    <path class="cls-1" d="M331.5,79.6c0-2.5,0-4.3.1-5.5h-1.9c0,1.4.1,3.3.1,5.5s-.1,4.5-.1,5.9h7.5V84.1h-5.8C331.5,83,331.5,81.5,331.5,79.6Z"/>
    <path class="cls-1" d="M343.4,80.2h4.4V78.8l-4.5.2V75.5h5.4V74.1h-7.2c.1,1.6.1,3.4.1,5.5s0,4.1-.1,5.9h7.7V84.1h-5.8C343.4,83,343.4,81.6,343.4,80.2Z"/>
    <path class="cls-1" d="M236.1,12h.4a1,1,0,0,0,.9-.4,1.9,1.9,0,0,0,.5-.9l1.9-4.4c.1-.4.1-.7-.1-.9a1,1,0,0,0-.9-.4h-1.7l-.2.4-1.3,6c0,.2,0,.3.1.4Z"/>
  </g>
</svg>
