<?xml version="1.0" encoding="utf-8"?>
<!-- Generator: Adobe Illustrator 26.2.1, SVG Export Plug-In . SVG Version: 6.00 Build 0)  -->
<svg version="1.1" id="Capa_1" xmlns="http://www.w3.org/2000/svg" xmlns:xlink="http://www.w3.org/1999/xlink" x="0px" y="0px"
	 viewBox="0 0 391 86" style="enable-background:new 0 0 391 86;" xml:space="preserve">
<style type="text/css">
	.st0{fill:#FFFFFF;}
</style>
<g>
	<g>
		<path class="st0" d="M10.95,56.06c0,2.39-1.89,4.33-4.28,4.43H4.48C1.99,60.49,0,58.5,0,56.06V29.38c0-2.44,1.99-4.43,4.48-4.43
			h2.19c2.39,0.05,4.28,2.04,4.28,4.43v2.01c0,1.15-0.5,1.69-0.95,1.89l-2.59,1.19v-4.5c0-1.05-0.85-1.89-1.94-1.89
			c-1.05,0-1.89,0.85-1.89,1.89v25.44c0,1.1,0.85,1.94,1.89,1.94c1.1,0,1.94-0.85,1.94-1.94v-1.36c0-1.15,0.5-1.69,0.95-1.94
			c0.3-0.15,1.69-0.75,2.59-1.15V56.06z"/>
		<path class="st0" d="M211.26,56.04c0,2.39-1.89,4.33-4.28,4.43h-2.19c-2.49,0-4.48-1.99-4.48-4.43V29.35
			c0-2.44,1.99-4.43,4.48-4.43h2.19c2.39,0.05,4.28,2.04,4.28,4.43v0.35c0,1.15-0.5,1.69-0.94,1.89l-2.59,1.19v-2.84
			c0-1.05-0.85-1.89-1.94-1.89c-1.05,0-1.89,0.85-1.89,1.89v25.44c0,1.1,0.85,1.94,1.89,1.94c1.1,0,1.94-0.85,1.94-1.94v0.3
			c0-1.15,0.5-1.69,0.95-1.94c0.3-0.15,1.69-0.75,2.59-1.15V56.04z"/>
		<path class="st0" d="M36.69,24.92c2.39,0.1,4.33,2.04,4.33,4.43v26.74c-0.05,2.39-1.94,4.28-4.33,4.38h-2.74
			c-2.44,0-4.43-1.99-4.48-4.38V29.35c0-2.44,1.99-4.43,4.48-4.43H36.69z M35.5,57.33c1.05,0,1.89-0.85,1.89-1.94V30
			c0-1.1-0.85-1.94-1.89-1.94h-0.55c-1.05,0.05-1.89,0.9-1.89,1.94v25.39c0,1.05,0.85,1.89,1.89,1.94H35.5z"/>
		<path class="st0" d="M72.35,56.59c-0.4,0.9-1,2.29-1.14,2.59c-0.25,0.45-0.8,0.95-1.94,0.95h-8.56V25.27h2.49
			c0.6,0.05,1.1,0.5,1.1,1.09v30.22H72.35z"/>
		<path class="st0" d="M90.37,25.27c1.05,0,1.44,0.8,1.44,1.39v33.46h-2.54c-0.85,0-1-0.5-1.04-0.75v-34.1H90.37z"/>
		<path class="st0" d="M123.13,60.12h-1.64c-1.94,0-2.24-1.54-2.39-2.24l-3.83-17.23v19.47h-3.59V25.27h1.64
			c1.99,0,2.34,0.94,2.54,1.94l3.68,18.12V25.27h3.59V60.12z"/>
		<path class="st0" d="M237,24.92c2.39,0.1,4.33,2.04,4.33,4.43v26.74c-0.05,2.39-1.94,4.28-4.33,4.38h-2.74
			c-2.44,0-4.43-1.99-4.48-4.38V29.35c0-2.44,1.99-4.43,4.48-4.43H237z M235.81,57.33c1.05,0,1.89-0.85,1.89-1.94V30
			c0-1.1-0.85-1.94-1.89-1.94h-0.55c-1.05,0.05-1.89,0.9-1.89,1.94v25.39c0,1.05,0.85,1.89,1.89,1.94H235.81z"/>
		<path class="st0" d="M267.22,60.12v-6.11c0-1.69-0.9-2.24-1.84-2.24h-1.89v8.35h-3.59V25.27h6.52c2.39,0,4.38,1.94,4.38,4.38
			v17.39c0,0,0.15,2.74-1.3,3.09c1.39,0.7,1.3,3.29,1.3,3.29v6.71H267.22z M265.38,48.39c0.94,0,1.84-0.4,1.84-1.99v-16
			c0-1.3-0.9-1.79-1.84-1.79h-1.89v19.78H265.38z"/>
		<path class="st0" d="M296.55,25.27c2.44,0,4.38,1.94,4.43,4.38v26.09c-0.05,2.44-1.99,4.38-4.43,4.38h-6.92V25.27H296.55z
			 M297.45,30.65c0-1.29-0.89-1.79-1.89-1.79h-2.34v27.73h2.34c1,0,1.89-0.5,1.89-1.84V30.65z"/>
		<path class="st0" d="M326.62,24.92c2.39,0.1,4.33,2.04,4.33,4.43v26.74c-0.05,2.39-1.94,4.28-4.33,4.38h-2.74
			c-2.44,0-4.43-1.99-4.48-4.38V29.35c0-2.44,1.99-4.43,4.48-4.43H326.62z M325.43,57.33c1.05,0,1.89-0.85,1.89-1.94V30
			c0-1.1-0.85-1.94-1.89-1.94h-0.55c-1.05,0.05-1.89,0.9-1.89,1.94v25.39c0,1.05,0.85,1.89,1.89,1.94H325.43z"/>
		<path class="st0" d="M360.48,52.17v3.57c-0.05,2.44-1.99,4.38-4.43,4.38h-6.47V25.27h6.47c2.44,0,4.38,1.94,4.43,4.38v16.84
			c0,0,0.05,2.19-2.04,2.84C360.53,49.98,360.48,52.17,360.48,52.17z M356.9,30.65c0-1.29-0.9-1.79-1.84-1.79h-1.94v18.84h1.94
			c0.95,0,1.84-0.45,1.84-2.04V30.65z M356.9,52.97c0-1.54-0.9-1.99-1.84-1.99h-1.94v5.61h1.94c0.95,0,1.84-0.5,1.84-1.84V52.97z"/>
		<path class="st0" d="M391,60.12h-3.93l-3.14-24l-3.14,24h-3.93l5.28-34.85h1.94c1.49,0,1.74,0.94,1.89,1.89L391,60.12z"/>
		<path class="st0" d="M173.36,33.67c-0.16-0.14-0.36-0.22-0.58-0.22c0,0,0,0-0.01,0c-0.66-0.14-1.19-0.05-1.58,0.26
			c-0.42,0.34-0.63,0.91-0.63,1.69c0,0.58-0.08,1.29-0.23,2.14c-0.16,0.86-0.37,1.76-0.63,2.69c-0.26,0.92-0.57,1.83-0.92,2.68
			c-0.35,0.86-0.69,1.62-1,2.25c-0.41,0.83-0.93,1.68-1.54,2.54c-0.62,0.87-1.23,1.66-1.8,2.36c-0.57,0.7-1.07,1.28-1.49,1.72
			c-0.02,0.02-0.04,0.05-0.06,0.07c-0.41-1.59-0.75-2.91-1.01-3.96c-0.3-1.2-0.53-2.19-0.69-2.94c-0.16-0.73-0.25-1.31-0.29-1.71
			c-0.03-0.36,0-0.67,0.08-0.93c0.1-0.29,0.24-0.61,0.44-0.96c0.23-0.4,0.48-0.93,0.78-1.63c2.68-6.11,4.73-11.47,6.09-15.95
			c1.36-4.48,2.25-8.28,2.65-11.3c0.4-3.05,0.4-5.45-0.01-7.14c-0.43-1.78-1.09-2.91-2.01-3.46c-0.96-0.56-2.06-0.48-3.28,0.24
			c-1.13,0.67-2.17,1.8-3.1,3.37c-1.27,2.14-2.29,4.53-3.03,7.1c-0.74,2.56-1.29,5.18-1.63,7.81c-0.34,2.61-0.55,5.19-0.62,7.65
			c-0.07,2.45-0.07,4.67,0,6.58c0.07,1.91,0.5,6.6,0.5,6.6c0,0.01,0.12,0.3-0.34,1.53c-0.37,0.99-0.82,2.15-1.34,3.45
			c-0.52,1.3-1.02,2.61-1.48,3.91c-0.49,1.37-0.73,2.47-0.73,3.36c0,1.52,0.29,2.53,0.88,3.1c0.59,0.56,1.31,0.82,2.17,0.78
			c0.78-0.04,1.62-0.26,2.49-0.66c0.64-0.29,1.26-0.59,1.83-0.88c0.08,0.18,0.18,0.46,0.33,0.87c0.32,0.88,0.92,2.38,1.78,4.45
			c0.59,1.39,1.2,2.52,1.84,3.33c0.66,0.86,1.29,1.42,1.9,1.7c0.36,0.17,0.68,0.23,0.96,0.23c0.39,0,0.7-0.13,0.92-0.27
			c0.52-0.33,0.85-0.94,0.98-1.8l0.04-0.25l-0.18-0.18c-0.18-0.18-0.38-0.29-0.59-0.33c-0.2-0.04-0.43,0-0.75,0.11
			c-0.14,0.06-0.2,0.07-0.19,0.07c-0.1,0-0.22,0.02-0.35,0.1c-0.15-0.17-0.41-0.51-0.81-1.24c-0.53-0.95-1.04-2.01-1.53-3.17
			c-0.49-1.16-0.94-2.27-1.34-3.31c-0.32-0.84-0.47-1.3-0.55-1.55c1.15-0.89,2.25-2,3.27-3.3c1.08-1.39,2.06-2.88,2.89-4.42
			c0.83-1.54,1.55-3.1,2.15-4.65c0.59-1.55,1.05-2.95,1.36-4.16c0.32-1.26,0.46-2.26,0.45-3.06
			C173.78,34.35,173.64,33.92,173.36,33.67z M159.87,31.31c0.03-2.03,0.21-4.25,0.51-6.6c0.3-2.35,0.72-4.77,1.25-7.2
			c0.53-2.42,1.16-4.64,1.86-6.59c0.7-1.94,1.47-3.55,2.28-4.78c0.74-1.11,1.49-1.68,2.24-1.68c0.09,0,0.34,0.23,0.47,1.28
			c0.14,1.1,0.11,2.59-0.08,4.42c-0.19,1.85-0.55,4.03-1.07,6.47c-0.51,2.45-1.16,5.02-1.92,7.64c-0.76,2.62-1.65,5.29-2.65,7.94
			c-0.77,2.05-1.6,3.99-2.48,5.79c-0.03-0.33-0.05-0.67-0.06-1.02C160.19,36.49,159.83,33.32,159.87,31.31z M160.49,53.47
			c-3.44,1.95-3.92,1.35-3.94,1.33c-0.14-0.19-0.42-1.18,1.72-5.97c0.24-0.55,0.44-1.05,0.58-1.5c0,0.03,0.01,0.07,0.01,0.1
			C159.08,48.95,159.63,50.98,160.49,53.47z"/>
	</g>
	<path class="st0" d="M279.13,67.71l-0.08-0.01v0.08c-0.01,0.05-0.14,0.34-0.93,1.64c-0.96,1.58-0.96,1.71-0.96,1.77v0.08h1.34
		l0.08,0.01V71.2c0.01-0.06,0.18-0.33,1.43-1.67c1.47-1.58,1.47-1.67,1.47-1.74v-0.08H279.13z"/>
	<path class="st0" d="M97.86,82.53c-0.93,0.24-1.73,0.37-2.36,0.37c-1.5,0-2.69-0.44-3.51-1.32c-0.83-0.87-1.25-1.92-1.25-3.11
		c0-1.17,0.36-2.18,1.08-3.01c0.72-0.82,1.8-1.24,3.23-1.24c0.57,0,1.22,0.1,1.92,0.3l0.05,0.02l0.29-1.6l-0.05-0.01
		c-0.63-0.15-1.25-0.23-1.85-0.23c-2.04,0-3.67,0.61-4.85,1.81c-1.18,1.2-1.78,2.63-1.78,4.24c0,1.57,0.55,2.91,1.62,3.99
		c1.07,1.08,2.7,1.64,4.82,1.64c0.75,0,1.6-0.1,2.52-0.31l0.04-0.01l0.15-1.54L97.86,82.53z"/>
	<path class="st0" d="M118.66,74.14c-1.12-1.02-2.44-1.53-3.92-1.53c-1.54,0-2.92,0.56-4.1,1.66c-1.18,1.1-1.78,2.61-1.78,4.49
		c0,1.74,0.57,3.14,1.69,4.16c1.12,1.02,2.44,1.54,3.92,1.54c1.54,0,2.92-0.56,4.1-1.67c1.18-1.11,1.78-2.62,1.78-4.49
		C120.35,76.56,119.78,75.16,118.66,74.14z M114.73,83c-1.02,0-1.94-0.4-2.74-1.18c-0.79-0.78-1.2-1.89-1.2-3.29
		c0-1.34,0.38-2.44,1.12-3.26c0.75-0.82,1.61-1.23,2.56-1.23c1.02,0,1.94,0.39,2.74,1.17c0.79,0.78,1.2,1.88,1.2,3.29
		c0,1.34-0.38,2.44-1.12,3.26C116.55,82.58,115.68,83,114.73,83z"/>
	<path class="st0" d="M141.61,78.22c0-2.04,0.05-3.83,0.14-5.32l0-0.05h-1.86l0,0.05c0.09,1.5,0.14,3.27,0.14,5.26
		c0,0.97,0.06,2.14,0.17,3.48h-0.01c-0.29-0.8-1.36-2.45-3.2-4.92c-2.32-3.1-2.66-3.73-2.66-3.83v-0.05h-2.1l0,0.05
		c0.1,1.51,0.16,3.3,0.16,5.32c0,2.07-0.05,4.04-0.16,5.87l0,0.05h1.82l0-0.05c-0.08-1.97-0.13-3.88-0.13-5.68
		c0-0.98-0.06-2.14-0.18-3.47h0.02c0.31,0.78,1.48,2.51,3.48,5.15c2.38,3.13,2.9,3.91,2.92,4.01v0.05h1.61l0-0.05
		C141.65,82.27,141.61,80.29,141.61,78.22z"/>
	<path class="st0" d="M160.73,78.79c-0.52-0.44-1.36-0.9-2.51-1.35c-0.95-0.37-1.58-0.68-1.89-0.91c-0.4-0.29-0.6-0.66-0.6-1.1
		c0-0.86,0.8-1.3,2.37-1.3c1.02,0,1.95,0.14,2.75,0.41l0.06,0.02l0.26-1.58l-0.04-0.01c-0.6-0.18-1.62-0.27-3.02-0.27
		c-1.36,0-2.39,0.29-3.09,0.85c-0.7,0.57-1.05,1.31-1.05,2.2c0,0.84,0.32,1.54,0.94,2.1c0.47,0.42,1.26,0.86,2.34,1.31
		c1.02,0.42,1.72,0.77,2.1,1.06c0.47,0.37,0.7,0.81,0.7,1.33c0,0.96-1.04,1.44-3.1,1.44c-0.91,0-1.84-0.17-2.75-0.5l-0.05-0.02
		l-0.38,1.58l0.05,0.01c0.92,0.25,1.98,0.38,3.14,0.38c3.26,0,4.91-1.1,4.91-3.27C161.86,80.22,161.48,79.42,160.73,78.79z"/>
	<path class="st0" d="M181.71,72.84l0,0.05c0.08,2.14,0.13,3.9,0.13,5.22c0,1.93-0.25,3.25-0.73,3.91c-0.48,0.66-1.29,0.99-2.4,0.99
		c-1.1,0-1.89-0.36-2.37-1.06c-0.48-0.71-0.72-1.99-0.72-3.82c0-1.37,0.04-3.13,0.12-5.24l0-0.05h-2.05l0,0.05
		c0.06,2.1,0.08,3.95,0.08,5.5c0,2.29,0.42,3.88,1.25,4.72c0.83,0.84,2.06,1.27,3.65,1.27c3.28,0,4.95-1.95,4.95-5.8
		c0-1.69,0.03-3.61,0.08-5.69l0-0.05H181.71z"/>
	<path class="st0" d="M203.51,82.63c-1.96,0.07-3.87,0.1-5.66,0.1c0.07-1.13,0.11-2.65,0.11-4.52c0-2.35,0.04-4.14,0.1-5.33l0-0.05
		h-2.03l0,0.05c0.08,1.4,0.12,3.19,0.12,5.33c0,2.46-0.04,4.43-0.12,5.87l0,0.05h7.46l0.06-1.51L203.51,82.63z"/>
	<path class="st0" d="M213.21,72.84l-0.06,1.48l0.06,0c1.58-0.08,2.83-0.11,3.72-0.12c0.03,1.12,0.05,2.47,0.05,4.02
		c0,1.98-0.04,3.95-0.12,5.87l0,0.05h1.98l0-0.05c-0.06-1.97-0.08-3.95-0.08-5.87c0-1.84,0.01-3.19,0.03-4.02
		c1.21,0,2.44,0.03,3.64,0.09l0.05,0l0.06-1.46H213.21z"/>
	<path class="st0" d="M242.93,74.14c-1.12-1.02-2.44-1.53-3.92-1.53c-1.54,0-2.92,0.56-4.1,1.66c-1.18,1.1-1.78,2.61-1.78,4.49
		c0,1.74,0.57,3.14,1.69,4.16c1.12,1.02,2.44,1.54,3.92,1.54c1.54,0,2.92-0.56,4.1-1.67c1.18-1.11,1.78-2.62,1.78-4.49
		C244.62,76.56,244.05,75.16,242.93,74.14z M239,83c-1.02,0-1.94-0.4-2.74-1.18c-0.79-0.78-1.2-1.89-1.2-3.29
		c0-1.34,0.38-2.44,1.12-3.26c0.74-0.82,1.61-1.23,2.56-1.23c1.02,0,1.94,0.39,2.74,1.17s1.2,1.88,1.2,3.29
		c0,1.34-0.38,2.44-1.12,3.26C240.81,82.58,239.95,83,239,83z"/>
	<path class="st0" d="M265.83,84.07c-0.87-2.17-1.52-3.6-1.92-4.25c-0.4-0.65-0.94-1.08-1.6-1.27l0.25-0.08
		c1.53-0.6,2.12-1.57,2.06-3c-0.07-1.79-1.39-2.67-4.14-2.67c-0.53,0-1.01,0.01-1.45,0.03c-0.42,0.02-0.8,0.03-1.11,0.03h-1.42
		l0,0.05c0.09,1.52,0.14,3.31,0.14,5.32c0,2.13-0.05,4.1-0.14,5.87l0,0.05h2.01l0-0.05c-0.08-1.34-0.11-2.91-0.12-4.66
		c0.38-0.01,0.81-0.02,1.27-0.02c0.81,0,1.41,0.09,1.78,0.26c0.36,0.17,0.7,0.55,0.99,1.14c0.3,0.6,0.74,1.7,1.31,3.3l0.01,0.03h2.1
		L265.83,84.07z M262.77,76.06c0,1.36-1.15,2.05-3.42,2.05c-0.31,0-0.64-0.01-0.98-0.02c0-1.59-0.02-2.89-0.06-3.85
		c0.46-0.06,1.02-0.1,1.67-0.1C261.85,74.13,262.77,74.76,262.77,76.06z"/>
	<path class="st0" d="M279.05,78.22c0-2,0.04-3.79,0.13-5.33l0-0.05h-2.05l0,0.05c0.09,1.51,0.14,3.3,0.14,5.32
		c0,2.06-0.05,4.03-0.14,5.87l0,0.05h2.05l0-0.05C279.09,82.27,279.05,80.3,279.05,78.22z"/>
	<path class="st0" d="M299.75,78.48c-1.46-3.39-2.2-5.27-2.2-5.6v-0.05h-2.53v0.05c0,0.33-0.78,2.24-2.33,5.67
		c-2.34,5.19-2.34,5.44-2.34,5.53v0.05h2.16v-0.05c0-0.4,0.36-1.57,1.07-3.47h5.02c0.72,1.93,1.09,3.1,1.09,3.47v0.05h2.27v-0.05
		C301.96,83.76,301.24,81.93,299.75,78.48z M296.13,74.13c0.07,0.37,0.73,2.05,2,5.13h-4.11c1.79-4.21,2.04-4.96,2.08-5.13H296.13z"
		/>
</g>
</svg>
