<?xml version="1.0" encoding="utf-8"?>
<!-- Generator: Adobe Illustrator 27.7.0, SVG Export Plug-In . SVG Version: 6.00 Build 0)  -->
<svg version="1.1" id="Capa_1" xmlns="http://www.w3.org/2000/svg" xmlns:xlink="http://www.w3.org/1999/xlink" x="0px" y="0px"
	 viewBox="0 0 1565.2 1287.6" style="enable-background:new 0 0 1565.2 1287.6;" xml:space="preserve">
<style type="text/css">
	.st0{fill:#37ECE6;}
	.st1{fill:#15213E;}
	.st2{fill:#F1F1F1;}
	.st3{fill:#342D84;}
	.st4{fill:#FFFFFF;}
</style>
<g>
	<g>
		<path class="st0" d="M1512.1,1082.5h-143.8c-25.9,0-46.9-21-46.9-46.9V160.1c0-0.6,0.4-1,1-1s1,0.4,1,1v875.5
			c0,24.7,20.1,44.9,44.9,44.9h143.8c24.7,0,44.9-20.1,44.9-44.9V115.5c0-24.7-20.1-44.9-44.9-44.9h-123.8c-0.6,0-1-0.4-1-1
			s0.4-1,1-1h123.8c25.8,0,46.9,21,46.9,46.9v920.1C1559,1061.4,1538,1082.5,1512.1,1082.5z"/>
	</g>
	<g>
		<path class="st0" d="M1513.2,1277.5h-143.8c-25.9,0-46.9-21-46.9-46.9v-72.6c0-25.8,21-46.9,46.9-46.9h143.8
			c25.8,0,46.9,21,46.9,46.9v72.6C1560.1,1256.5,1539.1,1277.5,1513.2,1277.5z M1369.4,1113.2c-24.7,0-44.9,20.1-44.9,44.9v72.6
			c0,24.7,20.1,44.9,44.9,44.9h143.8c24.7,0,44.9-20.1,44.9-44.9v-72.6c0-24.7-20.1-44.9-44.9-44.9H1369.4z"/>
	</g>
	<g>
		<path class="st0" d="M1149.1,1277.5h-143.8c-25.9,0-46.9-21-46.9-46.9v-72.6c0-25.8,21-46.9,46.9-46.9h143.8
			c25.9,0,46.9,21,46.9,46.9v72.6C1196,1256.5,1175,1277.5,1149.1,1277.5z M1005.4,1113.2c-24.7,0-44.9,20.1-44.9,44.9v72.6
			c0,24.7,20.1,44.9,44.9,44.9h143.8c24.7,0,44.9-20.1,44.9-44.9v-72.6c0-24.7-20.1-44.9-44.9-44.9H1005.4z"/>
	</g>
	<g>
		<path class="st0" d="M768.9,1277.5H625.1c-25.9,0-46.9-21-46.9-46.9v-72.6c0-25.8,21-46.9,46.9-46.9h143.8
			c25.9,0,46.9,21,46.9,46.9v72.6C815.8,1256.5,794.7,1277.5,768.9,1277.5z M625.1,1113.2c-24.7,0-44.9,20.1-44.9,44.9v72.6
			c0,24.7,20.1,44.9,44.9,44.9h143.8c24.7,0,44.9-20.1,44.9-44.9v-72.6c0-24.7-20.1-44.9-44.9-44.9H625.1z"/>
	</g>
	<g>
		<path class="st0" d="M1147.8,1082.5h-143.8c-25.9,0-46.9-21-46.9-46.9V115.5c0-25.9,21-46.9,46.9-46.9h143.8
			c25.9,0,46.9,21,46.9,46.9v920.1C1194.7,1061.4,1173.7,1082.5,1147.8,1082.5z M1004.1,70.6c-24.7,0-44.9,20.1-44.9,44.9v920.1
			c0,24.7,20.1,44.9,44.9,44.9h143.8c24.7,0,44.9-20.1,44.9-44.9V115.5c0-24.7-20.1-44.9-44.9-44.9H1004.1z"/>
	</g>
	<g>
		<path class="st0" d="M768.9,1082.5H625.1c-25.9,0-46.9-21-46.9-46.9V115.5c0-25.9,21-46.9,46.9-46.9h143.8
			c25.9,0,46.9,21,46.9,46.9v920.1C815.8,1061.4,794.7,1082.5,768.9,1082.5z M625.1,70.6c-24.7,0-44.9,20.1-44.9,44.9v920.1
			c0,24.7,20.1,44.9,44.9,44.9h143.8c24.7,0,44.9-20.1,44.9-44.9V115.5c0-24.7-20.1-44.9-44.9-44.9H625.1z"/>
	</g>
	<g>
		<g>
			<circle class="st1" cx="697" cy="1029.7" r="21.1"/>
		</g>
		<g>
			<g>
				<path class="st2" d="M692.1,1036.6c-0.4,0-0.7-0.1-1-0.4c-0.6-0.6-0.7-1.5-0.1-2.1l9.7-10.8c0.6-0.6,1.5-0.7,2.1-0.1
					c0.6,0.6,0.7,1.5,0.1,2.1l-9.7,10.8C693,1036.5,692.6,1036.6,692.1,1036.6z"/>
			</g>
			<g>
				<path class="st2" d="M702.4,1036.1c-0.4,0-0.7-0.1-1-0.4l-10.8-9.7c-0.6-0.6-0.7-1.5-0.1-2.1c0.6-0.6,1.5-0.7,2.1-0.1l10.8,9.7
					c0.6,0.6,0.7,1.5,0.1,2.1C703.2,1035.9,702.8,1036.1,702.4,1036.1z"/>
			</g>
		</g>
	</g>
	<g>
		<g>
			<circle class="st1" cx="697" cy="927.1" r="21.1"/>
		</g>
		<g>
			<g>
				<path class="st2" d="M692.1,934c-0.4,0-0.7-0.1-1-0.4c-0.6-0.6-0.7-1.5-0.1-2.1l9.7-10.8c0.6-0.6,1.5-0.7,2.1-0.1
					c0.6,0.6,0.7,1.5,0.1,2.1l-9.7,10.8C693,933.8,692.6,934,692.1,934z"/>
			</g>
			<g>
				<path class="st2" d="M702.4,933.4c-0.4,0-0.7-0.1-1-0.4l-10.8-9.7c-0.6-0.6-0.7-1.5-0.1-2.1c0.6-0.6,1.5-0.7,2.1-0.1l10.8,9.7
					c0.6,0.6,0.7,1.5,0.1,2.1C703.2,933.2,702.8,933.4,702.4,933.4z"/>
			</g>
		</g>
	</g>
	<g>
		<g>
			<circle class="st0" cx="697" cy="204.7" r="21.1"/>
		</g>
		<g>
			<path class="st3" d="M693.4,212.7l-4.3-5.3c-0.5-0.6-0.4-1.6,0.2-2.1c0.6-0.5,1.6-0.4,2.1,0.2l2.1,2.6l8.5-9.5
				c0.6-0.6,1.5-0.7,2.1-0.1c0.6,0.6,0.7,1.5,0.1,2.1L693.4,212.7z"/>
		</g>
	</g>
	<g>
		<g>
			<circle class="st0" cx="697" cy="307.8" r="21.1"/>
		</g>
		<g>
			<path class="st3" d="M693.4,315.8l-4.3-5.3c-0.5-0.6-0.4-1.6,0.2-2.1c0.6-0.5,1.6-0.4,2.1,0.2l2.1,2.6l8.5-9.5
				c0.6-0.6,1.5-0.7,2.1-0.1c0.6,0.6,0.7,1.5,0.1,2.1L693.4,315.8z"/>
		</g>
	</g>
	<g>
		<g>
			<circle class="st0" cx="697" cy="411.1" r="21.1"/>
		</g>
		<g>
			<path class="st3" d="M693.4,419l-4.3-5.3c-0.5-0.6-0.4-1.6,0.2-2.1c0.6-0.5,1.6-0.4,2.1,0.2l2.1,2.6l8.5-9.5
				c0.6-0.6,1.5-0.7,2.1-0.1c0.6,0.6,0.7,1.5,0.1,2.1L693.4,419z"/>
		</g>
	</g>
	<g>
		<g>
			<circle class="st0" cx="697" cy="514.2" r="21.1"/>
		</g>
		<g>
			<path class="st3" d="M693.4,522.2l-4.3-5.3c-0.5-0.6-0.4-1.6,0.2-2.1c0.6-0.5,1.6-0.4,2.1,0.2l2.1,2.6l8.5-9.5
				c0.6-0.6,1.5-0.7,2.1-0.1c0.6,0.6,0.7,1.5,0.1,2.1L693.4,522.2z"/>
		</g>
	</g>
	<g>
		<g>
			<circle class="st0" cx="697" cy="720.5" r="21.1"/>
		</g>
		<g>
			<path class="st3" d="M693.4,728.5l-4.3-5.3c-0.5-0.6-0.4-1.6,0.2-2.1c0.6-0.5,1.6-0.4,2.1,0.2l2.1,2.6l8.5-9.5
				c0.6-0.6,1.5-0.7,2.1-0.1c0.6,0.6,0.7,1.5,0.1,2.1L693.4,728.5z"/>
		</g>
	</g>
	<g>
		<g>
			<circle class="st0" cx="697" cy="823.6" r="21.1"/>
		</g>
		<g>
			<path class="st3" d="M693.4,831.6l-4.3-5.3c-0.5-0.6-0.4-1.6,0.2-2.1c0.6-0.5,1.6-0.4,2.1,0.2l2.1,2.6l8.5-9.5
				c0.6-0.6,1.5-0.7,2.1-0.1c0.6,0.6,0.7,1.5,0.1,2.1L693.4,831.6z"/>
		</g>
	</g>
	<g>
		<g>
			<circle class="st1" cx="1077.5" cy="1029.7" r="21.1"/>
		</g>
		<g>
			<g>
				<path class="st2" d="M1072.7,1036.6c-0.4,0-0.7-0.1-1-0.4c-0.6-0.6-0.7-1.5-0.1-2.1l9.7-10.8c0.6-0.6,1.5-0.7,2.1-0.1
					c0.6,0.6,0.7,1.5,0.1,2.1l-9.7,10.8C1073.5,1036.5,1073.1,1036.6,1072.7,1036.6z"/>
			</g>
			<g>
				<path class="st2" d="M1082.9,1036.1c-0.4,0-0.7-0.1-1-0.4l-10.8-9.7c-0.6-0.6-0.7-1.5-0.1-2.1c0.6-0.6,1.5-0.7,2.1-0.1l10.8,9.7
					c0.6,0.6,0.7,1.5,0.1,2.1C1083.7,1035.9,1083.3,1036.1,1082.9,1036.1z"/>
			</g>
		</g>
	</g>
	<g>
		<g>
			<circle class="st0" cx="1077.5" cy="720.5" r="21.1"/>
		</g>
		<g>
			<path class="st3" d="M1074,728.5l-4.3-5.3c-0.5-0.6-0.4-1.6,0.2-2.1c0.6-0.5,1.6-0.4,2.1,0.2l2.1,2.6l8.5-9.5
				c0.6-0.6,1.5-0.7,2.1-0.1c0.6,0.6,0.7,1.5,0.1,2.1L1074,728.5z"/>
		</g>
	</g>
	<g>
		<g>
			<circle class="st0" cx="1077.5" cy="823.6" r="21.1"/>
		</g>
		<g>
			<path class="st3" d="M1074,831.6l-4.3-5.3c-0.5-0.6-0.4-1.6,0.2-2.1c0.6-0.5,1.6-0.4,2.1,0.2l2.1,2.6l8.5-9.5
				c0.6-0.6,1.5-0.7,2.1-0.1c0.6,0.6,0.7,1.5,0.1,2.1L1074,831.6z"/>
		</g>
	</g>
	<g>
		<g>
			<circle class="st0" cx="1077.5" cy="926.8" r="21.1"/>
		</g>
		<g>
			<path class="st3" d="M1074,934.8l-4.3-5.3c-0.5-0.6-0.4-1.6,0.2-2.1c0.6-0.5,1.6-0.4,2.1,0.2l2.1,2.6l8.5-9.5
				c0.6-0.6,1.5-0.7,2.1-0.1c0.6,0.6,0.7,1.5,0.1,2.1L1074,934.8z"/>
		</g>
	</g>
	<g>
		<g>
			<circle class="st0" cx="1445.1" cy="720.5" r="21.1"/>
		</g>
		<g>
			<path class="st3" d="M1441.5,728.5l-4.3-5.3c-0.5-0.6-0.4-1.6,0.2-2.1c0.6-0.5,1.6-0.4,2.1,0.2l2.1,2.6l8.5-9.5
				c0.6-0.6,1.5-0.7,2.1-0.1c0.6,0.6,0.7,1.5,0.1,2.1L1441.5,728.5z"/>
		</g>
	</g>
	<g>
		<g>
			<circle class="st0" cx="1445.1" cy="823.6" r="21.1"/>
		</g>
		<g>
			<path class="st3" d="M1441.5,831.6l-4.3-5.3c-0.5-0.6-0.4-1.6,0.2-2.1c0.6-0.5,1.6-0.4,2.1,0.2l2.1,2.6l8.5-9.5
				c0.6-0.6,1.5-0.7,2.1-0.1c0.6,0.6,0.7,1.5,0.1,2.1L1441.5,831.6z"/>
		</g>
	</g>
	<g>
		<g>
			<circle class="st0" cx="1445.1" cy="926.8" r="21.1"/>
		</g>
		<g>
			<path class="st3" d="M1441.5,934.8l-4.3-5.3c-0.5-0.6-0.4-1.6,0.2-2.1c0.6-0.5,1.6-0.4,2.1,0.2l2.1,2.6l8.5-9.5
				c0.6-0.6,1.5-0.7,2.1-0.1c0.6,0.6,0.7,1.5,0.1,2.1L1441.5,934.8z"/>
		</g>
	</g>
	<g>
		<g>
			<circle class="st0" cx="1445.1" cy="1030" r="21.1"/>
		</g>
		<g>
			<path class="st3" d="M1441.5,1038l-4.3-5.3c-0.5-0.6-0.4-1.6,0.2-2.1c0.6-0.5,1.6-0.4,2.1,0.2l2.1,2.6l8.5-9.5
				c0.6-0.6,1.5-0.7,2.1-0.1c0.6,0.6,0.7,1.5,0.1,2.1L1441.5,1038z"/>
		</g>
	</g>
	<g>
		<g>
			<circle class="st0" cx="1077.5" cy="204.7" r="21.1"/>
		</g>
		<g>
			<path class="st3" d="M1074,212.7l-4.3-5.3c-0.5-0.6-0.4-1.6,0.2-2.1c0.6-0.5,1.6-0.4,2.1,0.2l2.1,2.6l8.5-9.5
				c0.6-0.6,1.5-0.7,2.1-0.1c0.6,0.6,0.7,1.5,0.1,2.1L1074,212.7z"/>
		</g>
	</g>
	<g>
		<g>
			<circle class="st0" cx="1077.5" cy="307.8" r="21.1"/>
		</g>
		<g>
			<path class="st3" d="M1074,315.8l-4.3-5.3c-0.5-0.6-0.4-1.6,0.2-2.1c0.6-0.5,1.6-0.4,2.1,0.2l2.1,2.6l8.5-9.5
				c0.6-0.6,1.5-0.7,2.1-0.1c0.6,0.6,0.7,1.5,0.1,2.1L1074,315.8z"/>
		</g>
	</g>
	<g>
		<g>
			<circle class="st0" cx="1077.5" cy="411.1" r="21.1"/>
		</g>
		<g>
			<path class="st3" d="M1074,419l-4.3-5.3c-0.5-0.6-0.4-1.6,0.2-2.1c0.6-0.5,1.6-0.4,2.1,0.2l2.1,2.6l8.5-9.5
				c0.6-0.6,1.5-0.7,2.1-0.1c0.6,0.6,0.7,1.5,0.1,2.1L1074,419z"/>
		</g>
	</g>
	<g>
		<g>
			<circle class="st0" cx="1077.5" cy="514.2" r="21.1"/>
		</g>
		<g>
			<path class="st3" d="M1074,522.2l-4.3-5.3c-0.5-0.6-0.4-1.6,0.2-2.1c0.6-0.5,1.6-0.4,2.1,0.2l2.1,2.6l8.5-9.5
				c0.6-0.6,1.5-0.7,2.1-0.1c0.6,0.6,0.7,1.5,0.1,2.1L1074,522.2z"/>
		</g>
	</g>
	<g>
		<g>
			<circle class="st0" cx="1445.1" cy="204.7" r="21.1"/>
		</g>
		<g>
			<path class="st3" d="M1441.5,212.7l-4.3-5.3c-0.5-0.6-0.4-1.6,0.2-2.1s1.6-0.4,2.1,0.2l2.1,2.6l8.5-9.5c0.6-0.6,1.5-0.7,2.1-0.1
				c0.6,0.6,0.7,1.5,0.1,2.1L1441.5,212.7z"/>
		</g>
	</g>
	<g>
		<g>
			<circle class="st0" cx="1445.1" cy="307.8" r="21.1"/>
		</g>
		<g>
			<path class="st3" d="M1441.5,315.8l-4.3-5.3c-0.5-0.6-0.4-1.6,0.2-2.1s1.6-0.4,2.1,0.2l2.1,2.6l8.5-9.5c0.6-0.6,1.5-0.7,2.1-0.1
				c0.6,0.6,0.7,1.5,0.1,2.1L1441.5,315.8z"/>
		</g>
	</g>
	<g>
		<g>
			<circle class="st0" cx="1445.1" cy="411.1" r="21.1"/>
		</g>
		<g>
			<path class="st3" d="M1441.5,419l-4.3-5.3c-0.5-0.6-0.4-1.6,0.2-2.1c0.6-0.5,1.6-0.4,2.1,0.2l2.1,2.6l8.5-9.5
				c0.6-0.6,1.5-0.7,2.1-0.1c0.6,0.6,0.7,1.5,0.1,2.1L1441.5,419z"/>
		</g>
	</g>
	<g>
		<g>
			<circle class="st0" cx="1445.1" cy="514.2" r="21.1"/>
		</g>
		<g>
			<path class="st3" d="M1441.5,522.2l-4.3-5.3c-0.5-0.6-0.4-1.6,0.2-2.1c0.6-0.5,1.6-0.4,2.1,0.2l2.1,2.6l8.5-9.5
				c0.6-0.6,1.5-0.7,2.1-0.1c0.6,0.6,0.7,1.5,0.1,2.1L1441.5,522.2z"/>
		</g>
	</g>
	<g>
		<path class="st4" d="M743.7,1158.5h-96.9c-0.6,0-1-0.4-1-1s0.4-1,1-1h96.9c0.6,0,1,0.4,1,1S744.3,1158.5,743.7,1158.5z"/>
	</g>
	<g>
		<path class="st4" d="M1126,1158.5h-96.9c-0.6,0-1-0.4-1-1s0.4-1,1-1h96.9c0.6,0,1,0.4,1,1S1126.5,1158.5,1126,1158.5z"/>
	</g>
	<g>
		<path class="st4" d="M1493.5,1158.5h-96.9c-0.6,0-1-0.4-1-1s0.4-1,1-1h96.9c0.6,0,1,0.4,1,1S1494.1,1158.5,1493.5,1158.5z"/>
	</g>
	<g>
		<path class="st4" d="M7.9,31.1c0-8.4,6.4-14.4,15-14.4c4.6,0,8.5,1.6,11.1,4.7l-3.4,3.2c-2-2.2-4.6-3.3-7.5-3.3
			c-5.8,0-10,4.1-10,9.8c0,5.8,4.2,9.8,10,9.8c2.9,0,5.4-1.1,7.5-3.3l3.4,3.2c-2.6,3-6.5,4.7-11.1,4.7C14.3,45.5,7.9,39.4,7.9,31.1z
			"/>
		<path class="st4" d="M56.2,32.6v12.5h-4.7v-2.6c-1.2,1.8-3.5,2.9-6.7,2.9c-4.9,0-8-2.7-8-6.4c0-3.6,2.4-6.4,8.9-6.4h5.5v-0.3
			c0-2.9-1.8-4.6-5.3-4.6c-2.4,0-4.9,0.8-6.5,2.1l-2-3.6c2.3-1.8,5.6-2.6,9-2.6C52.6,23.5,56.2,26.4,56.2,32.6z M51.2,38.4v-2.5H46
			c-3.4,0-4.3,1.3-4.3,2.8c0,1.8,1.5,3,4.1,3C48.2,41.7,50.3,40.6,51.2,38.4z"/>
		<path class="st4" d="M74.9,23.5v4.8c-0.4-0.1-0.8-0.1-1.2-0.1c-3.8,0-6.2,2.2-6.2,6.6v10.4h-5V23.7h4.8v3.1
			C68.8,24.6,71.4,23.5,74.9,23.5z"/>
		<path class="st4" d="M96.9,32.6v12.5h-4.7v-2.6c-1.2,1.8-3.5,2.9-6.7,2.9c-4.9,0-8-2.7-8-6.4c0-3.6,2.4-6.4,8.9-6.4h5.5v-0.3
			c0-2.9-1.8-4.6-5.3-4.6c-2.4,0-4.9,0.8-6.5,2.1l-2-3.6c2.3-1.8,5.6-2.6,9-2.6C93.4,23.5,96.9,26.4,96.9,32.6z M91.9,38.4v-2.5
			h-5.2c-3.4,0-4.3,1.3-4.3,2.8c0,1.8,1.5,3,4.1,3C89,41.7,91.1,40.6,91.9,38.4z"/>
		<path class="st4" d="M101.8,34.4c0-6.4,4.8-10.9,11.6-10.9c4.2,0,7.5,1.7,9.1,5l-3.8,2.2c-1.3-2-3.2-3-5.3-3
			c-3.7,0-6.5,2.6-6.5,6.7c0,4.2,2.8,6.7,6.5,6.7c2.1,0,4-0.9,5.3-3l3.8,2.2c-1.6,3.2-5,5-9.1,5C106.6,45.4,101.8,40.8,101.8,34.4z"
			/>
		<path class="st4" d="M139.9,43.9c-1.2,1-3,1.4-4.8,1.4c-4.7,0-7.4-2.5-7.4-7.2V27.9h-3.5v-4h3.5V19h5v4.9h5.7v4h-5.7V38
			c0,2.1,1,3.2,3,3.2c1,0,2-0.3,2.8-0.9L139.9,43.9z"/>
		<path class="st4" d="M163.3,36h-16.8c0.6,3.1,3.2,5.1,6.9,5.1c2.4,0,4.3-0.8,5.8-2.3l2.7,3.1c-1.9,2.3-4.9,3.5-8.6,3.5
			c-7.2,0-11.8-4.6-11.8-11c0-6.4,4.7-10.9,11-10.9c6.2,0,10.8,4.4,10.8,11C163.4,34.9,163.3,35.5,163.3,36z M146.5,32.7h12.1
			c-0.4-3.1-2.8-5.2-6-5.2C149.3,27.5,147,29.6,146.5,32.7z"/>
		<path class="st4" d="M180.5,23.5v4.8c-0.4-0.1-0.8-0.1-1.2-0.1c-3.8,0-6.2,2.2-6.2,6.6v10.4h-5V23.7h4.8v3.1
			C174.4,24.6,177,23.5,180.5,23.5z"/>
		<path class="st4" d="M189.3,15.3h5.9l-7,5.5h-4.3L189.3,15.3z M184.8,23.7h5v21.4h-5V23.7z"/>
		<path class="st4" d="M193.9,43l1.9-3.8c1.9,1.2,4.8,2.1,7.4,2.1c3.2,0,4.5-0.9,4.5-2.4c0-4.1-13.2-0.2-13.2-8.8
			c0-4,3.6-6.7,9.4-6.7c2.8,0,6.1,0.7,8,1.8l-1.9,3.8c-2-1.2-4.1-1.6-6.1-1.6c-3,0-4.5,1-4.5,2.4c0,4.3,13.2,0.5,13.2,8.8
			c0,4-3.7,6.6-9.7,6.6C199.4,45.4,195.8,44.3,193.9,43z"/>
		<path class="st4" d="M229.8,43.9c-1.2,1-3,1.4-4.8,1.4c-4.7,0-7.4-2.5-7.4-7.2V27.9h-3.5v-4h3.5V19h5v4.9h5.7v4h-5.7V38
			c0,2.1,1,3.2,3,3.2c1,0,2-0.3,2.8-0.9L229.8,43.9z"/>
		<path class="st4" d="M233.2,17.2c0-1.7,1.4-3,3.2-3c1.8,0,3.2,1.2,3.2,2.9c0,1.8-1.3,3.1-3.2,3.1
			C234.6,20.2,233.2,18.9,233.2,17.2z M233.9,23.7h5v21.4h-5V23.7z"/>
		<path class="st4" d="M243.7,34.4c0-6.4,4.8-10.9,11.6-10.9c4.2,0,7.5,1.7,9.1,5l-3.8,2.2c-1.3-2-3.2-3-5.3-3
			c-3.7,0-6.5,2.6-6.5,6.7c0,4.2,2.8,6.7,6.5,6.7c2.1,0,4-0.9,5.3-3l3.8,2.2c-1.6,3.2-5,5-9.1,5C248.5,45.4,243.7,40.8,243.7,34.4z"
			/>
		<path class="st4" d="M286.6,32.6v12.5h-4.7v-2.6c-1.2,1.8-3.5,2.9-6.7,2.9c-4.9,0-8-2.7-8-6.4c0-3.6,2.4-6.4,8.9-6.4h5.5v-0.3
			c0-2.9-1.8-4.6-5.3-4.6c-2.4,0-4.9,0.8-6.5,2.1l-2-3.6c2.3-1.8,5.6-2.6,9-2.6C283,23.5,286.6,26.4,286.6,32.6z M281.6,38.4v-2.5
			h-5.2c-3.4,0-4.3,1.3-4.3,2.8c0,1.8,1.5,3,4.1,3C278.6,41.7,280.7,40.6,281.6,38.4z"/>
		<path class="st4" d="M290.5,43l1.9-3.8c1.9,1.2,4.8,2.1,7.4,2.1c3.2,0,4.5-0.9,4.5-2.4c0-4.1-13.2-0.2-13.2-8.8
			c0-4,3.6-6.7,9.4-6.7c2.8,0,6.1,0.7,8,1.8l-1.9,3.8c-2-1.2-4.1-1.6-6.1-1.6c-3,0-4.5,1-4.5,2.4c0,4.3,13.2,0.5,13.2,8.8
			c0,4-3.7,6.6-9.7,6.6C296,45.4,292.5,44.3,290.5,43z"/>
	</g>
	<g>
		<path class="st4" d="M9.3,94.5h8.8c6.7,0,11.3,4.3,11.3,10.5c0,6.2-4.6,10.5-11.3,10.5H9.3V94.5z M18,112.9c5.2,0,8.5-3.2,8.5-7.9
			c0-4.7-3.3-7.9-8.5-7.9h-5.7v15.8H18z"/>
		<path class="st4" d="M48.5,99.6v15.9h-2.7v-2.4c-1.2,1.7-3.1,2.6-5.4,2.6c-4.1,0-6.8-2.2-6.8-6.9v-9.1h2.9v8.8
			c0,3.1,1.6,4.7,4.3,4.7c3,0,4.9-1.9,4.9-5.3v-8.2H48.5z"/>
		<path class="st4" d="M62.5,99.5v2.8c-0.2,0-0.5,0-0.7,0c-3.1,0-5,1.9-5,5.4v7.9H54V99.6h2.8v2.7C57.7,100.4,59.7,99.5,62.5,99.5z"
			/>
		<path class="st4" d="M78.6,105.9v9.6h-2.7v-2.1c-1,1.4-2.7,2.3-5.2,2.3c-3.6,0-5.9-1.9-5.9-4.7c0-2.5,1.6-4.6,6.4-4.6h4.6v-0.6
			c0-2.4-1.4-3.8-4.3-3.8c-1.9,0-3.8,0.7-5,1.7l-1.2-2.2c1.7-1.3,4-2,6.6-2C76.2,99.5,78.6,101.6,78.6,105.9z M75.7,110.6v-2.2h-4.4
			c-2.9,0-3.7,1.1-3.7,2.5c0,1.6,1.3,2.6,3.5,2.6C73.3,113.5,75,112.5,75.7,110.6z"/>
		<path class="st4" d="M82.6,107.6c0-4.7,3.5-8.1,8.4-8.1c2.8,0,5.2,1.2,6.5,3.4l-2.2,1.4c-1-1.6-2.6-2.3-4.3-2.3
			c-3.1,0-5.5,2.2-5.5,5.6c0,3.4,2.3,5.6,5.5,5.6c1.7,0,3.3-0.7,4.3-2.3l2.2,1.4c-1.3,2.2-3.6,3.4-6.5,3.4
			C86.1,115.7,82.6,112.3,82.6,107.6z"/>
		<path class="st4" d="M100.7,94.7c0-1,0.8-1.9,2-1.9s1.9,0.8,1.9,1.8c0,1.1-0.8,1.9-1.9,1.9C101.5,96.5,100.7,95.7,100.7,94.7z
			 M101.2,99.6h2.9v15.9h-2.9V99.6z"/>
		<path class="st4" d="M108.1,107.6c0-4.7,3.5-8.1,8.3-8.1c4.8,0,8.2,3.4,8.2,8.1c0,4.7-3.5,8.1-8.2,8.1
			C111.6,115.7,108.1,112.3,108.1,107.6z M121.7,107.6c0-3.4-2.3-5.6-5.3-5.6c-3.1,0-5.4,2.2-5.4,5.6c0,3.4,2.3,5.6,5.4,5.6
			C119.4,113.2,121.7,110.9,121.7,107.6z M118.2,93.4h3.7l-5,3.9h-2.7L118.2,93.4z"/>
		<path class="st4" d="M143.7,106.4v9.1h-2.9v-8.8c0-3.1-1.6-4.7-4.3-4.7c-3.1,0-5,1.8-5,5.3v8.2h-2.9V99.6h2.8v2.4
			c1.2-1.6,3.2-2.6,5.7-2.6C141,99.5,143.7,101.7,143.7,106.4z"/>
		<path class="st4" d="M172.1,93.2v22.3h-2.8V113c-1.3,1.8-3.3,2.7-5.7,2.7c-4.6,0-8-3.3-8-8.1c0-4.9,3.4-8.1,8-8.1
			c2.2,0,4.2,0.8,5.5,2.6v-8.8H172.1z M169.3,107.6c0-3.4-2.3-5.6-5.3-5.6c-3.1,0-5.4,2.2-5.4,5.6c0,3.4,2.3,5.6,5.4,5.6
			C166.9,113.2,169.3,110.9,169.3,107.6z"/>
		<path class="st4" d="M191.9,108.5H179c0.4,2.8,2.6,4.6,5.8,4.6c1.9,0,3.4-0.6,4.6-1.9l1.6,1.9c-1.4,1.7-3.6,2.6-6.3,2.6
			c-5.1,0-8.5-3.4-8.5-8.1c0-4.7,3.4-8.1,8-8.1s7.9,3.3,7.9,8.2C191.9,107.9,191.9,108.2,191.9,108.5z M179,106.4h10.2
			c-0.3-2.7-2.3-4.6-5.1-4.6C181.3,101.9,179.3,103.7,179,106.4z"/>
		<path class="st4" d="M204,93.2h2.9v22.3H204V93.2z"/>
		<path class="st4" d="M225,105.9v9.6h-2.7v-2.1c-1,1.4-2.7,2.3-5.2,2.3c-3.6,0-5.9-1.9-5.9-4.7c0-2.5,1.6-4.6,6.4-4.6h4.6v-0.6
			c0-2.4-1.4-3.8-4.3-3.8c-1.9,0-3.8,0.7-5,1.7l-1.2-2.2c1.6-1.3,4-2,6.6-2C222.5,99.5,225,101.6,225,105.9z M222.1,110.6v-2.2h-4.4
			c-2.9,0-3.7,1.1-3.7,2.5c0,1.6,1.3,2.6,3.5,2.6C219.7,113.5,221.4,112.5,222.1,110.6z"/>
		<path class="st4" d="M238.4,93.2h2.9v22.3h-2.9V93.2z"/>
		<path class="st4" d="M246.2,94.7c0-1,0.8-1.9,2-1.9s1.9,0.8,1.9,1.8c0,1.1-0.8,1.9-1.9,1.9C247.1,96.5,246.2,95.7,246.2,94.7z
			 M246.7,99.6h2.9v15.9h-2.9V99.6z"/>
		<path class="st4" d="M253.6,107.6c0-4.7,3.5-8.1,8.4-8.1c2.8,0,5.2,1.2,6.5,3.4l-2.2,1.4c-1-1.6-2.6-2.3-4.3-2.3
			c-3.1,0-5.5,2.2-5.5,5.6c0,3.4,2.3,5.6,5.5,5.6c1.7,0,3.3-0.7,4.3-2.3l2.2,1.4c-1.3,2.2-3.6,3.4-6.5,3.4
			C257.2,115.7,253.6,112.3,253.6,107.6z"/>
		<path class="st4" d="M286.3,108.5h-12.9c0.4,2.8,2.6,4.6,5.8,4.6c1.9,0,3.4-0.6,4.6-1.9l1.6,1.9c-1.4,1.7-3.6,2.6-6.3,2.6
			c-5.1,0-8.5-3.4-8.5-8.1c0-4.7,3.4-8.1,8-8.1s7.9,3.3,7.9,8.2C286.4,107.9,286.3,108.2,286.3,108.5z M273.4,106.4h10.2
			c-0.3-2.7-2.3-4.6-5.1-4.6C275.8,101.9,273.7,103.7,273.4,106.4z"/>
		<path class="st4" d="M305.5,106.4v9.1h-2.9v-8.8c0-3.1-1.6-4.7-4.3-4.7c-3.1,0-5,1.8-5,5.3v8.2h-2.9V99.6h2.8v2.4
			c1.2-1.6,3.2-2.6,5.7-2.6C302.7,99.5,305.5,101.7,305.5,106.4z"/>
		<path class="st4" d="M309.4,107.6c0-4.7,3.5-8.1,8.4-8.1c2.8,0,5.2,1.2,6.5,3.4l-2.2,1.4c-1-1.6-2.6-2.3-4.3-2.3
			c-3.1,0-5.5,2.2-5.5,5.6c0,3.4,2.3,5.6,5.5,5.6c1.7,0,3.3-0.7,4.3-2.3l2.2,1.4c-1.3,2.2-3.6,3.4-6.5,3.4
			C312.9,115.7,309.4,112.3,309.4,107.6z"/>
		<path class="st4" d="M327.5,94.7c0-1,0.8-1.9,2-1.9s1.9,0.8,1.9,1.8c0,1.1-0.8,1.9-1.9,1.9C328.3,96.5,327.5,95.7,327.5,94.7z
			 M328,99.6h2.9v15.9H328V99.6z"/>
		<path class="st4" d="M349,105.9v9.6h-2.7v-2.1c-1,1.4-2.7,2.3-5.2,2.3c-3.6,0-5.9-1.9-5.9-4.7c0-2.5,1.6-4.6,6.4-4.6h4.6v-0.6
			c0-2.4-1.4-3.8-4.3-3.8c-1.9,0-3.8,0.7-5,1.7l-1.2-2.2c1.6-1.3,4-2,6.6-2C346.5,99.5,349,101.6,349,105.9z M346.1,110.6v-2.2h-4.4
			c-2.9,0-3.7,1.1-3.7,2.5c0,1.6,1.3,2.6,3.5,2.6C343.7,113.5,345.4,112.5,346.1,110.6z"/>
		<path class="st4" d="M353,113.6c0-1.2,0.9-2,2-2c1.1,0,2,0.8,2,2c0,1.2-0.9,2.1-2,2.1C353.9,115.7,353,114.8,353,113.6z"/>
	</g>
	<g>
		<path class="st4" d="M7.6,207.3c0-6.2,4.7-10.7,11.1-10.7c3.2,0,6.1,1.1,8,3.3l-2,1.9c-1.6-1.7-3.6-2.5-5.9-2.5
			c-4.7,0-8.2,3.4-8.2,8.1c0,4.7,3.5,8.1,8.2,8.1c2.3,0,4.3-0.8,5.9-2.5l2,1.9c-1.9,2.2-4.7,3.3-8,3.3C12.3,218,7.6,213.5,7.6,207.3
			z"/>
		<path class="st4" d="M44.9,201.9v15.9h-2.7v-2.4c-1.2,1.7-3.1,2.6-5.4,2.6c-4.1,0-6.8-2.2-6.8-6.9v-9.1h2.9v8.8
			c0,3.1,1.6,4.7,4.3,4.7c3,0,4.9-1.9,4.9-5.3v-8.2H44.9z"/>
		<path class="st4" d="M58.9,201.7v2.8c-0.2,0-0.4,0-0.7,0c-3.1,0-5,1.9-5,5.4v7.9h-2.9v-15.9h2.8v2.7
			C54.1,202.7,56.1,201.7,58.9,201.7z"/>
		<path class="st4" d="M60.6,216.1l1.2-2.3c1.4,1,3.5,1.7,5.6,1.7c2.7,0,3.8-0.8,3.8-2.2c0-3.6-10-0.5-10-6.8c0-2.9,2.5-4.8,6.6-4.8
			c2.1,0,4.4,0.5,5.8,1.4l-1.2,2.3c-1.4-0.9-3-1.3-4.6-1.3c-2.5,0-3.7,0.9-3.7,2.2c0,3.8,10.1,0.7,10.1,6.9c0,2.9-2.6,4.7-6.9,4.7
			C64.5,217.9,61.9,217.1,60.6,216.1z"/>
		<path class="st4" d="M76.1,209.8c0-4.7,3.5-8.1,8.3-8.1c4.8,0,8.2,3.4,8.2,8.1c0,4.7-3.5,8.1-8.2,8.1
			C79.6,217.9,76.1,214.5,76.1,209.8z M89.8,209.8c0-3.4-2.3-5.6-5.3-5.6c-3.1,0-5.4,2.2-5.4,5.6c0,3.4,2.3,5.6,5.4,5.6
			C87.5,215.4,89.8,213.2,89.8,209.8z"/>
		<path class="st4" d="M121.2,209.8c0,4.9-3.4,8.1-8,8.1c-2.3,0-4.4-0.9-5.7-2.7v2.5h-2.8v-22.3h2.9v8.8c1.3-1.7,3.3-2.6,5.5-2.6
			C117.8,201.7,121.2,204.9,121.2,209.8z M118.3,209.8c0-3.4-2.3-5.6-5.4-5.6c-3,0-5.3,2.2-5.3,5.6c0,3.4,2.3,5.6,5.3,5.6
			C116,215.4,118.3,213.2,118.3,209.8z"/>
		<path class="st4" d="M137.6,208.2v9.6h-2.7v-2.1c-1,1.4-2.7,2.3-5.2,2.3c-3.6,0-5.9-1.9-5.9-4.7c0-2.5,1.6-4.6,6.4-4.6h4.6V208
			c0-2.4-1.4-3.8-4.3-3.8c-1.9,0-3.8,0.7-5,1.7l-1.2-2.2c1.7-1.3,4-2,6.6-2C135.2,201.7,137.6,203.8,137.6,208.2z M134.8,212.9v-2.2
			h-4.4c-2.9,0-3.7,1.1-3.7,2.5c0,1.6,1.3,2.6,3.5,2.6C132.3,215.7,134,214.7,134.8,212.9z M131.5,199.5h-2.7l4.1-3.9h3.7
			L131.5,199.5z"/>
		<path class="st4" d="M141,216.1l1.2-2.3c1.4,1,3.5,1.7,5.6,1.7c2.7,0,3.8-0.8,3.8-2.2c0-3.6-10-0.5-10-6.8c0-2.9,2.5-4.8,6.6-4.8
			c2.1,0,4.4,0.5,5.8,1.4l-1.2,2.3c-1.4-0.9-3-1.3-4.6-1.3c-2.5,0-3.7,0.9-3.7,2.2c0,3.8,10.1,0.7,10.1,6.9c0,2.9-2.6,4.7-6.9,4.7
			C144.9,217.9,142.3,217.1,141,216.1z"/>
		<path class="st4" d="M157.5,196.9c0-1,0.8-1.9,2-1.9s1.9,0.8,1.9,1.8c0,1.1-0.8,1.9-1.9,1.9C158.3,198.8,157.5,198,157.5,196.9z
			 M158,201.9h2.9v15.9H158V201.9z"/>
		<path class="st4" d="M164.9,209.8c0-4.7,3.5-8.1,8.4-8.1c2.8,0,5.2,1.2,6.5,3.4l-2.2,1.4c-1-1.6-2.6-2.3-4.3-2.3
			c-3.1,0-5.5,2.2-5.5,5.6c0,3.4,2.3,5.6,5.5,5.6c1.7,0,3.3-0.7,4.3-2.3l2.2,1.4c-1.3,2.2-3.6,3.4-6.5,3.4
			C168.4,217.9,164.9,214.5,164.9,209.8z"/>
		<path class="st4" d="M181.8,209.8c0-4.7,3.5-8.1,8.3-8.1c4.8,0,8.2,3.4,8.2,8.1c0,4.7-3.5,8.1-8.2,8.1
			C185.3,217.9,181.8,214.5,181.8,209.8z M195.4,209.8c0-3.4-2.3-5.6-5.3-5.6c-3.1,0-5.4,2.2-5.4,5.6c0,3.4,2.3,5.6,5.4,5.6
			C193.1,215.4,195.4,213.2,195.4,209.8z"/>
		<path class="st4" d="M225.4,195.5v22.3h-2.8v-2.5c-1.3,1.8-3.3,2.7-5.7,2.7c-4.6,0-8-3.3-8-8.1c0-4.9,3.4-8.1,8-8.1
			c2.2,0,4.2,0.8,5.5,2.6v-8.8H225.4z M222.5,209.8c0-3.4-2.3-5.6-5.3-5.6c-3.1,0-5.4,2.2-5.4,5.6c0,3.4,2.3,5.6,5.4,5.6
			C220.2,215.4,222.5,213.2,222.5,209.8z"/>
		<path class="st4" d="M245.2,210.8h-12.9c0.4,2.8,2.6,4.6,5.8,4.6c1.9,0,3.4-0.6,4.6-1.9l1.6,1.9c-1.4,1.7-3.6,2.6-6.3,2.6
			c-5.1,0-8.5-3.4-8.5-8.1c0-4.7,3.4-8.1,8-8.1s7.9,3.3,7.9,8.2C245.2,210.1,245.2,210.5,245.2,210.8z M232.3,208.7h10.2
			c-0.3-2.7-2.3-4.6-5.1-4.6C234.6,204.1,232.6,206,232.3,208.7z"/>
		<path class="st4" d="M260.5,200.5v1.4h4.6v2.4h-4.6v13.5h-2.9v-13.5H255v-2.4h2.7v-1.4c0-3.1,1.9-5.1,5.2-5.1
			c1.2,0,2.4,0.3,3.2,0.9l-0.9,2.2c-0.6-0.5-1.4-0.8-2.2-0.8C261.4,197.7,260.5,198.6,260.5,200.5z"/>
		<path class="st4" d="M266.2,209.8c0-4.7,3.5-8.1,8.3-8.1c4.8,0,8.2,3.4,8.2,8.1c0,4.7-3.5,8.1-8.2,8.1
			C269.7,217.9,266.2,214.5,266.2,209.8z M279.8,209.8c0-3.4-2.3-5.6-5.3-5.6c-3.1,0-5.4,2.2-5.4,5.6c0,3.4,2.3,5.6,5.4,5.6
			C277.5,215.4,279.8,213.2,279.8,209.8z"/>
		<path class="st4" d="M295.2,201.7v2.8c-0.2,0-0.5,0-0.7,0c-3.1,0-5,1.9-5,5.4v7.9h-2.9v-15.9h2.8v2.7
			C290.5,202.7,292.4,201.7,295.2,201.7z"/>
		<path class="st4" d="M312.9,210.8H300c0.4,2.8,2.6,4.6,5.8,4.6c1.9,0,3.4-0.6,4.6-1.9l1.6,1.9c-1.4,1.7-3.6,2.6-6.3,2.6
			c-5.1,0-8.5-3.4-8.5-8.1c0-4.7,3.4-8.1,8-8.1s7.9,3.3,7.9,8.2C313,210.1,313,210.5,312.9,210.8z M300,208.7h10.2
			c-0.3-2.7-2.3-4.6-5.1-4.6C302.4,204.1,300.3,206,300,208.7z"/>
		<path class="st4" d="M326.7,217.8l-4.6-6.1l-4.6,6.1h-3.2l6.3-8.1l-6-7.8h3.2l4.4,5.7l4.4-5.7h3.1l-6,7.8l6.3,8.1H326.7z"/>
		<path class="st4" d="M355.5,210.8h-12.9c0.4,2.8,2.6,4.6,5.8,4.6c1.9,0,3.4-0.6,4.6-1.9l1.6,1.9c-1.4,1.7-3.6,2.6-6.3,2.6
			c-5.1,0-8.5-3.4-8.5-8.1c0-4.7,3.4-8.1,8-8.1s7.9,3.3,7.9,8.2C355.5,210.1,355.5,210.5,355.5,210.8z M342.6,208.7h10.2
			c-0.3-2.7-2.3-4.6-5.1-4.6C344.9,204.1,342.9,206,342.6,208.7z"/>
		<path class="st4" d="M374.6,208.6v9.1h-2.9v-8.8c0-3.1-1.6-4.7-4.3-4.7c-3.1,0-5,1.8-5,5.3v8.2h-2.9v-15.9h2.8v2.4
			c1.2-1.6,3.2-2.6,5.7-2.6C371.9,201.7,374.6,203.9,374.6,208.6z"/>
		<path class="st4" d="M402.1,201.9l-7,15.9h-2.9l-7-15.9h3l5.5,12.8l5.6-12.8H402.1z"/>
		<path class="st4" d="M404.3,196.9c0-1,0.8-1.9,2-1.9s1.9,0.8,1.9,1.8c0,1.1-0.8,1.9-1.9,1.9C405.1,198.8,404.3,198,404.3,196.9z
			 M404.8,201.9h2.9v15.9h-2.9V201.9z"/>
		<path class="st4" d="M427.2,201.9l-7,15.9h-2.9l-7-15.9h3l5.5,12.8l5.6-12.8H427.2z"/>
		<path class="st4" d="M428,209.8c0-4.7,3.5-8.1,8.3-8.1c4.8,0,8.2,3.4,8.2,8.1c0,4.7-3.5,8.1-8.2,8.1
			C431.5,217.9,428,214.5,428,209.8z M441.6,209.8c0-3.4-2.3-5.6-5.3-5.6c-3.1,0-5.4,2.2-5.4,5.6c0,3.4,2.3,5.6,5.4,5.6
			C439.3,215.4,441.6,213.2,441.6,209.8z"/>
		<path class="st4" d="M446.8,215.9c0-1.2,0.9-2,2-2c1.1,0,2,0.8,2,2c0,1.2-0.9,2.1-2,2.1C447.7,217.9,446.8,217.1,446.8,215.9z"/>
	</g>
	<g>
		<path class="st4" d="M22.7,316.1H11.5l-2.3,5.2H6.1l9.5-21h3l9.5,21H25L22.7,316.1z M21.6,313.7l-4.5-10.3l-4.5,10.3H21.6z"/>
		<path class="st4" d="M47.3,313.4c0,4.9-3.4,8.1-8,8.1c-2.2,0-4.2-0.9-5.5-2.6v8.2h-2.9v-21.7h2.8v2.5c1.3-1.8,3.3-2.7,5.7-2.7
			C43.9,305.3,47.3,308.5,47.3,313.4z M44.4,313.4c0-3.4-2.3-5.6-5.4-5.6c-3,0-5.3,2.2-5.3,5.6c0,3.4,2.3,5.6,5.3,5.6
			C42.1,319,44.4,316.8,44.4,313.4z"/>
		<path class="st4" d="M49.8,313.4c0-4.7,3.5-8.1,8.3-8.1c4.8,0,8.2,3.4,8.2,8.1c0,4.7-3.5,8.1-8.2,8.1
			C53.3,321.5,49.8,318.1,49.8,313.4z M63.4,313.4c0-3.4-2.3-5.6-5.3-5.6c-3.1,0-5.4,2.2-5.4,5.6c0,3.4,2.3,5.6,5.4,5.6
			C61.2,319,63.4,316.8,63.4,313.4z"/>
		<path class="st4" d="M84,305.5l-7.7,17.5c-1.4,3.4-3.2,4.4-5.7,4.4c-1.5,0-3.1-0.5-4.1-1.5l1.2-2.2c0.8,0.8,1.8,1.2,2.9,1.2
			c1.4,0,2.2-0.6,3-2.5l0.5-1.1l-7-15.9h3l5.5,12.7l5.5-12.7H84z"/>
		<path class="st4" d="M84.7,313.4c0-4.7,3.5-8.1,8.3-8.1c4.8,0,8.2,3.4,8.2,8.1c0,4.7-3.5,8.1-8.2,8.1
			C88.3,321.5,84.7,318.1,84.7,313.4z M98.4,313.4c0-3.4-2.3-5.6-5.3-5.6c-3.1,0-5.4,2.2-5.4,5.6c0,3.4,2.3,5.6,5.4,5.6
			C96.1,319,98.4,316.8,98.4,313.4z"/>
		<path class="st4" d="M129.8,313.4c0,4.9-3.4,8.1-8,8.1c-2.2,0-4.2-0.9-5.5-2.6v8.2h-2.9v-21.7h2.8v2.5c1.3-1.8,3.3-2.7,5.7-2.7
			C126.4,305.3,129.8,308.5,129.8,313.4z M126.9,313.4c0-3.4-2.3-5.6-5.4-5.6c-3,0-5.3,2.2-5.3,5.6c0,3.4,2.3,5.6,5.3,5.6
			C124.6,319,126.9,316.8,126.9,313.4z"/>
		<path class="st4" d="M146.2,311.8v9.6h-2.7v-2.1c-1,1.4-2.7,2.3-5.2,2.3c-3.6,0-5.9-1.9-5.9-4.7c0-2.5,1.6-4.6,6.4-4.6h4.6v-0.6
			c0-2.4-1.4-3.8-4.3-3.8c-1.9,0-3.8,0.7-5,1.7l-1.2-2.2c1.7-1.3,4-2,6.6-2C143.8,305.3,146.2,307.4,146.2,311.8z M143.4,316.5v-2.2
			h-4.4c-2.9,0-3.7,1.1-3.7,2.5c0,1.6,1.3,2.6,3.5,2.6C140.9,319.3,142.6,318.3,143.4,316.5z"/>
		<path class="st4" d="M160.1,305.3v2.8c-0.2,0-0.4,0-0.7,0c-3.1,0-5,1.9-5,5.4v7.9h-2.9v-15.9h2.8v2.7
			C155.4,306.3,157.3,305.3,160.1,305.3z"/>
		<path class="st4" d="M176.2,311.8v9.6h-2.7v-2.1c-1,1.4-2.7,2.3-5.2,2.3c-3.6,0-5.9-1.9-5.9-4.7c0-2.5,1.6-4.6,6.4-4.6h4.6v-0.6
			c0-2.4-1.4-3.8-4.3-3.8c-1.9,0-3.8,0.7-5,1.7l-1.2-2.2c1.6-1.3,4-2,6.6-2C173.8,305.3,176.2,307.4,176.2,311.8z M173.4,316.5v-2.2
			h-4.4c-2.9,0-3.7,1.1-3.7,2.5c0,1.6,1.3,2.6,3.5,2.6C170.9,319.3,172.6,318.3,173.4,316.5z"/>
		<path class="st4" d="M189.1,300.5c0-1,0.8-1.9,2-1.9s1.9,0.8,1.9,1.8c0,1.1-0.8,1.9-1.9,1.9C190,302.4,189.1,301.6,189.1,300.5z
			 M189.7,305.5h2.9v15.9h-2.9V305.5z"/>
		<path class="st4" d="M213.1,312.2v9.1h-2.9v-8.8c0-3.1-1.6-4.7-4.3-4.7c-3.1,0-5,1.8-5,5.3v8.2H198v-15.9h2.8v2.4
			c1.2-1.6,3.2-2.6,5.7-2.6C210.4,305.3,213.1,307.5,213.1,312.2z"/>
		<path class="st4" d="M216.4,319.7l1.2-2.3c1.4,1,3.5,1.7,5.6,1.7c2.7,0,3.8-0.8,3.8-2.2c0-3.6-10-0.5-10-6.8
			c0-2.9,2.5-4.8,6.6-4.8c2.1,0,4.4,0.5,5.8,1.4l-1.2,2.3c-1.4-0.9-3-1.3-4.6-1.3c-2.5,0-3.7,0.9-3.7,2.2c0,3.8,10.1,0.7,10.1,6.9
			c0,2.9-2.6,4.7-6.9,4.7C220.4,321.5,217.8,320.7,216.4,319.7z"/>
		<path class="st4" d="M242.4,320.4c-0.9,0.8-2.2,1.1-3.5,1.1c-3.2,0-5-1.8-5-5v-8.7h-2.7v-2.4h2.7V302h2.9v3.5h4.6v2.4h-4.6v8.6
			c0,1.7,0.9,2.7,2.5,2.7c0.8,0,1.6-0.3,2.2-0.8L242.4,320.4z"/>
		<path class="st4" d="M258.5,311.8v9.6h-2.7v-2.1c-1,1.4-2.7,2.3-5.2,2.3c-3.6,0-5.9-1.9-5.9-4.7c0-2.5,1.6-4.6,6.4-4.6h4.6v-0.6
			c0-2.4-1.4-3.8-4.3-3.8c-1.9,0-3.8,0.7-5,1.7l-1.2-2.2c1.6-1.3,4-2,6.6-2C256,305.3,258.5,307.4,258.5,311.8z M255.6,316.5v-2.2
			h-4.4c-2.9,0-3.7,1.1-3.7,2.5c0,1.6,1.3,2.6,3.5,2.6C253.2,319.3,254.9,318.3,255.6,316.5z"/>
		<path class="st4" d="M263.8,299.1h2.9v22.3h-2.9V299.1z"/>
		<path class="st4" d="M284.8,311.8v9.6h-2.7v-2.1c-1,1.4-2.7,2.3-5.2,2.3c-3.6,0-5.9-1.9-5.9-4.7c0-2.5,1.6-4.6,6.4-4.6h4.6v-0.6
			c0-2.4-1.4-3.8-4.3-3.8c-1.9,0-3.8,0.7-5,1.7l-1.2-2.2c1.6-1.3,4-2,6.6-2C282.4,305.3,284.8,307.4,284.8,311.8z M281.9,316.5v-2.2
			h-4.4c-2.9,0-3.7,1.1-3.7,2.5c0,1.6,1.3,2.6,3.5,2.6C279.5,319.3,281.2,318.3,281.9,316.5z"/>
		<path class="st4" d="M288.8,313.4c0-4.7,3.5-8.1,8.4-8.1c2.8,0,5.2,1.2,6.5,3.4l-2.2,1.4c-1-1.6-2.6-2.3-4.3-2.3
			c-3.1,0-5.5,2.2-5.5,5.6c0,3.4,2.3,5.6,5.5,5.6c1.7,0,3.3-0.7,4.3-2.3l2.2,1.4c-1.3,2.2-3.6,3.4-6.5,3.4
			C292.3,321.5,288.8,318.1,288.8,313.4z"/>
		<path class="st4" d="M306.9,300.5c0-1,0.8-1.9,2-1.9s1.9,0.8,1.9,1.8c0,1.1-0.8,1.9-1.9,1.9C307.7,302.4,306.9,301.6,306.9,300.5z
			 M307.4,305.5h2.9v15.9h-2.9V305.5z"/>
		<path class="st4" d="M314.3,313.4c0-4.7,3.5-8.1,8.3-8.1c4.8,0,8.2,3.4,8.2,8.1c0,4.7-3.5,8.1-8.2,8.1
			C317.8,321.5,314.3,318.1,314.3,313.4z M327.9,313.4c0-3.4-2.3-5.6-5.3-5.6s-5.4,2.2-5.4,5.6c0,3.4,2.3,5.6,5.4,5.6
			S327.9,316.8,327.9,313.4z M324.4,299.2h3.7l-5,3.9h-2.7L324.4,299.2z"/>
		<path class="st4" d="M349.9,312.2v9.1H347v-8.8c0-3.1-1.6-4.7-4.3-4.7c-3.1,0-5,1.8-5,5.3v8.2h-2.9v-15.9h2.8v2.4
			c1.2-1.6,3.2-2.6,5.7-2.6C347.2,305.3,349.9,307.5,349.9,312.2z"/>
		<path class="st4" d="M362.5,315.9c0-3.7,0.9-7,2.4-9.4h1.8c-1.6,2.8-2.3,5.9-2.3,9.4c0,3.5,0.7,6.5,2.3,9.4h-1.8
			C363.3,322.8,362.5,319.6,362.5,315.9z"/>
		<path class="st4" d="M381.6,307.4l-6.1,14h-2l-6.2-14h2.2l5,11.5l5.1-11.5H381.6z"/>
		<path class="st4" d="M382.7,307.5c0-0.7,0.6-1.3,1.3-1.3s1.3,0.5,1.3,1.2c0,0.7-0.5,1.3-1.3,1.3
			C383.3,308.7,382.7,308.2,382.7,307.5z M383.1,310.8h1.9v10.6h-1.9V310.8z"/>
		<path class="st4" d="M398.7,306.5v14.8h-1.8v-1.7c-0.9,1.2-2.2,1.8-3.8,1.8c-3.1,0-5.4-2.2-5.4-5.4c0-3.2,2.3-5.4,5.4-5.4
			c1.5,0,2.8,0.6,3.7,1.7v-5.8H398.7z M396.8,316.1c0-2.3-1.5-3.7-3.6-3.7c-2,0-3.6,1.5-3.6,3.7c0,2.3,1.5,3.7,3.6,3.7
			C395.2,319.8,396.8,318.3,396.8,316.1z"/>
		<path class="st4" d="M411.8,316.7h-8.6c0.2,1.9,1.7,3.1,3.8,3.1c1.2,0,2.3-0.4,3.1-1.3l1.1,1.2c-1,1.1-2.4,1.7-4.2,1.7
			c-3.4,0-5.7-2.3-5.7-5.4c0-3.1,2.3-5.4,5.3-5.4c3.1,0,5.2,2.2,5.2,5.5C411.9,316.3,411.9,316.5,411.8,316.7z M403.2,315.3h6.8
			c-0.2-1.8-1.5-3-3.4-3C404.8,312.3,403.4,313.5,403.2,315.3z"/>
		<path class="st4" d="M413.6,316.1c0-3.2,2.3-5.4,5.5-5.4s5.5,2.2,5.5,5.4c0,3.2-2.3,5.4-5.5,5.4S413.6,319.2,413.6,316.1z
			 M422.6,316.1c0-2.3-1.5-3.7-3.6-3.7s-3.6,1.5-3.6,3.7c0,2.3,1.5,3.7,3.6,3.7S422.6,318.3,422.6,316.1z"/>
		<path class="st4" d="M427.2,306.5h1.9v14.8h-1.9V306.5z"/>
		<path class="st4" d="M432.8,306.5h1.9v14.8h-1.9V306.5z"/>
		<path class="st4" d="M446.8,315v6.4H445V320c-0.6,1-1.8,1.5-3.5,1.5c-2.4,0-3.9-1.3-3.9-3.1c0-1.7,1.1-3.1,4.3-3.1h3v-0.4
			c0-1.6-0.9-2.6-2.8-2.6c-1.3,0-2.5,0.4-3.4,1.1l-0.8-1.4c1.1-0.9,2.7-1.4,4.4-1.4C445.2,310.7,446.8,312.1,446.8,315z
			 M444.9,318.1v-1.5h-3c-1.9,0-2.4,0.7-2.4,1.6c0,1.1,0.9,1.7,2.3,1.7C443.3,320,444.4,319.3,444.9,318.1z"/>
		<path class="st4" d="M468,315.3v6.1H466v-5.9c0-2.1-1-3.1-2.7-3.1c-1.9,0-3.2,1.2-3.2,3.5v5.5h-1.9v-5.9c0-2.1-1-3.1-2.7-3.1
			c-1.9,0-3.2,1.2-3.2,3.5v5.5h-1.9v-10.6h1.8v1.6c0.8-1.1,2.1-1.7,3.7-1.7c1.6,0,3,0.6,3.7,2c0.8-1.2,2.3-2,4.1-2
			C466.2,310.7,468,312.1,468,315.3z"/>
		<path class="st4" d="M479.9,315v6.4h-1.8V320c-0.6,1-1.8,1.5-3.5,1.5c-2.4,0-3.9-1.3-3.9-3.1c0-1.7,1.1-3.1,4.3-3.1h3v-0.4
			c0-1.6-0.9-2.6-2.8-2.6c-1.3,0-2.5,0.4-3.4,1.1L471,312c1.1-0.9,2.7-1.4,4.4-1.4C478.3,310.7,479.9,312.1,479.9,315z M478,318.1
			v-1.5h-3c-1.9,0-2.4,0.7-2.4,1.6c0,1.1,0.9,1.7,2.3,1.7C476.4,320,477.5,319.3,478,318.1z"/>
		<path class="st4" d="M493.5,306.5v14.8h-1.8v-1.7c-0.9,1.2-2.2,1.8-3.8,1.8c-3.1,0-5.4-2.2-5.4-5.4c0-3.2,2.3-5.4,5.4-5.4
			c1.5,0,2.8,0.6,3.7,1.7v-5.8H493.5z M491.6,316.1c0-2.3-1.5-3.7-3.6-3.7c-2,0-3.6,1.5-3.6,3.7c0,2.3,1.5,3.7,3.6,3.7
			C490.1,319.8,491.6,318.3,491.6,316.1z"/>
		<path class="st4" d="M505.6,315v6.4h-1.8V320c-0.6,1-1.8,1.5-3.5,1.5c-2.4,0-3.9-1.3-3.9-3.1c0-1.7,1.1-3.1,4.3-3.1h3v-0.4
			c0-1.6-0.9-2.6-2.8-2.6c-1.3,0-2.5,0.4-3.4,1.1l-0.8-1.4c1.1-0.9,2.7-1.4,4.4-1.4C503.9,310.7,505.6,312.1,505.6,315z
			 M503.6,318.1v-1.5h-3c-1.9,0-2.4,0.7-2.4,1.6c0,1.1,0.9,1.7,2.3,1.7C502,320,503.2,319.3,503.6,318.1z"/>
		<path class="st4" d="M507.9,325.2c1.6-2.8,2.3-5.9,2.3-9.4c0-3.5-0.7-6.5-2.3-9.4h1.8c1.5,2.4,2.4,5.7,2.4,9.4s-0.9,6.9-2.4,9.4
			H507.9z"/>
		<path class="st4" d="M515.4,319.5c0-1.2,0.9-2,2-2c1.1,0,2,0.8,2,2c0,1.2-0.9,2.1-2,2.1C516.4,321.5,515.4,320.7,515.4,319.5z"/>
	</g>
	<g>
		<path class="st4" d="M22.7,413.8H11.5l-2.3,5.2H6.1l9.5-21h3l9.5,21H25L22.7,413.8z M21.6,411.4l-4.5-10.3l-4.5,10.3H21.6z"/>
		<path class="st4" d="M28.7,417.4l1.2-2.3c1.4,1,3.5,1.7,5.6,1.7c2.7,0,3.8-0.8,3.8-2.2c0-3.6-10-0.5-10-6.8c0-2.9,2.5-4.8,6.6-4.8
			c2.1,0,4.4,0.5,5.8,1.4l-1.2,2.3c-1.4-0.9-3-1.3-4.6-1.3c-2.5,0-3.8,0.9-3.8,2.2c0,3.8,10.1,0.7,10.1,6.9c0,2.9-2.6,4.7-6.9,4.7
			C32.6,419.3,30,418.5,28.7,417.4z"/>
		<path class="st4" d="M60,412.1H47.1c0.4,2.8,2.6,4.6,5.8,4.6c1.9,0,3.4-0.6,4.6-1.9l1.6,1.9c-1.4,1.7-3.6,2.6-6.3,2.6
			c-5.1,0-8.5-3.4-8.5-8.1c0-4.7,3.4-8.1,8-8.1s7.9,3.3,7.9,8.2C60.1,411.5,60.1,411.8,60,412.1z M47.1,410h10.2
			c-0.3-2.7-2.3-4.6-5.1-4.6C49.5,405.5,47.4,407.3,47.1,410z"/>
		<path class="st4" d="M62.1,417.4l1.2-2.3c1.4,1,3.5,1.7,5.6,1.7c2.7,0,3.8-0.8,3.8-2.2c0-3.6-10-0.5-10-6.8c0-2.9,2.5-4.8,6.6-4.8
			c2.1,0,4.4,0.5,5.8,1.4l-1.2,2.3c-1.4-0.9-3-1.3-4.6-1.3c-2.5,0-3.8,0.9-3.8,2.2c0,3.8,10.1,0.7,10.1,6.9c0,2.9-2.6,4.7-6.9,4.7
			C66,419.3,63.4,418.5,62.1,417.4z"/>
		<path class="st4" d="M77.6,411.1c0-4.7,3.5-8.1,8.3-8.1c4.8,0,8.2,3.4,8.2,8.1c0,4.7-3.5,8.1-8.2,8.1
			C81.1,419.3,77.6,415.9,77.6,411.1z M91.3,411.1c0-3.4-2.3-5.6-5.3-5.6s-5.4,2.2-5.4,5.6c0,3.4,2.3,5.6,5.4,5.6
			S91.3,414.5,91.3,411.1z"/>
		<path class="st4" d="M106.7,403v2.8c-0.2,0-0.4,0-0.7,0c-3.1,0-5,1.9-5,5.4v7.9h-2.9v-15.9h2.8v2.7C101.9,404,103.9,403,106.7,403
			z"/>
		<path class="st4" d="M113.5,397h3.7l-5,3.9h-2.7L113.5,397z M110.2,403.2h2.9v15.9h-2.9V403.2z"/>
		<path class="st4" d="M131.2,409.5v9.6h-2.7V417c-1,1.4-2.7,2.3-5.2,2.3c-3.6,0-5.9-1.9-5.9-4.7c0-2.5,1.6-4.6,6.4-4.6h4.6v-0.6
			c0-2.4-1.4-3.8-4.3-3.8c-1.9,0-3.8,0.7-5,1.7l-1.2-2.2c1.6-1.3,4-2,6.6-2C128.8,403,131.2,405.1,131.2,409.5z M128.3,414.2V412
			h-4.4c-2.9,0-3.7,1.1-3.7,2.5c0,1.6,1.3,2.6,3.5,2.6C125.9,417.1,127.6,416.1,128.3,414.2z"/>
		<path class="st4" d="M161.1,411.1c0,4.9-3.4,8.1-8,8.1c-2.2,0-4.2-0.9-5.5-2.6v8.2h-2.9v-21.7h2.8v2.5c1.3-1.8,3.3-2.7,5.7-2.7
			C157.7,403,161.1,406.3,161.1,411.1z M158.2,411.1c0-3.4-2.3-5.6-5.4-5.6c-3,0-5.3,2.2-5.3,5.6c0,3.4,2.3,5.6,5.3,5.6
			C155.9,416.8,158.2,414.5,158.2,411.1z"/>
		<path class="st4" d="M179.4,412.1h-12.9c0.4,2.8,2.6,4.6,5.8,4.6c1.9,0,3.4-0.6,4.6-1.9l1.6,1.9c-1.4,1.7-3.6,2.6-6.3,2.6
			c-5.1,0-8.5-3.4-8.5-8.1c0-4.7,3.4-8.1,8-8.1s7.9,3.3,7.9,8.2C179.5,411.5,179.4,411.8,179.4,412.1z M166.5,410h10.2
			c-0.3-2.7-2.3-4.6-5.1-4.6C168.8,405.5,166.8,407.3,166.5,410z"/>
		<path class="st4" d="M192,403v2.8c-0.2,0-0.5,0-0.7,0c-3.1,0-5,1.9-5,5.4v7.9h-2.9v-15.9h2.8v2.7C187.2,404,189.2,403,192,403z"/>
		<path class="st4" d="M193.6,417.4l1.2-2.3c1.4,1,3.5,1.7,5.6,1.7c2.7,0,3.8-0.8,3.8-2.2c0-3.6-10-0.5-10-6.8
			c0-2.9,2.5-4.8,6.6-4.8c2.1,0,4.4,0.5,5.8,1.4l-1.2,2.3c-1.4-0.9-3-1.3-4.6-1.3c-2.5,0-3.7,0.9-3.7,2.2c0,3.8,10.1,0.7,10.1,6.9
			c0,2.9-2.6,4.7-6.9,4.7C197.6,419.3,195,418.5,193.6,417.4z"/>
		<path class="st4" d="M209.2,411.1c0-4.7,3.5-8.1,8.3-8.1c4.8,0,8.2,3.4,8.2,8.1c0,4.7-3.5,8.1-8.2,8.1
			C212.7,419.3,209.2,415.9,209.2,411.1z M222.8,411.1c0-3.4-2.3-5.6-5.3-5.6c-3.1,0-5.4,2.2-5.4,5.6c0,3.4,2.3,5.6,5.4,5.6
			C220.6,416.8,222.8,414.5,222.8,411.1z"/>
		<path class="st4" d="M244.8,409.9v9.1h-2.9v-8.8c0-3.1-1.6-4.7-4.3-4.7c-3.1,0-5,1.8-5,5.3v8.2h-2.9v-15.9h2.8v2.4
			c1.2-1.6,3.2-2.6,5.7-2.6C242.1,403,244.8,405.3,244.8,409.9z"/>
		<path class="st4" d="M262.8,409.5v9.6H260V417c-1,1.4-2.7,2.3-5.2,2.3c-3.6,0-5.9-1.9-5.9-4.7c0-2.5,1.6-4.6,6.4-4.6h4.6v-0.6
			c0-2.4-1.4-3.8-4.3-3.8c-1.9,0-3.8,0.7-5,1.7l-1.2-2.2c1.6-1.3,4-2,6.6-2C260.3,403,262.8,405.1,262.8,409.5z M259.9,414.2V412
			h-4.4c-2.9,0-3.7,1.1-3.7,2.5c0,1.6,1.3,2.6,3.5,2.6C257.5,417.1,259.2,416.1,259.9,414.2z"/>
		<path class="st4" d="M268.1,396.8h2.9v22.3h-2.9V396.8z"/>
		<path class="st4" d="M276,398.3c0-1,0.8-1.9,2-1.9s1.9,0.8,1.9,1.8c0,1.1-0.8,1.9-1.9,1.9C276.8,400.1,276,399.3,276,398.3z
			 M276.5,403.2h2.9v15.9h-2.9V403.2z"/>
		<path class="st4" d="M296.6,416.7v2.4h-13.3v-1.9l9.4-11.7h-9.2v-2.4h12.9v1.9l-9.4,11.6H296.6z"/>
		<path class="st4" d="M313.1,409.5v9.6h-2.7V417c-1,1.4-2.7,2.3-5.2,2.3c-3.6,0-5.9-1.9-5.9-4.7c0-2.5,1.6-4.6,6.4-4.6h4.6v-0.6
			c0-2.4-1.4-3.8-4.3-3.8c-1.9,0-3.8,0.7-5,1.7l-1.2-2.2c1.7-1.3,4-2,6.6-2C310.6,403,313.1,405.1,313.1,409.5z M310.2,414.2V412
			h-4.4c-2.9,0-3.7,1.1-3.7,2.5c0,1.6,1.3,2.6,3.5,2.6C307.8,417.1,309.5,416.1,310.2,414.2z"/>
		<path class="st4" d="M333.5,396.8v22.3h-2.8v-2.5c-1.3,1.8-3.3,2.7-5.7,2.7c-4.6,0-8-3.3-8-8.1c0-4.9,3.4-8.1,8-8.1
			c2.2,0,4.2,0.8,5.5,2.6v-8.8H333.5z M330.7,411.1c0-3.4-2.3-5.6-5.3-5.6c-3.1,0-5.4,2.2-5.4,5.6c0,3.4,2.3,5.6,5.4,5.6
			C328.3,416.8,330.7,414.5,330.7,411.1z"/>
		<path class="st4" d="M351.6,409.5v9.6h-2.7V417c-1,1.4-2.7,2.3-5.2,2.3c-3.6,0-5.9-1.9-5.9-4.7c0-2.5,1.6-4.6,6.4-4.6h4.6v-0.6
			c0-2.4-1.4-3.8-4.3-3.8c-1.9,0-3.8,0.7-5,1.7l-1.2-2.2c1.7-1.3,4-2,6.6-2C349.1,403,351.6,405.1,351.6,409.5z M348.7,414.2V412
			h-4.4c-2.9,0-3.7,1.1-3.7,2.5c0,1.6,1.3,2.6,3.5,2.6C346.3,417.1,348,416.1,348.7,414.2z"/>
		<path class="st4" d="M355.6,417.2c0-1.2,0.9-2,2-2c1.1,0,2,0.8,2,2c0,1.2-0.9,2.1-2,2.1C356.5,419.3,355.6,418.4,355.6,417.2z"/>
	</g>
	<g>
		<path class="st4" d="M22.7,521.2H11.5l-2.3,5.2H6.1l9.5-21h3l9.5,21H25L22.7,521.2z M21.6,518.8l-4.5-10.3l-4.5,10.3H21.6z"/>
		<path class="st4" d="M29.2,518.5c0-4.7,3.5-8.1,8.4-8.1c2.8,0,5.2,1.2,6.5,3.4l-2.2,1.4c-1-1.6-2.6-2.3-4.3-2.3
			c-3.1,0-5.5,2.2-5.5,5.6c0,3.4,2.3,5.6,5.5,5.6c1.7,0,3.3-0.7,4.3-2.3l2.2,1.4c-1.3,2.2-3.6,3.4-6.5,3.4
			C32.7,526.6,29.2,523.2,29.2,518.5z"/>
		<path class="st4" d="M46.1,518.5c0-4.7,3.5-8.1,8.4-8.1c2.8,0,5.2,1.2,6.5,3.4l-2.2,1.4c-1-1.6-2.6-2.3-4.3-2.3
			c-3.1,0-5.5,2.2-5.5,5.6c0,3.4,2.3,5.6,5.5,5.6c1.7,0,3.3-0.7,4.3-2.3l2.2,1.4c-1.3,2.2-3.6,3.4-6.5,3.4
			C49.6,526.6,46.1,523.2,46.1,518.5z"/>
		<path class="st4" d="M78.8,519.4H65.9c0.4,2.8,2.6,4.6,5.8,4.6c1.9,0,3.4-0.6,4.6-1.9l1.6,1.9c-1.4,1.7-3.6,2.6-6.3,2.6
			c-5.1,0-8.5-3.4-8.5-8.1c0-4.7,3.4-8.1,8-8.1s7.9,3.3,7.9,8.2C78.8,518.8,78.8,519.2,78.8,519.4z M65.9,517.4h10.2
			c-0.3-2.7-2.3-4.6-5.1-4.6C68.2,512.8,66.2,514.7,65.9,517.4z"/>
		<path class="st4" d="M80.8,524.7l1.2-2.3c1.4,1,3.5,1.7,5.6,1.7c2.7,0,3.8-0.8,3.8-2.2c0-3.6-10-0.5-10-6.8c0-2.9,2.5-4.8,6.6-4.8
			c2.1,0,4.4,0.5,5.8,1.4l-1.2,2.3c-1.4-0.9-3-1.3-4.6-1.3c-2.5,0-3.7,0.9-3.7,2.2c0,3.8,10.1,0.7,10.1,6.9c0,2.9-2.6,4.7-6.9,4.7
			C84.7,526.6,82.1,525.8,80.8,524.7z"/>
		<path class="st4" d="M96.4,518.5c0-4.7,3.5-8.1,8.3-8.1c4.8,0,8.2,3.4,8.2,8.1c0,4.7-3.5,8.1-8.2,8.1
			C99.9,526.6,96.4,523.2,96.4,518.5z M110,518.5c0-3.4-2.3-5.6-5.3-5.6c-3.1,0-5.4,2.2-5.4,5.6c0,3.4,2.3,5.6,5.4,5.6
			C107.7,524.1,110,521.9,110,518.5z"/>
		<path class="st4" d="M137.6,516.8v9.6h-2.7v-2.1c-1,1.4-2.7,2.3-5.2,2.3c-3.6,0-5.9-1.9-5.9-4.7c0-2.5,1.6-4.6,6.4-4.6h4.6v-0.6
			c0-2.4-1.4-3.8-4.3-3.8c-1.9,0-3.8,0.7-5,1.7l-1.2-2.2c1.6-1.3,4-2,6.6-2C135.1,510.4,137.6,512.5,137.6,516.8z M134.7,521.6v-2.2
			h-4.4c-2.9,0-3.7,1.1-3.7,2.5c0,1.6,1.3,2.6,3.5,2.6C132.3,524.4,134,523.4,134.7,521.6z"/>
		<path class="st4" d="M159.9,525.5c-0.9,0.8-2.2,1.1-3.5,1.1c-3.2,0-5-1.8-5-5v-8.7h-2.7v-2.4h2.7V507h2.9v3.5h4.6v2.4h-4.6v8.6
			c0,1.7,0.9,2.7,2.5,2.7c0.8,0,1.6-0.3,2.2-0.8L159.9,525.5z"/>
		<path class="st4" d="M178.2,510.5v15.9h-2.7V524c-1.2,1.7-3.1,2.6-5.4,2.6c-4.1,0-6.8-2.2-6.8-6.9v-9.1h2.9v8.8
			c0,3.1,1.6,4.7,4.3,4.7c3,0,4.9-1.9,4.9-5.3v-8.2H178.2z"/>
		<path class="st4" d="M192.7,525.5c-0.9,0.8-2.2,1.1-3.5,1.1c-3.2,0-5-1.8-5-5v-8.7h-2.7v-2.4h2.7V507h2.9v3.5h4.6v2.4H187v8.6
			c0,1.7,0.9,2.7,2.5,2.7c0.8,0,1.6-0.3,2.2-0.8L192.7,525.5z"/>
		<path class="st4" d="M194.1,518.5c0-4.7,3.5-8.1,8.3-8.1c4.8,0,8.2,3.4,8.2,8.1c0,4.7-3.5,8.1-8.2,8.1
			C197.6,526.6,194.1,523.2,194.1,518.5z M207.7,518.5c0-3.4-2.3-5.6-5.3-5.6s-5.4,2.2-5.4,5.6c0,3.4,2.3,5.6,5.4,5.6
			S207.7,521.9,207.7,518.5z"/>
		<path class="st4" d="M223.2,510.4v2.8c-0.2,0-0.4,0-0.7,0c-3.1,0-5,1.9-5,5.4v7.9h-2.9v-15.9h2.8v2.7
			C218.4,511.3,220.4,510.4,223.2,510.4z"/>
		<path class="st4" d="M226.2,505.6c0-1,0.8-1.9,2-1.9s1.9,0.8,1.9,1.8c0,1.1-0.8,1.9-1.9,1.9C227.1,507.5,226.2,506.7,226.2,505.6z
			 M226.7,510.5h2.9v15.9h-2.9V510.5z"/>
		<path class="st4" d="M247.7,516.8v9.6H245v-2.1c-1,1.4-2.7,2.3-5.2,2.3c-3.6,0-5.9-1.9-5.9-4.7c0-2.5,1.6-4.6,6.4-4.6h4.6v-0.6
			c0-2.4-1.4-3.8-4.3-3.8c-1.9,0-3.8,0.7-5,1.7l-1.2-2.2c1.7-1.3,4-2,6.6-2C245.2,510.4,247.7,512.5,247.7,516.8z M244.8,521.6v-2.2
			h-4.4c-2.9,0-3.7,1.1-3.7,2.5c0,1.6,1.3,2.6,3.5,2.6C242.4,524.4,244.1,523.4,244.8,521.6z"/>
		<path class="st4" d="M253,504.2h2.9v22.3H253V504.2z"/>
		<path class="st4" d="M275.7,519.4h-12.9c0.4,2.8,2.6,4.6,5.8,4.6c1.9,0,3.4-0.6,4.6-1.9l1.6,1.9c-1.4,1.7-3.6,2.6-6.3,2.6
			c-5.1,0-8.5-3.4-8.5-8.1c0-4.7,3.4-8.1,8-8.1s7.9,3.3,7.9,8.2C275.8,518.8,275.8,519.2,275.7,519.4z M262.8,517.4H273
			c-0.3-2.7-2.3-4.6-5.1-4.6C265.2,512.8,263.1,514.7,262.8,517.4z"/>
		<path class="st4" d="M277.8,524.7l1.2-2.3c1.4,1,3.5,1.7,5.6,1.7c2.7,0,3.8-0.8,3.8-2.2c0-3.6-10-0.5-10-6.8
			c0-2.9,2.5-4.8,6.6-4.8c2.1,0,4.4,0.5,5.8,1.4l-1.2,2.3c-1.4-0.9-3-1.3-4.6-1.3c-2.5,0-3.7,0.9-3.7,2.2c0,3.8,10.1,0.7,10.1,6.9
			c0,2.9-2.6,4.7-6.9,4.7C281.7,526.6,279.1,525.8,277.8,524.7z"/>
		<path class="st4" d="M293.5,524.5c0-1.2,0.9-2,2-2c1.1,0,2,0.8,2,2c0,1.2-0.9,2.1-2,2.1C294.4,526.6,293.5,525.7,293.5,524.5z"/>
	</g>
	<g>
		<path class="st4" d="M7.6,619.1c0-6.2,4.7-10.7,11.1-10.7c3.2,0,6.1,1.1,8,3.3l-2,1.9c-1.6-1.7-3.6-2.5-5.9-2.5
			c-4.7,0-8.2,3.4-8.2,8.1c0,4.7,3.5,8.1,8.2,8.1c2.3,0,4.3-0.8,5.9-2.5l2,1.9c-1.9,2.2-4.7,3.3-8,3.3
			C12.3,629.9,7.6,625.3,7.6,619.1z"/>
		<path class="st4" d="M44.9,613.7v15.9h-2.7v-2.4c-1.2,1.7-3.1,2.6-5.4,2.6c-4.1,0-6.8-2.2-6.8-6.9v-9.1h2.9v8.8
			c0,3.1,1.6,4.7,4.3,4.7c3,0,4.9-1.9,4.9-5.3v-8.2H44.9z"/>
		<path class="st4" d="M64.7,622.6H51.8c0.4,2.8,2.6,4.6,5.8,4.6c1.9,0,3.4-0.6,4.6-1.9l1.6,1.9c-1.4,1.7-3.6,2.6-6.3,2.6
			c-5.1,0-8.5-3.4-8.5-8.1c0-4.7,3.4-8.1,8-8.1s7.9,3.3,7.9,8.2C64.7,622,64.7,622.4,64.7,622.6z M51.8,620.6H62
			c-0.3-2.7-2.3-4.6-5.1-4.6C54.1,616,52.1,617.9,51.8,620.6z"/>
		<path class="st4" d="M83.8,620.5v9.1h-2.9v-8.8c0-3.1-1.6-4.7-4.3-4.7c-3.1,0-5,1.8-5,5.3v8.2h-2.9v-15.9h2.8v2.4
			c1.2-1.6,3.2-2.6,5.7-2.6C81.1,613.6,83.8,615.8,83.8,620.5z"/>
		<path class="st4" d="M98.1,628.7c-0.9,0.8-2.2,1.1-3.5,1.1c-3.2,0-5-1.8-5-5v-8.7h-2.7v-2.4h2.7v-3.5h2.9v3.5H97v2.4h-4.6v8.6
			c0,1.7,0.9,2.7,2.5,2.7c0.8,0,1.6-0.3,2.2-0.8L98.1,628.7z"/>
		<path class="st4" d="M114.2,620v9.6h-2.7v-2.1c-1,1.4-2.7,2.3-5.2,2.3c-3.6,0-5.9-1.9-5.9-4.7c0-2.5,1.6-4.6,6.4-4.6h4.6v-0.6
			c0-2.4-1.4-3.8-4.3-3.8c-1.9,0-3.8,0.7-5,1.7l-1.2-2.2c1.6-1.3,4-2,6.6-2C111.7,613.6,114.2,615.7,114.2,620z M111.3,624.8v-2.2
			h-4.4c-2.9,0-3.7,1.1-3.7,2.5c0,1.6,1.3,2.6,3.5,2.6C108.9,627.6,110.6,626.6,111.3,624.8z"/>
		<path class="st4" d="M117.5,627.9l1.2-2.3c1.4,1,3.5,1.7,5.6,1.7c2.7,0,3.8-0.8,3.8-2.2c0-3.6-10-0.5-10-6.8
			c0-2.9,2.5-4.8,6.6-4.8c2.1,0,4.4,0.5,5.8,1.4l-1.2,2.3c-1.4-0.9-3-1.3-4.6-1.3c-2.5,0-3.7,0.9-3.7,2.2c0,3.8,10.1,0.7,10.1,6.9
			c0,2.9-2.6,4.7-6.9,4.7C121.4,629.8,118.8,629,117.5,627.9z"/>
		<path class="st4" d="M159.1,621.7c0,4.9-3.4,8.1-8,8.1c-2.3,0-4.4-0.9-5.7-2.7v2.5h-2.8v-22.3h2.9v8.8c1.3-1.7,3.3-2.6,5.5-2.6
			C155.7,613.6,159.1,616.8,159.1,621.7z M156.2,621.7c0-3.4-2.3-5.6-5.4-5.6c-3,0-5.3,2.2-5.3,5.6c0,3.4,2.3,5.6,5.3,5.6
			C153.9,627.3,156.2,625.1,156.2,621.7z"/>
		<path class="st4" d="M175.5,620v9.6h-2.7v-2.1c-1,1.4-2.7,2.3-5.2,2.3c-3.6,0-5.9-1.9-5.9-4.7c0-2.5,1.6-4.6,6.4-4.6h4.6v-0.6
			c0-2.4-1.4-3.8-4.3-3.8c-1.9,0-3.8,0.7-5,1.7l-1.2-2.2c1.7-1.3,4-2,6.6-2C173.1,613.6,175.5,615.7,175.5,620z M172.6,624.8v-2.2
			h-4.4c-2.9,0-3.7,1.1-3.7,2.5c0,1.6,1.3,2.6,3.5,2.6C170.2,627.6,171.9,626.6,172.6,624.8z"/>
		<path class="st4" d="M175.4,634.7l0.9-2.2c0.6,0.5,1.4,0.8,2.3,0.8c1.5,0,2.4-1,2.4-2.8v-16.7h2.9v16.6c0,3.2-1.8,5.3-5.1,5.3
			C177.5,635.6,176.2,635.3,175.4,634.7z M180.5,608.8c0-1,0.8-1.9,1.9-1.9s1.9,0.8,1.9,1.8c0,1.1-0.8,1.9-1.9,1.9
			C181.3,610.7,180.5,609.8,180.5,608.8z"/>
		<path class="st4" d="M187.9,621.7c0-4.7,3.5-8.1,8.3-8.1c4.8,0,8.2,3.4,8.2,8.1c0,4.7-3.5,8.1-8.2,8.1
			C191.4,629.8,187.9,626.4,187.9,621.7z M201.5,621.7c0-3.4-2.3-5.6-5.3-5.6c-3.1,0-5.4,2.2-5.4,5.6c0,3.4,2.3,5.6,5.4,5.6
			C199.3,627.3,201.5,625.1,201.5,621.7z"/>
		<path class="st4" d="M230.8,622.6h-12.9c0.4,2.8,2.6,4.6,5.8,4.6c1.9,0,3.4-0.6,4.6-1.9l1.6,1.9c-1.4,1.7-3.6,2.6-6.3,2.6
			c-5.1,0-8.5-3.4-8.5-8.1c0-4.7,3.4-8.1,8-8.1s7.9,3.3,7.9,8.2C230.9,622,230.8,622.4,230.8,622.6z M217.9,620.6h10.2
			c-0.3-2.7-2.3-4.6-5.1-4.6C220.3,616,218.2,617.9,217.9,620.6z"/>
		<path class="st4" d="M234.9,607.4h2.9v22.3h-2.9V607.4z"/>
		<path class="st4" d="M277.7,620.5v9.1h-2.9v-8.8c0-3.1-1.5-4.7-4.1-4.7c-2.9,0-4.8,1.8-4.8,5.3v8.2h-2.9v-8.8
			c0-3.1-1.5-4.7-4.1-4.7c-2.9,0-4.8,1.8-4.8,5.3v8.2h-2.9v-15.9h2.8v2.4c1.1-1.6,3.1-2.5,5.5-2.5c2.4,0,4.5,1,5.5,2.9
			c1.2-1.8,3.4-2.9,6.1-2.9C275.1,613.6,277.7,615.8,277.7,620.5z"/>
		<path class="st4" d="M282.5,608.8c0-1,0.8-1.9,2-1.9s1.9,0.8,1.9,1.8c0,1.1-0.8,1.9-1.9,1.9C283.3,610.7,282.5,609.8,282.5,608.8z
			 M283,613.7h2.9v15.9H283V613.7z"/>
		<path class="st4" d="M289.4,627.9l1.2-2.3c1.4,1,3.5,1.7,5.6,1.7c2.7,0,3.8-0.8,3.8-2.2c0-3.6-10-0.5-10-6.8
			c0-2.9,2.5-4.8,6.6-4.8c2.1,0,4.4,0.5,5.8,1.4l-1.2,2.3c-1.4-0.9-3-1.3-4.6-1.3c-2.5,0-3.7,0.9-3.7,2.2c0,3.8,10.1,0.7,10.1,6.9
			c0,2.9-2.6,4.7-6.9,4.7C293.3,629.8,290.7,629,289.4,627.9z"/>
		<path class="st4" d="M332.8,620.5v9.1h-2.9v-8.8c0-3.1-1.5-4.7-4.1-4.7c-2.9,0-4.8,1.8-4.8,5.3v8.2h-2.9v-8.8
			c0-3.1-1.5-4.7-4.1-4.7c-2.9,0-4.8,1.8-4.8,5.3v8.2h-2.9v-15.9h2.8v2.4c1.1-1.6,3.1-2.5,5.5-2.5c2.4,0,4.5,1,5.5,2.9
			c1.2-1.8,3.4-2.9,6.1-2.9C330.2,613.6,332.8,615.8,332.8,620.5z"/>
		<path class="st4" d="M336.7,621.7c0-4.7,3.5-8.1,8.3-8.1c4.8,0,8.2,3.4,8.2,8.1c0,4.7-3.5,8.1-8.2,8.1
			C340.3,629.8,336.7,626.4,336.7,621.7z M350.4,621.7c0-3.4-2.3-5.6-5.3-5.6c-3.1,0-5.4,2.2-5.4,5.6c0,3.4,2.3,5.6,5.4,5.6
			C348.1,627.3,350.4,625.1,350.4,621.7z"/>
		<path class="st4" d="M380.4,620.5v9.1h-2.9v-8.8c0-3.1-1.6-4.7-4.3-4.7c-3.1,0-5,1.8-5,5.3v8.2h-2.9v-15.9h2.8v2.4
			c1.2-1.6,3.2-2.6,5.7-2.6C377.7,613.6,380.4,615.8,380.4,620.5z"/>
		<path class="st4" d="M384.4,621.7c0-4.7,3.5-8.1,8.3-8.1c4.8,0,8.2,3.4,8.2,8.1c0,4.7-3.5,8.1-8.2,8.1
			C387.9,629.8,384.4,626.4,384.4,621.7z M398,621.7c0-3.4-2.3-5.6-5.3-5.6s-5.4,2.2-5.4,5.6c0,3.4,2.3,5.6,5.4,5.6
			S398,625.1,398,621.7z"/>
		<path class="st4" d="M431.3,620.5v9.1h-2.9v-8.8c0-3.1-1.5-4.7-4.1-4.7c-2.9,0-4.8,1.8-4.8,5.3v8.2h-2.9v-8.8
			c0-3.1-1.5-4.7-4.1-4.7c-2.9,0-4.8,1.8-4.8,5.3v8.2h-2.9v-15.9h2.8v2.4c1.1-1.6,3.1-2.5,5.5-2.5c2.4,0,4.5,1,5.5,2.9
			c1.2-1.8,3.4-2.9,6.1-2.9C428.7,613.6,431.3,615.8,431.3,620.5z"/>
		<path class="st4" d="M453.1,621.7c0,4.9-3.4,8.1-8,8.1c-2.3,0-4.4-0.9-5.7-2.7v2.5h-2.8v-22.3h2.9v8.8c1.3-1.7,3.3-2.6,5.5-2.6
			C449.7,613.6,453.1,616.8,453.1,621.7z M450.2,621.7c0-3.4-2.3-5.6-5.4-5.6c-3,0-5.3,2.2-5.3,5.6c0,3.4,2.3,5.6,5.3,5.6
			C447.9,627.3,450.2,625.1,450.2,621.7z"/>
		<path class="st4" d="M465.6,613.6v2.8c-0.2,0-0.5,0-0.7,0c-3.1,0-5,1.9-5,5.4v7.9h-2.9v-15.9h2.8v2.7
			C460.9,614.5,462.8,613.6,465.6,613.6z"/>
		<path class="st4" d="M483.3,622.6h-12.9c0.4,2.8,2.6,4.6,5.8,4.6c1.9,0,3.4-0.6,4.6-1.9l1.6,1.9c-1.4,1.7-3.6,2.6-6.3,2.6
			c-5.1,0-8.5-3.4-8.5-8.1c0-4.7,3.4-8.1,8-8.1s7.9,3.3,7.9,8.2C483.4,622,483.4,622.4,483.3,622.6z M470.4,620.6h10.2
			c-0.3-2.7-2.3-4.6-5.1-4.6C472.8,616,470.7,617.9,470.4,620.6z"/>
		<path class="st4" d="M486,627.7c0-1.2,0.9-2,2-2c1.1,0,2,0.8,2,2c0,1.2-0.9,2.1-2,2.1C487,629.8,486,628.9,486,627.7z"/>
	</g>
	<g>
		<path class="st4" d="M22.7,728.6H11.5l-2.3,5.2H6.1l9.5-21h3l9.5,21H25L22.7,728.6z M21.6,726.2l-4.5-10.3l-4.5,10.3H21.6z"/>
		<path class="st4" d="M29.2,725.9c0-4.7,3.5-8.1,8.4-8.1c2.8,0,5.2,1.2,6.5,3.4l-2.2,1.4c-1-1.6-2.6-2.3-4.3-2.3
			c-3.1,0-5.5,2.2-5.5,5.6c0,3.4,2.3,5.6,5.5,5.6c1.7,0,3.3-0.7,4.3-2.3l2.2,1.4c-1.3,2.2-3.6,3.4-6.5,3.4
			C32.7,734,29.2,730.6,29.2,725.9z"/>
		<path class="st4" d="M46.1,725.9c0-4.7,3.5-8.1,8.4-8.1c2.8,0,5.2,1.2,6.5,3.4l-2.2,1.4c-1-1.6-2.6-2.3-4.3-2.3
			c-3.1,0-5.5,2.2-5.5,5.6c0,3.4,2.3,5.6,5.5,5.6c1.7,0,3.3-0.7,4.3-2.3l2.2,1.4c-1.3,2.2-3.6,3.4-6.5,3.4
			C49.6,734,46.1,730.6,46.1,725.9z"/>
		<path class="st4" d="M78.8,726.8H65.9c0.4,2.8,2.6,4.6,5.8,4.6c1.9,0,3.4-0.6,4.6-1.9l1.6,1.9c-1.4,1.7-3.6,2.6-6.3,2.6
			c-5.1,0-8.5-3.4-8.5-8.1c0-4.7,3.4-8.1,8-8.1s7.9,3.3,7.9,8.2C78.8,726.2,78.8,726.5,78.8,726.8z M65.9,724.8h10.2
			c-0.3-2.7-2.3-4.6-5.1-4.6C68.2,720.2,66.2,722,65.9,724.8z"/>
		<path class="st4" d="M80.8,732.1l1.2-2.3c1.4,1,3.5,1.7,5.6,1.7c2.7,0,3.8-0.8,3.8-2.2c0-3.6-10-0.5-10-6.8c0-2.9,2.5-4.8,6.6-4.8
			c2.1,0,4.4,0.5,5.8,1.4l-1.2,2.3c-1.4-0.9-3-1.3-4.6-1.3c-2.5,0-3.7,0.9-3.7,2.2c0,3.8,10.1,0.7,10.1,6.9c0,2.9-2.6,4.7-6.9,4.7
			C84.7,734,82.1,733.2,80.8,732.1z"/>
		<path class="st4" d="M96.4,725.9c0-4.7,3.5-8.1,8.3-8.1c4.8,0,8.2,3.4,8.2,8.1c0,4.7-3.5,8.1-8.2,8.1
			C99.9,734,96.4,730.6,96.4,725.9z M110,725.9c0-3.4-2.3-5.6-5.3-5.6c-3.1,0-5.4,2.2-5.4,5.6c0,3.4,2.3,5.6,5.4,5.6
			C107.7,731.5,110,729.2,110,725.9z"/>
		<path class="st4" d="M137.6,724.2v9.6h-2.7v-2.1c-1,1.4-2.7,2.3-5.2,2.3c-3.6,0-5.9-1.9-5.9-4.7c0-2.5,1.6-4.6,6.4-4.6h4.6v-0.6
			c0-2.4-1.4-3.8-4.3-3.8c-1.9,0-3.8,0.7-5,1.7l-1.2-2.2c1.6-1.3,4-2,6.6-2C135.1,717.8,137.6,719.9,137.6,724.2z M134.7,729v-2.2
			h-4.4c-2.9,0-3.7,1.1-3.7,2.5c0,1.6,1.3,2.6,3.5,2.6C132.3,731.8,134,730.8,134.7,729z"/>
		<path class="st4" d="M166.2,717.9v13.7c0,5.6-2.9,8.2-8.2,8.2c-2.9,0-5.8-0.8-7.6-2.4l1.4-2.2c1.5,1.3,3.8,2.1,6.1,2.1
			c3.8,0,5.5-1.7,5.5-5.3v-1.3c-1.4,1.7-3.5,2.5-5.7,2.5c-4.6,0-8.1-3.1-8.1-7.7c0-4.6,3.5-7.7,8.1-7.7c2.4,0,4.5,0.9,5.9,2.6v-2.5
			H166.2z M163.4,725.4c0-3.1-2.3-5.2-5.5-5.2c-3.2,0-5.5,2.1-5.5,5.2c0,3.1,2.3,5.2,5.5,5.2C161.1,730.6,163.4,728.5,163.4,725.4z"
			/>
		<path class="st4" d="M180.2,717.8v2.8c-0.2,0-0.5,0-0.7,0c-3.1,0-5,1.9-5,5.4v7.9h-2.9v-15.9h2.8v2.7
			C175.5,718.7,177.4,717.8,180.2,717.8z"/>
		<path class="st4" d="M198.8,717.9v15.9h-2.7v-2.4c-1.2,1.7-3.1,2.6-5.4,2.6c-4.1,0-6.8-2.2-6.8-6.9v-9.1h2.9v8.8
			c0,3.1,1.6,4.7,4.3,4.7c3,0,4.9-1.9,4.9-5.3v-8.2H198.8z"/>
		<path class="st4" d="M220.8,725.9c0,4.9-3.4,8.1-8,8.1c-2.2,0-4.2-0.9-5.5-2.6v8.2h-2.9v-21.7h2.8v2.5c1.3-1.8,3.3-2.7,5.7-2.7
			C217.4,717.8,220.8,721,220.8,725.9z M217.9,725.9c0-3.4-2.3-5.6-5.4-5.6c-3,0-5.3,2.2-5.3,5.6c0,3.4,2.3,5.6,5.3,5.6
			C215.5,731.5,217.9,729.2,217.9,725.9z"/>
		<path class="st4" d="M223.3,725.9c0-4.7,3.5-8.1,8.3-8.1c4.8,0,8.2,3.4,8.2,8.1c0,4.7-3.5,8.1-8.2,8.1
			C226.8,734,223.3,730.6,223.3,725.9z M236.9,725.9c0-3.4-2.3-5.6-5.3-5.6s-5.4,2.2-5.4,5.6c0,3.4,2.3,5.6,5.4,5.6
			S236.9,729.2,236.9,725.9z"/>
		<path class="st4" d="M266.2,726.8h-12.9c0.4,2.8,2.6,4.6,5.8,4.6c1.9,0,3.4-0.6,4.6-1.9l1.6,1.9c-1.4,1.7-3.6,2.6-6.3,2.6
			c-5.1,0-8.5-3.4-8.5-8.1c0-4.7,3.4-8.1,8-8.1s7.9,3.3,7.9,8.2C266.2,726.2,266.2,726.5,266.2,726.8z M253.3,724.8h10.2
			c-0.3-2.7-2.3-4.6-5.1-4.6C255.6,720.2,253.6,722,253.3,724.8z"/>
		<path class="st4" d="M279.9,733.8l-4.6-6.1l-4.6,6.1h-3.2l6.3-8.1l-6-7.8h3.2l4.4,5.7l4.4-5.7h3.1l-6,7.8l6.3,8.1H279.9z"/>
		<path class="st4" d="M284.3,725.9c0-4.7,3.5-8.1,8.4-8.1c2.8,0,5.2,1.2,6.5,3.4l-2.2,1.4c-1-1.6-2.6-2.3-4.3-2.3
			c-3.1,0-5.5,2.2-5.5,5.6c0,3.4,2.3,5.6,5.5,5.6c1.7,0,3.3-0.7,4.3-2.3l2.2,1.4c-1.3,2.2-3.6,3.4-6.5,3.4
			C287.8,734,284.3,730.6,284.3,725.9z"/>
		<path class="st4" d="M302.7,711.6h2.9v22.3h-2.9V711.6z"/>
		<path class="st4" d="M325.9,717.9v15.9h-2.7v-2.4c-1.2,1.7-3.1,2.6-5.4,2.6c-4.1,0-6.8-2.2-6.8-6.9v-9.1h2.9v8.8
			c0,3.1,1.6,4.7,4.3,4.7c3,0,4.9-1.9,4.9-5.3v-8.2H325.9z"/>
		<path class="st4" d="M329.4,732.1l1.2-2.3c1.4,1,3.5,1.7,5.6,1.7c2.7,0,3.8-0.8,3.8-2.2c0-3.6-10-0.5-10-6.8
			c0-2.9,2.5-4.8,6.6-4.8c2.1,0,4.4,0.5,5.8,1.4l-1.2,2.3c-1.4-0.9-3-1.3-4.6-1.3c-2.5,0-3.7,0.9-3.7,2.2c0,3.8,10.1,0.7,10.1,6.9
			c0,2.9-2.6,4.7-6.9,4.7C333.3,734,330.7,733.2,329.4,732.1z"/>
		<path class="st4" d="M345.9,713c0-1,0.8-1.9,2-1.9s1.9,0.8,1.9,1.8c0,1.1-0.8,1.9-1.9,1.9C346.8,714.9,345.9,714,345.9,713z
			 M346.4,717.9h2.9v15.9h-2.9V717.9z"/>
		<path class="st4" d="M368.9,717.9l-7,15.9H359l-7-15.9h3l5.5,12.8l5.6-12.8H368.9z"/>
		<path class="st4" d="M369.7,725.9c0-4.7,3.5-8.1,8.3-8.1c4.8,0,8.2,3.4,8.2,8.1c0,4.7-3.5,8.1-8.2,8.1
			C373.2,734,369.7,730.6,369.7,725.9z M383.3,725.9c0-3.4-2.3-5.6-5.3-5.6c-3.1,0-5.4,2.2-5.4,5.6c0,3.4,2.3,5.6,5.4,5.6
			C381,731.5,383.3,729.2,383.3,725.9z"/>
		<path class="st4" d="M388.5,731.9c0-1.2,0.9-2,2-2c1.1,0,2,0.8,2,2c0,1.2-0.9,2.1-2,2.1C389.4,734,388.5,733.1,388.5,731.9z"/>
	</g>
	<g>
		<path class="st4" d="M22.7,830.2H11.5l-2.3,5.2H6.1l9.5-21h3l9.5,21H25L22.7,830.2z M21.6,827.8l-4.5-10.3l-4.5,10.3H21.6z"/>
		<path class="st4" d="M29.2,827.5c0-4.7,3.5-8.1,8.4-8.1c2.8,0,5.2,1.2,6.5,3.4l-2.2,1.4c-1-1.6-2.6-2.3-4.3-2.3
			c-3.1,0-5.5,2.2-5.5,5.6c0,3.4,2.3,5.6,5.5,5.6c1.7,0,3.3-0.7,4.3-2.3l2.2,1.4c-1.3,2.2-3.6,3.4-6.5,3.4
			C32.7,835.6,29.2,832.2,29.2,827.5z"/>
		<path class="st4" d="M46.1,827.5c0-4.7,3.5-8.1,8.4-8.1c2.8,0,5.2,1.2,6.5,3.4l-2.2,1.4c-1-1.6-2.6-2.3-4.3-2.3
			c-3.1,0-5.5,2.2-5.5,5.6c0,3.4,2.3,5.6,5.5,5.6c1.7,0,3.3-0.7,4.3-2.3l2.2,1.4c-1.3,2.2-3.6,3.4-6.5,3.4
			C49.6,835.6,46.1,832.2,46.1,827.5z"/>
		<path class="st4" d="M78.8,828.5H65.9c0.4,2.8,2.6,4.6,5.8,4.6c1.9,0,3.4-0.6,4.6-1.9l1.6,1.9c-1.4,1.7-3.6,2.6-6.3,2.6
			c-5.1,0-8.5-3.4-8.5-8.1c0-4.7,3.4-8.1,8-8.1s7.9,3.3,7.9,8.2C78.8,827.8,78.8,828.2,78.8,828.5z M65.9,826.4h10.2
			c-0.3-2.7-2.3-4.6-5.1-4.6C68.2,821.8,66.2,823.7,65.9,826.4z"/>
		<path class="st4" d="M80.8,833.8l1.2-2.3c1.4,1,3.5,1.7,5.6,1.7c2.7,0,3.8-0.8,3.8-2.2c0-3.6-10-0.5-10-6.8c0-2.9,2.5-4.8,6.6-4.8
			c2.1,0,4.4,0.5,5.8,1.4l-1.2,2.3c-1.4-0.9-3-1.3-4.6-1.3c-2.5,0-3.7,0.9-3.7,2.2c0,3.8,10.1,0.7,10.1,6.9c0,2.9-2.6,4.7-6.9,4.7
			C84.7,835.6,82.1,834.8,80.8,833.8z"/>
		<path class="st4" d="M96.4,827.5c0-4.7,3.5-8.1,8.3-8.1c4.8,0,8.2,3.4,8.2,8.1c0,4.7-3.5,8.1-8.2,8.1
			C99.9,835.6,96.4,832.2,96.4,827.5z M110,827.5c0-3.4-2.3-5.6-5.3-5.6c-3.1,0-5.4,2.2-5.4,5.6c0,3.4,2.3,5.6,5.4,5.6
			C107.7,833.1,110,830.9,110,827.5z"/>
		<path class="st4" d="M137.6,825.9v9.6h-2.7v-2.1c-1,1.4-2.7,2.3-5.2,2.3c-3.6,0-5.9-1.9-5.9-4.7c0-2.5,1.6-4.6,6.4-4.6h4.6v-0.6
			c0-2.4-1.4-3.8-4.3-3.8c-1.9,0-3.8,0.7-5,1.7l-1.2-2.2c1.6-1.3,4-2,6.6-2C135.1,819.4,137.6,821.5,137.6,825.9z M134.7,830.6v-2.2
			h-4.4c-2.9,0-3.7,1.1-3.7,2.5c0,1.6,1.3,2.6,3.5,2.6C132.3,833.4,134,832.4,134.7,830.6z"/>
		<path class="st4" d="M163.6,825.9v9.6h-2.7v-2.1c-1,1.4-2.7,2.3-5.2,2.3c-3.6,0-5.9-1.9-5.9-4.7c0-2.5,1.6-4.6,6.4-4.6h4.6v-0.6
			c0-2.4-1.4-3.8-4.3-3.8c-1.9,0-3.8,0.7-5,1.7l-1.2-2.2c1.6-1.3,4-2,6.6-2C161.1,819.4,163.6,821.5,163.6,825.9z M160.7,830.6v-2.2
			h-4.4c-2.9,0-3.7,1.1-3.7,2.5c0,1.6,1.3,2.6,3.5,2.6C158.3,833.4,160,832.4,160.7,830.6z"/>
		<path class="st4" d="M167.5,827.5c0-4.7,3.5-8.1,8.4-8.1c2.8,0,5.2,1.2,6.5,3.4l-2.2,1.4c-1-1.6-2.6-2.3-4.3-2.3
			c-3.1,0-5.5,2.2-5.5,5.6c0,3.4,2.3,5.6,5.5,5.6c1.7,0,3.3-0.7,4.3-2.3l2.2,1.4c-1.3,2.2-3.6,3.4-6.5,3.4
			C171.1,835.6,167.5,832.2,167.5,827.5z"/>
		<path class="st4" d="M195.3,834.5c-0.9,0.8-2.2,1.1-3.5,1.1c-3.2,0-5-1.8-5-5v-8.7h-2.7v-2.4h2.7v-3.5h2.9v3.5h4.6v2.4h-4.6v8.6
			c0,1.7,0.9,2.7,2.5,2.7c0.8,0,1.6-0.3,2.2-0.8L195.3,834.5z"/>
		<path class="st4" d="M213.6,819.6v15.9h-2.7v-2.4c-1.2,1.7-3.1,2.6-5.4,2.6c-4.1,0-6.8-2.2-6.8-6.9v-9.1h2.9v8.8
			c0,3.1,1.6,4.7,4.3,4.7c3,0,4.9-1.9,4.9-5.3v-8.2H213.6z"/>
		<path class="st4" d="M231.7,825.9v9.6H229v-2.1c-1,1.4-2.7,2.3-5.2,2.3c-3.6,0-5.9-1.9-5.9-4.7c0-2.5,1.6-4.6,6.4-4.6h4.6v-0.6
			c0-2.4-1.4-3.8-4.3-3.8c-1.9,0-3.8,0.7-5,1.7l-1.2-2.2c1.6-1.3,4-2,6.6-2C229.2,819.4,231.7,821.5,231.7,825.9z M228.8,830.6v-2.2
			h-4.4c-2.9,0-3.7,1.1-3.7,2.5c0,1.6,1.3,2.6,3.5,2.6C226.4,833.4,228.1,832.4,228.8,830.6z"/>
		<path class="st4" d="M237,813.2h2.9v22.3H237V813.2z"/>
		<path class="st4" d="M244.9,814.6c0-1,0.8-1.9,2-1.9s1.9,0.8,1.9,1.8c0,1.1-0.8,1.9-1.9,1.9C245.7,816.5,244.9,815.7,244.9,814.6z
			 M245.4,819.6h2.9v15.9h-2.9V819.6z"/>
		<path class="st4" d="M265.6,833.1v2.4h-13.3v-1.9l9.4-11.7h-9.2v-2.4h12.9v1.9l-9.4,11.6H265.6z"/>
		<path class="st4" d="M282,825.9v9.6h-2.7v-2.1c-1,1.4-2.7,2.3-5.2,2.3c-3.6,0-5.9-1.9-5.9-4.7c0-2.5,1.6-4.6,6.4-4.6h4.6v-0.6
			c0-2.4-1.4-3.8-4.3-3.8c-1.9,0-3.8,0.7-5,1.7l-1.2-2.2c1.7-1.3,4-2,6.6-2C279.5,819.4,282,821.5,282,825.9z M279.1,830.6v-2.2
			h-4.4c-2.9,0-3.7,1.1-3.7,2.5c0,1.6,1.3,2.6,3.5,2.6C276.7,833.4,278.4,832.4,279.1,830.6z"/>
		<path class="st4" d="M286,827.5c0-4.7,3.5-8.1,8.4-8.1c2.8,0,5.2,1.2,6.5,3.4l-2.2,1.4c-1-1.6-2.6-2.3-4.3-2.3
			c-3.1,0-5.5,2.2-5.5,5.6c0,3.4,2.3,5.6,5.5,5.6c1.7,0,3.3-0.7,4.3-2.3l2.2,1.4c-1.3,2.2-3.6,3.4-6.5,3.4
			C289.5,835.6,286,832.2,286,827.5z"/>
		<path class="st4" d="M304,814.6c0-1,0.8-1.9,2-1.9s1.9,0.8,1.9,1.8c0,1.1-0.8,1.9-1.9,1.9C304.9,816.5,304,815.7,304,814.6z
			 M304.6,819.6h2.9v15.9h-2.9V819.6z"/>
		<path class="st4" d="M311.5,827.5c0-4.7,3.5-8.1,8.3-8.1c4.8,0,8.2,3.4,8.2,8.1c0,4.7-3.5,8.1-8.2,8.1
			C315,835.6,311.5,832.2,311.5,827.5z M325.1,827.5c0-3.4-2.3-5.6-5.3-5.6c-3.1,0-5.4,2.2-5.4,5.6c0,3.4,2.3,5.6,5.4,5.6
			C322.8,833.1,325.1,830.9,325.1,827.5z"/>
		<path class="st4" d="M347.1,826.3v9.1h-2.9v-8.8c0-3.1-1.6-4.7-4.3-4.7c-3.1,0-5,1.8-5,5.3v8.2H332v-15.9h2.8v2.4
			c1.2-1.6,3.2-2.6,5.7-2.6C344.3,819.4,347.1,821.6,347.1,826.3z"/>
		<path class="st4" d="M366.8,828.5h-12.9c0.4,2.8,2.6,4.6,5.8,4.6c1.9,0,3.4-0.6,4.6-1.9l1.6,1.9c-1.4,1.7-3.6,2.6-6.3,2.6
			c-5.1,0-8.5-3.4-8.5-8.1c0-4.7,3.4-8.1,8-8.1s7.9,3.3,7.9,8.2C366.9,827.8,366.8,828.2,366.8,828.5z M353.9,826.4h10.2
			c-0.3-2.7-2.3-4.6-5.1-4.6C356.2,821.8,354.2,823.7,353.9,826.4z"/>
		<path class="st4" d="M368.8,833.8l1.2-2.3c1.4,1,3.5,1.7,5.6,1.7c2.7,0,3.8-0.8,3.8-2.2c0-3.6-10-0.5-10-6.8
			c0-2.9,2.5-4.8,6.6-4.8c2.1,0,4.4,0.5,5.8,1.4l-1.2,2.3c-1.4-0.9-3-1.3-4.6-1.3c-2.5,0-3.7,0.9-3.7,2.2c0,3.8,10.1,0.7,10.1,6.9
			c0,2.9-2.6,4.7-6.9,4.7C372.8,835.6,370.2,834.8,368.8,833.8z"/>
		<path class="st4" d="M384.5,833.6c0-1.2,0.9-2,2-2c1.1,0,2,0.8,2,2c0,1.2-0.9,2.1-2,2.1C385.5,835.6,384.5,834.8,384.5,833.6z"/>
	</g>
	<g>
		<path class="st4" d="M27.5,920.2l-9.2,21h-3l-9.2-21h3.2l7.6,17.2l7.6-17.2H27.5z"/>
		<path class="st4" d="M29.3,920.4c0-1,0.8-1.9,2-1.9s1.9,0.8,1.9,1.8c0,1.1-0.8,1.9-1.9,1.9C30.1,922.2,29.3,921.4,29.3,920.4z
			 M29.8,925.3h2.9v15.9h-2.9V925.3z"/>
		<path class="st4" d="M53.2,918.9v22.3h-2.8v-2.5c-1.3,1.8-3.3,2.7-5.7,2.7c-4.6,0-8-3.3-8-8.1c0-4.9,3.4-8.1,8-8.1
			c2.2,0,4.2,0.8,5.5,2.6v-8.8H53.2z M50.3,933.2c0-3.4-2.3-5.6-5.3-5.6c-3.1,0-5.4,2.2-5.4,5.6c0,3.4,2.3,5.6,5.4,5.6
			C48,938.8,50.3,936.6,50.3,933.2z"/>
		<path class="st4" d="M73,934.2H60.1c0.4,2.8,2.6,4.6,5.8,4.6c1.9,0,3.4-0.6,4.6-1.9l1.6,1.9c-1.4,1.7-3.6,2.6-6.3,2.6
			c-5.1,0-8.5-3.4-8.5-8.1c0-4.7,3.4-8.1,8-8.1s7.9,3.3,7.9,8.2C73,933.6,73,933.9,73,934.2z M60.1,932.1h10.2
			c-0.3-2.7-2.3-4.6-5.1-4.6C62.4,927.6,60.4,929.4,60.1,932.1z"/>
		<path class="st4" d="M75.5,933.2c0-4.7,3.5-8.1,8.3-8.1c4.8,0,8.2,3.4,8.2,8.1c0,4.7-3.5,8.1-8.2,8.1
			C79,941.4,75.5,938,75.5,933.2z M89.2,933.2c0-3.4-2.3-5.6-5.3-5.6c-3.1,0-5.4,2.2-5.4,5.6c0,3.4,2.3,5.6,5.4,5.6
			C86.9,938.8,89.2,936.6,89.2,933.2z"/>
		<path class="st4" d="M96.1,918.9h2.9v22.3h-2.9V918.9z"/>
		<path class="st4" d="M104.4,918.9h2.9v22.3h-2.9V918.9z"/>
		<path class="st4" d="M125.4,931.6v9.6h-2.7v-2.1c-1,1.4-2.7,2.3-5.2,2.3c-3.6,0-5.9-1.9-5.9-4.7c0-2.5,1.6-4.6,6.4-4.6h4.6v-0.6
			c0-2.4-1.4-3.8-4.3-3.8c-1.9,0-3.8,0.7-5,1.7l-1.2-2.2c1.6-1.3,4-2,6.6-2C122.9,925.1,125.4,927.2,125.4,931.6z M122.5,936.3v-2.2
			h-4.4c-2.9,0-3.7,1.1-3.7,2.5c0,1.6,1.3,2.6,3.5,2.6C120.1,939.1,121.8,938.1,122.5,936.3z"/>
		<path class="st4" d="M157.1,932v9.1h-2.9v-8.8c0-3.1-1.5-4.7-4.1-4.7c-2.9,0-4.8,1.8-4.8,5.3v8.2h-2.9v-8.8c0-3.1-1.5-4.7-4.1-4.7
			c-2.9,0-4.8,1.8-4.8,5.3v8.2h-2.9v-15.9h2.8v2.4c1.1-1.6,3.1-2.5,5.5-2.5c2.4,0,4.5,1,5.5,2.9c1.2-1.8,3.4-2.9,6.1-2.9
			C154.5,925.1,157.1,927.3,157.1,932z"/>
		<path class="st4" d="M175,931.6v9.6h-2.7v-2.1c-1,1.4-2.7,2.3-5.2,2.3c-3.6,0-5.9-1.9-5.9-4.7c0-2.5,1.6-4.6,6.4-4.6h4.6v-0.6
			c0-2.4-1.4-3.8-4.3-3.8c-1.9,0-3.8,0.7-5,1.7l-1.2-2.2c1.6-1.3,4-2,6.6-2C172.6,925.1,175,927.2,175,931.6z M172.2,936.3v-2.2
			h-4.4c-2.9,0-3.7,1.1-3.7,2.5c0,1.6,1.3,2.6,3.5,2.6C169.7,939.1,171.4,938.1,172.2,936.3z"/>
		<path class="st4" d="M195.5,918.9v22.3h-2.8v-2.5c-1.3,1.8-3.3,2.7-5.7,2.7c-4.6,0-8-3.3-8-8.1c0-4.9,3.4-8.1,8-8.1
			c2.2,0,4.2,0.8,5.5,2.6v-8.8H195.5z M192.6,933.2c0-3.4-2.3-5.6-5.3-5.6c-3.1,0-5.4,2.2-5.4,5.6c0,3.4,2.3,5.6,5.4,5.6
			C190.3,938.8,192.6,936.6,192.6,933.2z"/>
		<path class="st4" d="M213.5,931.6v9.6h-2.7v-2.1c-1,1.4-2.7,2.3-5.2,2.3c-3.6,0-5.9-1.9-5.9-4.7c0-2.5,1.6-4.6,6.4-4.6h4.6v-0.6
			c0-2.4-1.4-3.8-4.3-3.8c-1.9,0-3.8,0.7-5,1.7l-1.2-2.2c1.6-1.3,4-2,6.6-2C211.1,925.1,213.5,927.2,213.5,931.6z M210.7,936.3v-2.2
			h-4.4c-2.9,0-3.7,1.1-3.7,2.5c0,1.6,1.3,2.6,3.5,2.6C208.2,939.1,209.9,938.1,210.7,936.3z"/>
		<path class="st4" d="M216.9,939.5l1.2-2.3c1.4,1,3.5,1.7,5.6,1.7c2.7,0,3.8-0.8,3.8-2.2c0-3.6-10-0.5-10-6.8
			c0-2.9,2.5-4.8,6.6-4.8c2.1,0,4.4,0.5,5.8,1.4l-1.2,2.3c-1.4-0.9-3-1.3-4.6-1.3c-2.5,0-3.7,0.9-3.7,2.2c0,3.8,10.1,0.7,10.1,6.9
			c0,2.9-2.6,4.7-6.9,4.7C220.8,941.4,218.2,940.5,216.9,939.5z"/>
		<path class="st4" d="M254.6,931.6v9.6h-2.7v-2.1c-1,1.4-2.7,2.3-5.2,2.3c-3.6,0-5.9-1.9-5.9-4.7c0-2.5,1.6-4.6,6.4-4.6h4.6v-0.6
			c0-2.4-1.4-3.8-4.3-3.8c-1.9,0-3.8,0.7-5,1.7l-1.2-2.2c1.6-1.3,4-2,6.6-2C252.1,925.1,254.6,927.2,254.6,931.6z M251.7,936.3v-2.2
			h-4.4c-2.9,0-3.7,1.1-3.7,2.5c0,1.6,1.3,2.6,3.5,2.6C249.3,939.1,251,938.1,251.7,936.3z"/>
		<path class="st4" d="M275,918.9v22.3h-2.8v-2.5c-1.3,1.8-3.3,2.7-5.7,2.7c-4.6,0-8-3.3-8-8.1c0-4.9,3.4-8.1,8-8.1
			c2.2,0,4.2,0.8,5.5,2.6v-8.8H275z M272.2,933.2c0-3.4-2.3-5.6-5.3-5.6c-3.1,0-5.4,2.2-5.4,5.6c0,3.4,2.3,5.6,5.4,5.6
			C269.8,938.8,272.2,936.6,272.2,933.2z"/>
		<path class="st4" d="M280,920.4c0-1,0.8-1.9,2-1.9s1.9,0.8,1.9,1.8c0,1.1-0.8,1.9-1.9,1.9C280.8,922.2,280,921.4,280,920.4z
			 M280.5,925.3h2.9v15.9h-2.9V925.3z"/>
		<path class="st4" d="M287.4,933.2c0-4.7,3.5-8.1,8.4-8.1c2.8,0,5.2,1.2,6.5,3.4l-2.2,1.4c-1-1.6-2.6-2.3-4.3-2.3
			c-3.1,0-5.5,2.2-5.5,5.6c0,3.4,2.3,5.6,5.5,5.6c1.7,0,3.3-0.7,4.3-2.3l2.2,1.4c-1.3,2.2-3.6,3.4-6.5,3.4
			C290.9,941.4,287.4,938,287.4,933.2z"/>
		<path class="st4" d="M305.5,920.4c0-1,0.8-1.9,2-1.9s1.9,0.8,1.9,1.8c0,1.1-0.8,1.9-1.9,1.9C306.3,922.2,305.5,921.4,305.5,920.4z
			 M306,925.3h2.9v15.9H306V925.3z"/>
		<path class="st4" d="M312.9,933.2c0-4.7,3.5-8.1,8.3-8.1c4.8,0,8.2,3.4,8.2,8.1c0,4.7-3.5,8.1-8.2,8.1
			C316.4,941.4,312.9,938,312.9,933.2z M326.5,933.2c0-3.4-2.3-5.6-5.3-5.6c-3.1,0-5.4,2.2-5.4,5.6c0,3.4,2.3,5.6,5.4,5.6
			C324.2,938.8,326.5,936.6,326.5,933.2z"/>
		<path class="st4" d="M348.5,932v9.1h-2.9v-8.8c0-3.1-1.6-4.7-4.3-4.7c-3.1,0-5,1.8-5,5.3v8.2h-2.9v-15.9h2.8v2.4
			c1.2-1.6,3.2-2.6,5.7-2.6C345.7,925.1,348.5,927.3,348.5,932z"/>
		<path class="st4" d="M366.4,931.6v9.6h-2.7v-2.1c-1,1.4-2.7,2.3-5.2,2.3c-3.6,0-5.9-1.9-5.9-4.7c0-2.5,1.6-4.6,6.4-4.6h4.6v-0.6
			c0-2.4-1.4-3.8-4.3-3.8c-1.9,0-3.8,0.7-5,1.7l-1.2-2.2c1.6-1.3,4-2,6.6-2C364,925.1,366.4,927.2,366.4,931.6z M363.5,936.3v-2.2
			h-4.4c-2.9,0-3.7,1.1-3.7,2.5c0,1.6,1.3,2.6,3.5,2.6C361.1,939.1,362.8,938.1,363.5,936.3z"/>
		<path class="st4" d="M371.8,918.9h2.9v22.3h-2.9V918.9z"/>
		<path class="st4" d="M394.4,934.2h-12.9c0.4,2.8,2.6,4.6,5.8,4.6c1.9,0,3.4-0.6,4.6-1.9l1.6,1.9c-1.4,1.7-3.6,2.6-6.3,2.6
			c-5.1,0-8.5-3.4-8.5-8.1c0-4.7,3.4-8.1,8-8.1s7.9,3.3,7.9,8.2C394.5,933.6,394.5,933.9,394.4,934.2z M381.5,932.1h10.2
			c-0.3-2.7-2.3-4.6-5.1-4.6C383.9,927.6,381.8,929.4,381.5,932.1z"/>
		<path class="st4" d="M396.5,939.5l1.2-2.3c1.4,1,3.5,1.7,5.6,1.7c2.7,0,3.8-0.8,3.8-2.2c0-3.6-10-0.5-10-6.8
			c0-2.9,2.5-4.8,6.6-4.8c2.1,0,4.4,0.5,5.8,1.4l-1.2,2.3c-1.4-0.9-3-1.3-4.6-1.3c-2.5,0-3.8,0.9-3.8,2.2c0,3.8,10.1,0.7,10.1,6.9
			c0,2.9-2.6,4.7-6.9,4.7C400.4,941.4,397.8,940.5,396.5,939.5z"/>
		<path class="st4" d="M412.2,939.3c0-1.2,0.9-2,2-2c1.1,0,2,0.8,2,2c0,1.2-0.9,2.1-2,2.1C413.1,941.4,412.2,940.5,412.2,939.3z"/>
	</g>
	<g>
		<path class="st4" d="M23.3,1041.4l-4.5-6.5c-0.4,0-0.9,0.1-1.3,0.1h-5.2v6.4h-3v-21h8.2c5.5,0,8.8,2.8,8.8,7.3
			c0,3.2-1.7,5.6-4.6,6.6l5,7H23.3z M23.2,1027.7c0-3-2-4.7-5.8-4.7h-5.1v9.5h5.1C21.2,1032.5,23.2,1030.7,23.2,1027.7z"/>
		<path class="st4" d="M45,1034.4H32.1c0.4,2.8,2.6,4.6,5.8,4.6c1.9,0,3.4-0.6,4.6-1.9l1.6,1.9c-1.4,1.7-3.6,2.6-6.3,2.6
			c-5.1,0-8.5-3.4-8.5-8.1c0-4.7,3.4-8.1,8-8.1s7.9,3.3,7.9,8.2C45.1,1033.8,45,1034.1,45,1034.4z M32.1,1032.3h10.2
			c-0.3-2.7-2.3-4.6-5.1-4.6C34.4,1027.8,32.4,1029.6,32.1,1032.3z"/>
		<path class="st4" d="M64.3,1025.5v13.7c0,5.6-2.9,8.2-8.2,8.2c-2.9,0-5.8-0.8-7.6-2.4l1.4-2.2c1.5,1.3,3.8,2.1,6.1,2.1
			c3.8,0,5.5-1.7,5.5-5.3v-1.3c-1.4,1.7-3.5,2.5-5.7,2.5c-4.6,0-8.1-3.1-8.1-7.7c0-4.6,3.5-7.7,8.1-7.7c2.4,0,4.5,0.9,5.9,2.6v-2.5
			H64.3z M61.4,1033c0-3.1-2.3-5.2-5.5-5.2c-3.2,0-5.5,2.1-5.5,5.2c0,3.1,2.3,5.2,5.5,5.2C59.2,1038.2,61.4,1036.1,61.4,1033z"/>
		<path class="st4" d="M82.3,1031.8v9.6h-2.7v-2.1c-1,1.4-2.7,2.3-5.2,2.3c-3.6,0-5.9-1.9-5.9-4.7c0-2.5,1.6-4.6,6.4-4.6h4.6v-0.6
			c0-2.4-1.4-3.8-4.3-3.8c-1.9,0-3.8,0.7-5,1.7l-1.2-2.2c1.6-1.3,4-2,6.6-2C79.9,1025.4,82.3,1027.5,82.3,1031.8z M79.5,1036.5v-2.2
			H75c-2.9,0-3.7,1.1-3.7,2.5c0,1.6,1.3,2.6,3.5,2.6C77,1039.4,78.7,1038.4,79.5,1036.5z"/>
		<path class="st4" d="M87.7,1019.1h2.9v22.3h-2.9V1019.1z"/>
		<path class="st4" d="M94.6,1033.5c0-4.7,3.5-8.1,8.3-8.1c4.8,0,8.2,3.4,8.2,8.1c0,4.7-3.5,8.1-8.2,8.1
			C98.1,1041.6,94.6,1038.2,94.6,1033.5z M108.2,1033.5c0-3.4-2.3-5.6-5.3-5.6s-5.4,2.2-5.4,5.6c0,3.4,2.3,5.6,5.4,5.6
			S108.2,1036.8,108.2,1033.5z"/>
		<path class="st4" d="M121.2,1039.7l1.2-2.3c1.4,1,3.5,1.7,5.6,1.7c2.7,0,3.8-0.8,3.8-2.2c0-3.6-10-0.5-10-6.8
			c0-2.9,2.5-4.8,6.6-4.8c2.1,0,4.4,0.5,5.8,1.4l-1.2,2.3c-1.4-0.9-3-1.3-4.6-1.3c-2.5,0-3.8,0.9-3.8,2.2c0,3.8,10.1,0.7,10.1,6.9
			c0,2.9-2.6,4.7-6.9,4.7C125.1,1041.6,122.5,1040.8,121.2,1039.7z"/>
		<path class="st4" d="M136.7,1033.5c0-4.7,3.5-8.1,8.3-8.1c4.8,0,8.2,3.4,8.2,8.1c0,4.7-3.5,8.1-8.2,8.1
			C140.2,1041.6,136.7,1038.2,136.7,1033.5z M150.4,1033.5c0-3.4-2.3-5.6-5.3-5.6s-5.4,2.2-5.4,5.6c0,3.4,2.3,5.6,5.4,5.6
			S150.4,1036.8,150.4,1033.5z"/>
		<path class="st4" d="M165.8,1025.4v2.8c-0.2,0-0.4,0-0.7,0c-3.1,0-5,1.9-5,5.4v7.9h-2.9v-15.9h2.8v2.7
			C161,1026.3,163,1025.4,165.8,1025.4z"/>
		<path class="st4" d="M185.8,1033.5c0,4.9-3.4,8.1-8,8.1c-2.2,0-4.2-0.9-5.5-2.6v8.2h-2.9v-21.7h2.8v2.5c1.3-1.8,3.3-2.7,5.7-2.7
			C182.4,1025.4,185.8,1028.6,185.8,1033.5z M182.9,1033.5c0-3.4-2.3-5.6-5.4-5.6c-3,0-5.3,2.2-5.3,5.6c0,3.4,2.3,5.6,5.3,5.6
			C180.6,1039.1,182.9,1036.8,182.9,1033.5z"/>
		<path class="st4" d="M198.4,1025.4v2.8c-0.2,0-0.4,0-0.7,0c-3.1,0-5,1.9-5,5.4v7.9h-2.9v-15.9h2.8v2.7
			C193.6,1026.3,195.6,1025.4,198.4,1025.4z"/>
		<path class="st4" d="M216.1,1034.4h-12.9c0.4,2.8,2.6,4.6,5.8,4.6c1.9,0,3.4-0.6,4.6-1.9l1.6,1.9c-1.4,1.7-3.6,2.6-6.3,2.6
			c-5.1,0-8.5-3.4-8.5-8.1c0-4.7,3.4-8.1,8-8.1s7.9,3.3,7.9,8.2C216.1,1033.8,216.1,1034.1,216.1,1034.4z M203.2,1032.3h10.2
			c-0.3-2.7-2.3-4.6-5.1-4.6C205.5,1027.8,203.5,1029.6,203.2,1032.3z"/>
		<path class="st4" d="M218.1,1039.7l1.2-2.3c1.4,1,3.5,1.7,5.6,1.7c2.7,0,3.8-0.8,3.8-2.2c0-3.6-10-0.5-10-6.8
			c0-2.9,2.5-4.8,6.6-4.8c2.1,0,4.4,0.5,5.8,1.4l-1.2,2.3c-1.4-0.9-3-1.3-4.6-1.3c-2.5,0-3.7,0.9-3.7,2.2c0,3.8,10.1,0.7,10.1,6.9
			c0,2.9-2.6,4.7-6.9,4.7C222,1041.6,219.4,1040.8,218.1,1039.7z"/>
		<path class="st4" d="M247.7,1031.8v9.6H245v-2.1c-1,1.4-2.7,2.3-5.2,2.3c-3.6,0-5.9-1.9-5.9-4.7c0-2.5,1.6-4.6,6.4-4.6h4.6v-0.6
			c0-2.4-1.4-3.8-4.3-3.8c-1.9,0-3.8,0.7-5,1.7l-1.2-2.2c1.7-1.3,4-2,6.6-2C245.3,1025.4,247.7,1027.5,247.7,1031.8z M244.9,1036.5
			v-2.2h-4.4c-2.9,0-3.7,1.1-3.7,2.5c0,1.6,1.3,2.6,3.5,2.6C242.4,1039.4,244.1,1038.4,244.9,1036.5z"/>
		<path class="st4" d="M251.7,1039.5c0-1.2,0.9-2,2-2c1.1,0,2,0.8,2,2c0,1.2-0.9,2.1-2,2.1C252.7,1041.6,251.7,1040.7,251.7,1039.5z
			"/>
	</g>
	<g>
		<path class="st4" d="M619.9,627.1l0.9-1.7c1.5,1.5,4.2,2.5,6.9,2.5c3.9,0,5.6-1.6,5.6-3.7c0-5.8-12.9-2.2-12.9-10
			c0-3.1,2.4-5.8,7.7-5.8c2.4,0,4.8,0.7,6.5,1.9l-0.8,1.8c-1.8-1.2-3.9-1.7-5.8-1.7c-3.8,0-5.5,1.7-5.5,3.8c0,5.8,12.9,2.3,12.9,9.9
			c0,3.1-2.5,5.7-7.8,5.7C624.6,629.8,621.5,628.7,619.9,627.1z"/>
		<path class="st4" d="M639.6,608.9c0-0.8,0.7-1.5,1.6-1.5s1.6,0.7,1.6,1.5c0,0.9-0.7,1.6-1.6,1.6
			C640.3,610.4,639.6,609.7,639.6,608.9z M640.1,613.8h2.1v15.8h-2.1V613.8z"/>
		<path class="st4" d="M662.9,620.5v9.1h-2.1v-8.9c0-3.3-1.7-5-4.7-5c-3.4,0-5.5,2.1-5.5,5.7v8.3h-2.1v-15.8h2v2.9
			c1.1-1.9,3.3-3,6-3C660.3,613.7,662.9,615.9,662.9,620.5z"/>
		<path class="st4" d="M676.9,607.4h2.1v22.3h-2.1V607.4z"/>
		<path class="st4" d="M688.4,607.7h2.8l-4.9,3.7h-2.1L688.4,607.7z M685.2,613.8h2.1v15.8h-2.1V613.8z"/>
		<path class="st4" d="M719.4,620.5v9.1h-2.1v-8.9c0-3.3-1.7-5-4.5-5c-3.2,0-5.3,2.1-5.3,5.7v8.3h-2.1v-8.9c0-3.3-1.7-5-4.6-5
			c-3.2,0-5.3,2.1-5.3,5.7v8.3h-2.1v-15.8h2v2.9c1.1-1.9,3.1-3,5.8-3c2.6,0,4.6,1.1,5.6,3.3c1.1-2,3.4-3.3,6.2-3.3
			C716.9,613.7,719.4,615.9,719.4,620.5z"/>
		<path class="st4" d="M724.9,608.9c0-0.8,0.7-1.5,1.6-1.5s1.6,0.7,1.6,1.5c0,0.9-0.7,1.6-1.6,1.6
			C725.6,610.4,724.9,609.7,724.9,608.9z M725.4,613.8h2.1v15.8h-2.1V613.8z"/>
		<path class="st4" d="M742,628.7c-0.8,0.8-2.1,1.1-3.3,1.1c-3,0-4.6-1.7-4.6-4.6v-9.5h-2.8v-1.8h2.8v-3.5h2.1v3.5h4.8v1.8h-4.8v9.4
			c0,1.9,1,2.9,2.7,2.9c0.9,0,1.7-0.3,2.3-0.8L742,628.7z"/>
		<path class="st4" d="M759.2,622.4H746c0.2,3.3,2.8,5.5,6.2,5.5c1.9,0,3.6-0.7,4.8-2.1l1.2,1.4c-1.4,1.7-3.6,2.6-6.1,2.6
			c-4.9,0-8.3-3.4-8.3-8s3.3-8,7.7-8c4.4,0,7.6,3.3,7.6,8C759.2,621.9,759.2,622.1,759.2,622.4z M746,620.8h11.2
			c-0.3-3.1-2.5-5.2-5.6-5.2C748.5,615.5,746.3,617.7,746,620.8z"/>
		<path class="st4" d="M761.6,627.8l1-1.7c1.3,1,3.4,1.8,5.6,1.8c3,0,4.2-1,4.2-2.6c0-4.1-10.2-0.9-10.2-7.1c0-2.6,2.2-4.5,6.2-4.5
			c2,0,4.3,0.6,5.6,1.5l-0.9,1.7c-1.4-1-3-1.3-4.6-1.3c-2.9,0-4.1,1.1-4.1,2.6c0,4.3,10.2,1.1,10.2,7.1c0,2.7-2.4,4.5-6.5,4.5
			C765.4,629.8,762.9,628.9,761.6,627.8z"/>
	</g>
	<g>
		<path class="st4" d="M998.8,627.1l0.9-1.7c1.5,1.5,4.2,2.5,6.9,2.5c3.9,0,5.6-1.6,5.6-3.7c0-5.8-12.9-2.2-12.9-10
			c0-3.1,2.4-5.8,7.7-5.8c2.4,0,4.8,0.7,6.5,1.9l-0.8,1.8c-1.8-1.2-3.9-1.7-5.8-1.7c-3.8,0-5.5,1.7-5.5,3.8c0,5.8,12.9,2.3,12.9,9.9
			c0,3.1-2.5,5.7-7.8,5.7C1003.5,629.8,1000.4,628.7,998.8,627.1z"/>
		<path class="st4" d="M1018.5,608.9c0-0.8,0.7-1.5,1.6-1.5s1.6,0.7,1.6,1.5c0,0.9-0.7,1.6-1.6,1.6
			C1019.2,610.4,1018.5,609.7,1018.5,608.9z M1019,613.8h2.1v15.8h-2.1V613.8z"/>
		<path class="st4" d="M1041.8,620.5v9.1h-2.1v-8.9c0-3.3-1.7-5-4.7-5c-3.4,0-5.5,2.1-5.5,5.7v8.3h-2.1v-15.8h2v2.9
			c1.1-1.9,3.3-3,6-3C1039.1,613.7,1041.8,615.9,1041.8,620.5z"/>
		<path class="st4" d="M1055.8,607.4h2.1v22.3h-2.1V607.4z"/>
		<path class="st4" d="M1067.3,607.7h2.8l-4.9,3.7h-2.1L1067.3,607.7z M1064,613.8h2.1v15.8h-2.1V613.8z"/>
		<path class="st4" d="M1098.3,620.5v9.1h-2.1v-8.9c0-3.3-1.7-5-4.5-5c-3.2,0-5.3,2.1-5.3,5.7v8.3h-2.1v-8.9c0-3.3-1.7-5-4.6-5
			c-3.2,0-5.3,2.1-5.3,5.7v8.3h-2.1v-15.8h2v2.9c1.1-1.9,3.1-3,5.8-3c2.6,0,4.7,1.1,5.6,3.3c1.1-2,3.4-3.3,6.2-3.3
			C1095.8,613.7,1098.3,615.9,1098.3,620.5z"/>
		<path class="st4" d="M1103.8,608.9c0-0.8,0.7-1.5,1.6-1.5s1.6,0.7,1.6,1.5c0,0.9-0.7,1.6-1.6,1.6
			C1104.5,610.4,1103.8,609.7,1103.8,608.9z M1104.3,613.8h2.1v15.8h-2.1V613.8z"/>
		<path class="st4" d="M1120.9,628.7c-0.8,0.8-2.1,1.1-3.3,1.1c-3,0-4.6-1.7-4.6-4.6v-9.5h-2.8v-1.8h2.8v-3.5h2.1v3.5h4.8v1.8h-4.8
			v9.4c0,1.9,1,2.9,2.7,2.9c0.9,0,1.7-0.3,2.3-0.8L1120.9,628.7z"/>
		<path class="st4" d="M1138.1,622.4h-13.2c0.2,3.3,2.8,5.5,6.2,5.5c1.9,0,3.6-0.7,4.8-2.1l1.2,1.4c-1.4,1.7-3.6,2.6-6.1,2.6
			c-4.9,0-8.3-3.4-8.3-8s3.3-8,7.7-8c4.4,0,7.6,3.3,7.6,8C1138.1,621.9,1138.1,622.1,1138.1,622.4z M1124.9,620.8h11.2
			c-0.3-3.1-2.5-5.2-5.6-5.2C1127.4,615.5,1125.1,617.7,1124.9,620.8z"/>
		<path class="st4" d="M1140.4,627.8l1-1.7c1.3,1,3.4,1.8,5.6,1.8c3,0,4.2-1,4.2-2.6c0-4.1-10.2-0.9-10.2-7.1c0-2.6,2.2-4.5,6.2-4.5
			c2,0,4.3,0.6,5.6,1.5l-0.9,1.7c-1.4-1-3-1.3-4.6-1.3c-2.8,0-4.1,1.1-4.1,2.6c0,4.3,10.2,1.1,10.2,7.1c0,2.7-2.4,4.5-6.5,4.5
			C1144.3,629.8,1141.7,628.9,1140.4,627.8z"/>
	</g>
	<g>
		<path class="st4" d="M1364.6,627.1l0.9-1.7c1.5,1.5,4.2,2.5,6.9,2.5c3.9,0,5.6-1.6,5.6-3.7c0-5.8-12.9-2.2-12.9-10
			c0-3.1,2.4-5.8,7.7-5.8c2.4,0,4.8,0.7,6.5,1.9l-0.8,1.8c-1.8-1.2-3.9-1.7-5.8-1.7c-3.8,0-5.5,1.7-5.5,3.8c0,5.8,12.9,2.3,12.9,9.9
			c0,3.1-2.5,5.7-7.8,5.7C1369.3,629.8,1366.2,628.7,1364.6,627.1z"/>
		<path class="st4" d="M1384.3,608.9c0-0.8,0.7-1.5,1.6-1.5s1.6,0.7,1.6,1.5c0,0.9-0.7,1.6-1.6,1.6
			C1385,610.4,1384.3,609.7,1384.3,608.9z M1384.8,613.8h2.1v15.8h-2.1V613.8z"/>
		<path class="st4" d="M1407.6,620.5v9.1h-2.1v-8.9c0-3.3-1.7-5-4.7-5c-3.4,0-5.5,2.1-5.5,5.7v8.3h-2.1v-15.8h2v2.9
			c1.1-1.9,3.3-3,6-3C1404.9,613.7,1407.6,615.9,1407.6,620.5z"/>
		<path class="st4" d="M1421.6,607.4h2.1v22.3h-2.1V607.4z"/>
		<path class="st4" d="M1433.1,607.7h2.8l-4.9,3.7h-2.1L1433.1,607.7z M1429.8,613.8h2.1v15.8h-2.1V613.8z"/>
		<path class="st4" d="M1464.1,620.5v9.1h-2.1v-8.9c0-3.3-1.7-5-4.5-5c-3.2,0-5.3,2.1-5.3,5.7v8.3h-2.1v-8.9c0-3.3-1.7-5-4.6-5
			c-3.2,0-5.3,2.1-5.3,5.7v8.3h-2.1v-15.8h2v2.9c1.1-1.9,3.2-3,5.8-3c2.6,0,4.6,1.1,5.6,3.3c1.1-2,3.4-3.3,6.2-3.3
			C1461.6,613.7,1464.1,615.9,1464.1,620.5z"/>
		<path class="st4" d="M1469.6,608.9c0-0.8,0.7-1.5,1.6-1.5s1.6,0.7,1.6,1.5c0,0.9-0.7,1.6-1.6,1.6
			C1470.3,610.4,1469.6,609.7,1469.6,608.9z M1470.1,613.8h2.1v15.8h-2.1V613.8z"/>
		<path class="st4" d="M1486.6,628.7c-0.8,0.8-2.1,1.1-3.3,1.1c-3,0-4.6-1.7-4.6-4.6v-9.5h-2.8v-1.8h2.8v-3.5h2.1v3.5h4.8v1.8h-4.8
			v9.4c0,1.9,1,2.9,2.7,2.9c0.9,0,1.7-0.3,2.3-0.8L1486.6,628.7z"/>
		<path class="st4" d="M1503.9,622.4h-13.2c0.2,3.3,2.8,5.5,6.2,5.5c1.9,0,3.6-0.7,4.8-2.1l1.2,1.4c-1.4,1.7-3.6,2.6-6.1,2.6
			c-4.9,0-8.3-3.4-8.3-8s3.3-8,7.7-8s7.6,3.3,7.6,8C1503.9,621.9,1503.9,622.1,1503.9,622.4z M1490.7,620.8h11.2
			c-0.3-3.1-2.5-5.2-5.6-5.2C1493.2,615.5,1490.9,617.7,1490.7,620.8z"/>
		<path class="st4" d="M1506.2,627.8l1-1.7c1.3,1,3.4,1.8,5.6,1.8c3,0,4.2-1,4.2-2.6c0-4.1-10.2-0.9-10.2-7.1c0-2.6,2.2-4.5,6.2-4.5
			c2,0,4.3,0.6,5.6,1.5l-0.9,1.7c-1.4-1-3-1.3-4.6-1.3c-2.9,0-4.1,1.1-4.1,2.6c0,4.3,10.2,1.1,10.2,7.1c0,2.7-2.4,4.5-6.5,4.5
			C1510,629.8,1507.5,628.9,1506.2,627.8z"/>
	</g>
	<g>
		<path class="st4" d="M653.6,109.2c0,3.9-3.1,6.4-7.2,6.4c-5.6,0-8.6-3.9-8.6-10.5c0-7.1,3.9-10.9,9.6-10.9c1.9,0,3.7,0.3,5,1.1
			l-0.9,1.7c-1.1-0.7-2.5-1-4.1-1c-4.5,0-7.4,2.9-7.4,8.6c0,0.5,0,1.1,0.1,1.7c1-2.3,3.5-3.6,6.4-3.6
			C650.7,102.9,653.6,105.4,653.6,109.2z M651.5,109.3c0-2.8-2-4.5-5.3-4.5c-3.2,0-5.4,2-5.4,4.6c0,2.3,1.9,4.5,5.5,4.5
			C649.4,113.8,651.5,112.1,651.5,109.3z"/>
		<path class="st4" d="M688,94.5v21h-2.1V98.7l-8.2,14.1h-1.1l-8.2-14v16.7h-2.1v-21h1.8l9.1,15.6l9-15.6H688z"/>
		<path class="st4" d="M708.3,108.3h-13.2c0.2,3.3,2.8,5.5,6.2,5.5c1.9,0,3.6-0.7,4.8-2.1l1.2,1.4c-1.4,1.7-3.6,2.6-6.1,2.6
			c-4.9,0-8.3-3.4-8.3-8s3.3-8,7.7-8c4.4,0,7.6,3.3,7.6,8C708.3,107.8,708.3,108,708.3,108.3z M695.1,106.7h11.2
			c-0.3-3.1-2.5-5.2-5.6-5.2C697.6,101.4,695.4,103.6,695.1,106.7z"/>
		<path class="st4" d="M710.7,113.7l1-1.7c1.3,1,3.4,1.8,5.6,1.8c3,0,4.2-1,4.2-2.6c0-4.1-10.2-0.9-10.2-7.1c0-2.6,2.2-4.5,6.2-4.5
			c2,0,4.3,0.6,5.6,1.5l-0.9,1.7c-1.4-1-3-1.3-4.6-1.3c-2.9,0-4.1,1.1-4.1,2.6c0,4.3,10.2,1.1,10.2,7.1c0,2.7-2.4,4.5-6.5,4.5
			C714.5,115.7,712,114.8,710.7,113.7z"/>
		<path class="st4" d="M741.4,108.3h-13.2c0.2,3.3,2.8,5.5,6.2,5.5c1.9,0,3.6-0.7,4.8-2.1l1.2,1.4c-1.4,1.7-3.6,2.6-6.1,2.6
			c-4.9,0-8.3-3.4-8.3-8s3.3-8,7.7-8c4.4,0,7.6,3.3,7.6,8C741.5,107.8,741.4,108,741.4,108.3z M728.2,106.7h11.2
			c-0.3-3.1-2.5-5.2-5.6-5.2C730.8,101.4,728.5,103.6,728.2,106.7z"/>
		<path class="st4" d="M743.8,113.7l1-1.7c1.3,1,3.4,1.8,5.6,1.8c3,0,4.2-1,4.2-2.6c0-4.1-10.2-0.9-10.2-7.1c0-2.6,2.2-4.5,6.2-4.5
			c2,0,4.3,0.6,5.6,1.5l-0.9,1.7c-1.4-1-3-1.3-4.6-1.3c-2.9,0-4.1,1.1-4.1,2.6c0,4.3,10.2,1.1,10.2,7.1c0,2.7-2.4,4.5-6.5,4.5
			C747.6,115.7,745.1,114.8,743.8,113.7z"/>
	</g>
	<g>
		<path class="st4" d="M1044.8,94.5v21h-2.2V96.4h-4.9v-1.9H1044.8z"/>
		<path class="st4" d="M1073.1,109.9h-11.7l-2.5,5.6h-2.3l9.6-21h2.2l9.6,21h-2.3L1073.1,109.9z M1072.3,108.1l-5-11.3l-5,11.3
			H1072.3z"/>
		<path class="st4" d="M1095.7,106.4v9.1h-2.1v-8.9c0-3.3-1.7-5-4.7-5c-3.4,0-5.5,2.1-5.5,5.7v8.3h-2.1V99.7h2v2.9
			c1.1-1.9,3.3-3,6-3C1093.1,99.6,1095.7,101.8,1095.7,106.4z M1085,97h-1.3c0.1-2,1.1-3.3,2.7-3.3c1.9,0,2.8,2,3.9,2
			c0.9,0,1.5-0.7,1.6-1.9h1.3c-0.1,1.9-1.1,3.2-2.7,3.2c-1.9,0-2.7-2-3.9-2C1085.6,95.1,1085,95.8,1085,97z"/>
		<path class="st4" d="M1100.1,107.6c0-4.7,3.4-8,8-8s8,3.3,8,8s-3.4,8-8,8S1100.1,112.3,1100.1,107.6z M1114,107.6
			c0-3.7-2.5-6.1-5.8-6.1c-3.4,0-5.9,2.5-5.9,6.1s2.5,6.1,5.9,6.1C1111.5,113.8,1114,111.3,1114,107.6z"/>
	</g>
	<g>
		<path class="st4" d="M1402.7,94.5l-9.3,21h-2.2l-9.3-21h2.4l8,18.2l8.1-18.2H1402.7z"/>
		<path class="st4" d="M1404.9,94.7c0-0.8,0.7-1.5,1.6-1.5s1.6,0.7,1.6,1.5c0,0.9-0.7,1.6-1.6,1.6
			C1405.5,96.3,1404.9,95.6,1404.9,94.7z M1405.3,99.7h2.1v15.8h-2.1V99.7z"/>
		<path class="st4" d="M1421.9,114.5c-0.8,0.8-2.1,1.1-3.3,1.1c-3,0-4.6-1.7-4.6-4.6v-9.5h-2.8v-1.8h2.8v-3.5h2.1v3.5h4.8v1.8h-4.8
			v9.4c0,1.9,1,2.9,2.7,2.9c0.9,0,1.7-0.3,2.3-0.8L1421.9,114.5z"/>
		<path class="st4" d="M1437.9,105.7v9.8h-2V113c-1,1.6-2.8,2.6-5.4,2.6c-3.6,0-5.8-1.9-5.8-4.6c0-2.4,1.6-4.5,6.1-4.5h5v-1
			c0-2.7-1.5-4.2-4.5-4.2c-2,0-4,0.7-5.2,1.9l-1-1.6c1.6-1.3,3.9-2.1,6.4-2.1C1435.5,99.6,1437.9,101.6,1437.9,105.7z M1435.7,110.8
			v-2.6h-5c-3.1,0-4,1.2-4,2.8c0,1.8,1.5,3,4,3C1433.1,114,1434.9,112.8,1435.7,110.8z"/>
		<path class="st4" d="M1443.8,93.2h2.1v22.3h-2.1V93.2z"/>
		<path class="st4" d="M1451.6,94.7c0-0.8,0.7-1.5,1.6-1.5s1.6,0.7,1.6,1.5c0,0.9-0.7,1.6-1.6,1.6
			C1452.3,96.3,1451.6,95.6,1451.6,94.7z M1452.1,99.7h2.1v15.8h-2.1V99.7z"/>
		<path class="st4" d="M1458.7,107.6c0-4.7,3.4-8,8.1-8c2.7,0,4.9,1,6.2,3.1l-1.6,1.1c-1.1-1.6-2.8-2.3-4.6-2.3c-3.5,0-6,2.5-6,6.1
			c0,3.7,2.5,6.1,6,6.1c1.8,0,3.5-0.7,4.6-2.3l1.6,1.1c-1.3,2-3.5,3.1-6.2,3.1C1462.2,115.7,1458.7,112.3,1458.7,107.6z"/>
		<path class="st4" d="M1476.9,94.7c0-0.8,0.7-1.5,1.6-1.5s1.6,0.7,1.6,1.5c0,0.9-0.7,1.6-1.6,1.6
			C1477.6,96.3,1476.9,95.6,1476.9,94.7z M1477.4,99.7h2.1v15.8h-2.1V99.7z"/>
		<path class="st4" d="M1497.6,105.7v9.8h-2V113c-1,1.6-2.8,2.6-5.4,2.6c-3.6,0-5.8-1.9-5.8-4.6c0-2.4,1.6-4.5,6.1-4.5h5v-1
			c0-2.7-1.5-4.2-4.5-4.2c-2,0-4,0.7-5.2,1.9l-1-1.6c1.6-1.3,3.9-2.1,6.4-2.1C1495.2,99.6,1497.6,101.6,1497.6,105.7z M1495.4,110.8
			v-2.6h-5c-3.1,0-4,1.2-4,2.8c0,1.8,1.5,3,4,3C1492.8,114,1494.6,112.8,1495.4,110.8z"/>
		<path class="st4" d="M1404.9,129.9c0-2.4,0.5-4.5,1.5-6.1h0.9c-1,1.8-1.5,3.8-1.5,6.1c0,2.3,0.5,4.3,1.5,6.1h-0.9
			C1405.4,134.5,1404.9,132.3,1404.9,129.9z"/>
		<path class="st4" d="M1416.5,127.5c0,1.9-1.4,3.1-3.7,3.1h-2.4v2.9h-1v-9.1h3.4C1415.1,124.4,1416.5,125.6,1416.5,127.5z
			 M1415.5,127.5c0-1.5-1-2.3-2.8-2.3h-2.4v4.6h2.4C1414.6,129.8,1415.5,129,1415.5,127.5z"/>
		<path class="st4" d="M1423.6,129.3v4.2h-0.9v-1.1c-0.4,0.7-1.2,1.1-2.4,1.1c-1.5,0-2.5-0.8-2.5-2c0-1.1,0.7-1.9,2.6-1.9h2.2v-0.4
			c0-1.2-0.7-1.8-1.9-1.8c-0.9,0-1.7,0.3-2.3,0.8l-0.4-0.7c0.7-0.6,1.7-0.9,2.8-0.9C1422.6,126.6,1423.6,127.5,1423.6,129.3z
			 M1422.6,131.4v-1.1h-2.1c-1.3,0-1.8,0.5-1.8,1.2c0,0.8,0.6,1.3,1.7,1.3C1421.5,132.8,1422.3,132.3,1422.6,131.4z"/>
		<path class="st4" d="M1432.5,126.7v6c0,2.4-1.2,3.4-3.4,3.4c-1.2,0-2.5-0.4-3.2-1.1l0.5-0.7c0.7,0.6,1.6,0.9,2.7,0.9
			c1.7,0,2.5-0.8,2.5-2.5v-0.9c-0.6,0.9-1.5,1.3-2.7,1.3c-2,0-3.4-1.4-3.4-3.3s1.5-3.3,3.4-3.3c1.1,0,2.1,0.5,2.7,1.4v-1.3H1432.5z
			 M1431.6,129.9c0-1.5-1.1-2.5-2.6-2.5s-2.6,1-2.6,2.5c0,1.5,1.1,2.5,2.6,2.5S1431.6,131.4,1431.6,129.9z"/>
		<path class="st4" d="M1434.5,130.1c0-2,1.5-3.5,3.5-3.5s3.5,1.4,3.5,3.5s-1.5,3.5-3.5,3.5S1434.5,132.1,1434.5,130.1z
			 M1440.5,130.1c0-1.6-1.1-2.7-2.5-2.7s-2.5,1.1-2.5,2.7c0,1.6,1.1,2.7,2.5,2.7S1440.5,131.7,1440.5,130.1z"/>
		<path class="st4" d="M1453,126.7v6.8h-0.9v-1.2c-0.5,0.8-1.4,1.3-2.5,1.3c-1.7,0-2.9-1-2.9-2.9v-4h0.9v3.9c0,1.5,0.8,2.2,2.1,2.2
			c1.4,0,2.3-0.9,2.3-2.5v-3.6H1453z M1450,125.6h-0.9l1.8-1.6h1.2L1450,125.6z"/>
		<path class="st4" d="M1462,129.5v4h-0.9v-3.9c0-1.4-0.8-2.2-2.1-2.2c-1.5,0-2.4,0.9-2.4,2.5v3.6h-0.9v-6.8h0.9v1.3
			c0.5-0.8,1.4-1.3,2.6-1.3C1460.9,126.6,1462,127.6,1462,129.5z"/>
		<path class="st4" d="M1464.4,124.5c0-0.4,0.3-0.7,0.7-0.7c0.4,0,0.7,0.3,0.7,0.6c0,0.4-0.3,0.7-0.7,0.7
			C1464.7,125.2,1464.4,124.9,1464.4,124.5z M1464.6,126.7h0.9v6.8h-0.9V126.7z"/>
		<path class="st4" d="M1467.5,130.1c0-2,1.5-3.5,3.5-3.5c1.2,0,2.1,0.5,2.7,1.4l-0.7,0.5c-0.5-0.7-1.2-1-2-1
			c-1.5,0-2.6,1.1-2.6,2.7c0,1.6,1.1,2.7,2.6,2.7c0.8,0,1.5-0.3,2-1l0.7,0.5c-0.5,0.9-1.5,1.4-2.7,1.4
			C1469,133.6,1467.5,132.1,1467.5,130.1z"/>
		<path class="st4" d="M1474.8,130.1c0-2,1.5-3.5,3.5-3.5s3.5,1.4,3.5,3.5s-1.5,3.5-3.5,3.5S1474.8,132.1,1474.8,130.1z
			 M1480.8,130.1c0-1.6-1.1-2.7-2.5-2.7s-2.5,1.1-2.5,2.7c0,1.6,1.1,2.7,2.5,2.7S1480.8,131.7,1480.8,130.1z"/>
		<path class="st4" d="M1482.9,136c1-1.8,1.5-3.8,1.5-6.1c0-2.3-0.5-4.3-1.5-6.1h0.9c1,1.5,1.5,3.7,1.5,6.1c0,2.4-0.5,4.5-1.5,6.1
			H1482.9z"/>
	</g>
	<g>
		<path class="st4" d="M671,1168.6v3.4h-1.5v-3.4c-2.9-0.1-5.7-1.2-7.2-2.7l0.9-1.7c1.4,1.3,3.8,2.4,6.3,2.5v-7.9
			c-3.3-0.8-6.7-1.8-6.7-5.8c0-2.9,2.1-5.4,6.7-5.7v-3.4h1.5v3.4c2.2,0.1,4.5,0.8,6.1,1.9l-0.8,1.8c-1.7-1.1-3.6-1.7-5.3-1.7v7.9
			c3.4,0.8,7,1.8,7,5.8C677.9,1165.8,675.7,1168.3,671,1168.6z M669.5,1156.7v-7.5c-3.1,0.3-4.5,1.9-4.5,3.8
			C665,1155.2,667,1156.1,669.5,1156.7z M675.7,1163c0-2.4-2.2-3.2-4.8-3.8v7.5C674.3,1166.4,675.7,1164.9,675.7,1163z"/>
		<path class="st4" d="M694.7,1162.4c0,3.5-2.5,6.2-7.6,6.2c-3,0-5.9-1-7.6-2.7l1-1.7c1.4,1.4,3.8,2.4,6.5,2.4
			c3.5,0,5.4-1.6,5.4-4.2c0-2.5-1.8-4.2-5.7-4.2h-1.5v-1.6l5.8-7.3h-10.7v-1.9h13.5v1.5l-5.9,7.5
			C692.5,1156.7,694.7,1159,694.7,1162.4z"/>
		<path class="st4" d="M713.1,1157.7c0,7.1-3.9,10.9-9.6,10.9c-1.9,0-3.7-0.3-5-1.1l0.9-1.7c1.1,0.7,2.5,1,4.1,1
			c4.5,0,7.4-2.9,7.4-8.6c0-0.5,0-1.1-0.1-1.7c-1,2.3-3.5,3.6-6.4,3.6c-4.2,0-7.1-2.5-7.1-6.3c0-3.9,3.1-6.4,7.2-6.4
			C710.1,1147.2,713.1,1151.1,713.1,1157.7z M710.1,1153.6c0-2.3-1.9-4.5-5.5-4.5c-3,0-5.1,1.8-5.1,4.6c0,2.8,2,4.5,5.3,4.5
			C707.9,1158.2,710.1,1156.2,710.1,1153.6z"/>
		<path class="st4" d="M731.5,1157.7c0,7.1-3.9,10.9-9.6,10.9c-1.9,0-3.7-0.3-5-1.1l0.9-1.7c1.1,0.7,2.5,1,4.1,1
			c4.5,0,7.4-2.9,7.4-8.6c0-0.5,0-1.1-0.1-1.7c-1,2.3-3.5,3.6-6.4,3.6c-4.2,0-7.1-2.5-7.1-6.3c0-3.9,3.1-6.4,7.2-6.4
			C728.5,1147.2,731.5,1151.1,731.5,1157.7z M728.6,1153.6c0-2.3-1.9-4.5-5.5-4.5c-3,0-5.1,1.8-5.1,4.6c0,2.8,2,4.5,5.3,4.5
			C726.4,1158.2,728.6,1156.2,728.6,1153.6z"/>
	</g>
	<g>
		<path class="st4" d="M1049.9,1168.6v3.4h-1.5v-3.4c-2.9-0.1-5.7-1.2-7.2-2.7l0.9-1.7c1.4,1.3,3.8,2.4,6.3,2.5v-7.9
			c-3.3-0.8-6.7-1.8-6.7-5.8c0-2.9,2.1-5.4,6.7-5.7v-3.4h1.5v3.4c2.2,0.1,4.5,0.8,6.1,1.9l-0.8,1.8c-1.7-1.1-3.6-1.7-5.3-1.7v7.9
			c3.4,0.8,7,1.8,7,5.8C1056.8,1165.8,1054.7,1168.3,1049.9,1168.6z M1048.4,1156.7v-7.5c-3.1,0.3-4.5,1.9-4.5,3.8
			C1043.9,1155.2,1045.9,1156.1,1048.4,1156.7z M1054.7,1163c0-2.4-2.2-3.2-4.8-3.8v7.5C1053.2,1166.4,1054.7,1164.9,1054.7,1163z"
			/>
		<path class="st4" d="M1078.1,1162.9h-4.2v5.5h-2.2v-5.5h-11.8v-1.6l11.1-13.9h2.4l-10.7,13.6h9.1v-4.9h2.1v4.9h4.2V1162.9z"/>
		<path class="st4" d="M1095.2,1157.7c0,7.1-3.9,10.9-9.6,10.9c-1.9,0-3.7-0.3-5-1.1l0.9-1.7c1.1,0.7,2.5,1,4.1,1
			c4.5,0,7.4-2.9,7.4-8.6c0-0.5,0-1.1-0.1-1.7c-1,2.3-3.5,3.6-6.4,3.6c-4.2,0-7.1-2.5-7.1-6.3c0-3.9,3.1-6.4,7.2-6.4
			C1092.2,1147.2,1095.2,1151.1,1095.2,1157.7z M1092.2,1153.6c0-2.3-1.9-4.5-5.5-4.5c-3,0-5.1,1.8-5.1,4.6c0,2.8,2,4.5,5.3,4.5
			C1090.1,1158.2,1092.2,1156.2,1092.2,1153.6z"/>
		<path class="st4" d="M1113.7,1157.7c0,7.1-3.9,10.9-9.6,10.9c-1.9,0-3.7-0.3-5-1.1l0.9-1.7c1.1,0.7,2.5,1,4.1,1
			c4.5,0,7.4-2.9,7.4-8.6c0-0.5,0-1.1-0.1-1.7c-1,2.3-3.5,3.6-6.4,3.6c-4.2,0-7.1-2.5-7.1-6.3c0-3.9,3.1-6.4,7.2-6.4
			C1110.6,1147.2,1113.7,1151.1,1113.7,1157.7z M1110.7,1153.6c0-2.3-1.9-4.5-5.5-4.5c-3,0-5.1,1.8-5.1,4.6c0,2.8,2,4.5,5.3,4.5
			C1108.5,1158.2,1110.7,1156.2,1110.7,1153.6z"/>
	</g>
	<g>
		<path class="st4" d="M1418.9,1168.6v3.4h-1.5v-3.4c-2.9-0.1-5.7-1.2-7.2-2.7l0.9-1.7c1.4,1.3,3.8,2.4,6.3,2.5v-7.9
			c-3.3-0.8-6.7-1.8-6.7-5.8c0-2.9,2.1-5.4,6.7-5.7v-3.4h1.5v3.4c2.2,0.1,4.5,0.8,6.1,1.9l-0.8,1.8c-1.7-1.1-3.6-1.7-5.3-1.7v7.9
			c3.4,0.8,7,1.8,7,5.8C1425.9,1165.8,1423.7,1168.3,1418.9,1168.6z M1417.4,1156.7v-7.5c-3.1,0.3-4.5,1.9-4.5,3.8
			C1413,1155.2,1415,1156.1,1417.4,1156.7z M1423.7,1163c0-2.4-2.2-3.2-4.8-3.8v7.5C1422.2,1166.4,1423.7,1164.9,1423.7,1163z"/>
		<path class="st4" d="M1443.3,1162.2c0,3.6-2.5,6.4-7.6,6.4c-3,0-5.9-1-7.5-2.7l1-1.7c1.4,1.4,3.8,2.4,6.5,2.4
			c3.6,0,5.5-1.7,5.5-4.3c0-2.7-1.7-4.4-7-4.4h-4.5l1.1-10.5h11.5v1.9h-9.6l-0.7,6.7h2.7C1440.9,1156,1443.3,1158.5,1443.3,1162.2z"
			/>
		<path class="st4" d="M1461.3,1157.7c0,7.1-3.9,10.9-9.6,10.9c-1.9,0-3.7-0.3-5-1.1l0.9-1.7c1.1,0.7,2.5,1,4.1,1
			c4.5,0,7.4-2.9,7.4-8.6c0-0.5,0-1.1-0.1-1.7c-1,2.3-3.5,3.6-6.4,3.6c-4.2,0-7.1-2.5-7.1-6.3c0-3.9,3.1-6.4,7.2-6.4
			C1458.3,1147.2,1461.3,1151.1,1461.3,1157.7z M1458.4,1153.6c0-2.3-1.9-4.5-5.5-4.5c-3,0-5.1,1.8-5.1,4.6c0,2.8,2,4.5,5.3,4.5
			C1456.2,1158.2,1458.4,1156.2,1458.4,1153.6z"/>
		<path class="st4" d="M1479.8,1157.7c0,7.1-3.9,10.9-9.6,10.9c-1.9,0-3.7-0.3-5-1.1l0.9-1.7c1.1,0.7,2.5,1,4.1,1
			c4.5,0,7.4-2.9,7.4-8.6c0-0.5,0-1.1-0.1-1.7c-1,2.3-3.5,3.6-6.4,3.6c-4.2,0-7.1-2.5-7.1-6.3c0-3.9,3.1-6.4,7.2-6.4
			C1476.8,1147.2,1479.8,1151.1,1479.8,1157.7z M1476.8,1153.6c0-2.3-1.9-4.5-5.5-4.5c-3,0-5.1,1.8-5.1,4.6c0,2.8,2,4.5,5.3,4.5
			C1474.6,1158.2,1476.8,1156.2,1476.8,1153.6z"/>
	</g>
	<g>
		<path class="st4" d="M626.4,1225.9v4.5h-3.3v-4.4c-3.9-0.2-7.7-1.5-9.8-3.3l1.8-4c2,1.6,5,2.8,8,3v-8c-4.4-1.1-9.2-2.5-9.2-8.1
			c0-4.1,3-7.6,9.2-8.2v-4.5h3.3v4.4c3,0.2,6,1,8.1,2.4l-1.6,4c-2.1-1.2-4.4-1.9-6.5-2.2v8.1c4.4,1.1,9.3,2.5,9.3,8
			C635.7,1221.8,632.7,1225.3,626.4,1225.9z M623.1,1208.8v-7.1c-2.8,0.4-4,1.9-4,3.6C619.1,1207.2,620.8,1208.1,623.1,1208.8z
			 M630.6,1218c0-2-1.8-2.9-4.2-3.6v7.1C629.3,1221.1,630.6,1219.8,630.6,1218z"/>
		<path class="st4" d="M648.4,1197.6v28h-5.2V1202h-5.9v-4.4H648.4z"/>
		<path class="st4" d="M675.7,1211.1c0,9.6-5.6,14.9-13.7,14.9c-2.8,0-5.5-0.6-7.4-1.8l1.9-3.9c1.5,1,3.4,1.4,5.3,1.4
			c5.3,0,8.6-3.3,8.6-9.6v0c-1.7,2-4.4,2.9-7.5,2.9c-5.5,0-9.6-3.4-9.6-8.6c0-5.6,4.5-9.1,10.2-9.1
			C671.3,1197.2,675.7,1202.1,675.7,1211.1z M669.7,1206c0-2.6-2.1-4.7-5.8-4.7c-3.2,0-5.5,1.8-5.5,4.8s2.2,4.8,5.6,4.8
			C667.4,1210.8,669.7,1208.8,669.7,1206z"/>
		<path class="st4" d="M701.1,1211.1c0,9.6-5.6,14.9-13.7,14.9c-2.8,0-5.5-0.6-7.4-1.8l1.9-3.9c1.5,1,3.4,1.4,5.3,1.4
			c5.3,0,8.6-3.3,8.6-9.6v0c-1.7,2-4.4,2.9-7.5,2.9c-5.5,0-9.6-3.4-9.6-8.6c0-5.6,4.5-9.1,10.2-9.1
			C696.6,1197.2,701.1,1202.1,701.1,1211.1z M695,1206c0-2.6-2.1-4.7-5.8-4.7c-3.2,0-5.5,1.8-5.5,4.8s2.2,4.8,5.6,4.8
			C692.7,1210.8,695,1208.8,695,1206z"/>
		<path class="st4" d="M717,1216.5v-11.8h3.9v11.7c0,4.3,2,6.2,5.3,6.2c3.4,0,5.3-1.9,5.3-6.2v-11.7h3.8v11.8c0,6.1-3.5,9.4-9.2,9.4
			C720.4,1225.9,717,1222.6,717,1216.5z"/>
		<path class="st4" d="M739.2,1223.4l1.4-3c1.7,1.4,4.3,2.3,6.9,2.3c3.3,0,4.6-1.2,4.6-2.7c0-4.5-12.5-1.6-12.5-9.4
			c0-3.4,2.7-6.3,8.5-6.3c2.5,0,5.2,0.7,7,1.9l-1.2,3c-1.9-1.1-4-1.7-5.8-1.7c-3.2,0-4.6,1.3-4.6,2.9c0,4.5,12.4,1.6,12.4,9.3
			c0,3.4-2.7,6.2-8.5,6.2C744.3,1225.9,741,1224.9,739.2,1223.4z"/>
		<path class="st4" d="M760.1,1204.6h9.2c6.8,0,11.5,4.2,11.5,10.5c0,6.3-4.6,10.5-11.5,10.5h-9.2V1204.6z M769.1,1222.3
			c4.7,0,7.7-2.8,7.7-7.2c0-4.3-3-7.2-7.7-7.2H764v14.4H769.1z"/>
	</g>
	<g>
		<path class="st4" d="M1002.1,1225.9v4.5h-3.3v-4.4c-3.9-0.2-7.7-1.5-9.8-3.3l1.8-4c2,1.6,5,2.8,8,3v-8c-4.4-1.1-9.2-2.5-9.2-8.1
			c0-4.1,3-7.6,9.2-8.2v-4.5h3.3v4.4c3,0.2,6,1,8.1,2.4l-1.6,4c-2.1-1.2-4.4-1.9-6.5-2.2v8.1c4.4,1.1,9.3,2.5,9.3,8
			C1011.4,1221.8,1008.4,1225.3,1002.1,1225.9z M998.8,1208.8v-7.1c-2.8,0.4-4,1.9-4,3.6C994.8,1207.2,996.5,1208.1,998.8,1208.8z
			 M1006.3,1218c0-2-1.8-2.9-4.2-3.6v7.1C1005,1221.1,1006.3,1219.8,1006.3,1218z"/>
		<path class="st4" d="M1035.1,1221.2v4.4h-20.6v-3.5l11.1-10.6c2.7-2.6,3.2-4.2,3.2-5.8c0-2.6-1.8-4-5.2-4c-2.7,0-5,0.9-6.6,2.9
			l-3.6-2.8c2.2-2.9,6-4.6,10.6-4.6c6.1,0,10,3.1,10,8c0,2.7-0.8,5.2-4.6,8.8l-7.5,7.1H1035.1z"/>
		<path class="st4" d="M1062.7,1219.2h-5v6.4h-5v-6.4h-15.4v-3.6l13.8-18h5.6l-13,17.2h9.2v-5.6h4.9v5.6h5V1219.2z"/>
		<path class="st4" d="M1086.5,1211.1c0,9.6-5.6,14.9-13.7,14.9c-2.8,0-5.5-0.6-7.4-1.8l1.9-3.9c1.5,1,3.4,1.4,5.3,1.4
			c5.3,0,8.6-3.3,8.6-9.6v0c-1.7,2-4.4,2.9-7.5,2.9c-5.5,0-9.6-3.4-9.6-8.6c0-5.6,4.5-9.1,10.2-9.1
			C1082,1197.2,1086.5,1202.1,1086.5,1211.1z M1080.4,1206c0-2.6-2.1-4.7-5.8-4.7c-3.2,0-5.5,1.8-5.5,4.8s2.2,4.8,5.6,4.8
			C1078.1,1210.8,1080.4,1208.8,1080.4,1206z"/>
		<path class="st4" d="M1102.4,1216.5v-11.8h3.9v11.7c0,4.3,2,6.2,5.3,6.2c3.4,0,5.3-1.9,5.3-6.2v-11.7h3.8v11.8
			c0,6.1-3.5,9.4-9.2,9.4C1105.8,1225.9,1102.4,1222.6,1102.4,1216.5z"/>
		<path class="st4" d="M1124.6,1223.4l1.3-3c1.7,1.4,4.3,2.3,6.9,2.3c3.3,0,4.7-1.2,4.7-2.7c0-4.5-12.5-1.6-12.5-9.4
			c0-3.4,2.7-6.3,8.5-6.3c2.5,0,5.2,0.7,7,1.9l-1.2,3c-1.9-1.1-4-1.7-5.8-1.7c-3.2,0-4.6,1.3-4.6,2.9c0,4.5,12.5,1.6,12.5,9.3
			c0,3.4-2.7,6.2-8.5,6.2C1129.6,1225.9,1126.4,1224.9,1124.6,1223.4z"/>
		<path class="st4" d="M1145.5,1204.6h9.2c6.8,0,11.5,4.2,11.5,10.5c0,6.3-4.7,10.5-11.5,10.5h-9.2V1204.6z M1154.5,1222.3
			c4.7,0,7.7-2.8,7.7-7.2c0-4.3-3-7.2-7.7-7.2h-5.1v14.4H1154.5z"/>
	</g>
	<g>
		<path class="st4" d="M1370.3,1225.9v4.5h-3.3v-4.4c-3.9-0.2-7.7-1.5-9.8-3.3l1.8-4c2,1.6,5,2.8,8,3v-8c-4.4-1.1-9.2-2.5-9.2-8.1
			c0-4.1,3-7.6,9.2-8.2v-4.5h3.3v4.4c3,0.2,6,1,8.1,2.4l-1.6,4c-2.1-1.2-4.4-1.9-6.5-2.2v8.1c4.4,1.1,9.3,2.5,9.3,8
			C1379.6,1221.8,1376.6,1225.3,1370.3,1225.9z M1367,1208.8v-7.1c-2.8,0.4-4,1.9-4,3.6C1363,1207.2,1364.7,1208.1,1367,1208.8z
			 M1374.5,1218c0-2-1.8-2.9-4.2-3.6v7.1C1373.2,1221.1,1374.5,1219.8,1374.5,1218z"/>
		<path class="st4" d="M1403.3,1221.2v4.4h-20.6v-3.5l11.1-10.6c2.7-2.6,3.2-4.2,3.2-5.8c0-2.6-1.8-4-5.2-4c-2.7,0-5,0.9-6.6,2.9
			l-3.6-2.8c2.2-2.9,6-4.6,10.6-4.6c6.1,0,10,3.1,10,8c0,2.7-0.8,5.2-4.6,8.8l-7.5,7.1H1403.3z"/>
		<path class="st4" d="M1428.1,1211.1c0,9.6-5.6,14.9-13.7,14.9c-2.8,0-5.5-0.6-7.4-1.8l1.9-3.9c1.5,1,3.4,1.4,5.3,1.4
			c5.3,0,8.6-3.3,8.6-9.6v0c-1.7,2-4.4,2.9-7.5,2.9c-5.5,0-9.6-3.4-9.6-8.6c0-5.6,4.5-9.1,10.2-9.1
			C1423.6,1197.2,1428.1,1202.1,1428.1,1211.1z M1422,1206c0-2.6-2.1-4.7-5.8-4.7c-3.2,0-5.5,1.8-5.5,4.8s2.2,4.8,5.6,4.8
			C1419.7,1210.8,1422,1208.8,1422,1206z"/>
		<path class="st4" d="M1453.4,1211.1c0,9.6-5.6,14.9-13.7,14.9c-2.8,0-5.5-0.6-7.4-1.8l1.9-3.9c1.5,1,3.4,1.4,5.3,1.4
			c5.3,0,8.6-3.3,8.6-9.6v0c-1.7,2-4.4,2.9-7.5,2.9c-5.5,0-9.6-3.4-9.6-8.6c0-5.6,4.5-9.1,10.2-9.1
			C1448.9,1197.2,1453.4,1202.1,1453.4,1211.1z M1447.4,1206c0-2.6-2.1-4.7-5.8-4.7c-3.2,0-5.5,1.8-5.5,4.8s2.2,4.8,5.6,4.8
			C1445,1210.8,1447.4,1208.8,1447.4,1206z"/>
		<path class="st4" d="M1469.3,1216.5v-11.8h3.9v11.7c0,4.3,2,6.2,5.3,6.2c3.4,0,5.3-1.9,5.3-6.2v-11.7h3.8v11.8
			c0,6.1-3.5,9.4-9.2,9.4C1472.8,1225.9,1469.3,1222.6,1469.3,1216.5z"/>
		<path class="st4" d="M1491.6,1223.4l1.3-3c1.7,1.4,4.3,2.3,6.9,2.3c3.3,0,4.7-1.2,4.7-2.7c0-4.5-12.5-1.6-12.5-9.4
			c0-3.4,2.7-6.3,8.5-6.3c2.5,0,5.2,0.7,7,1.9l-1.2,3c-1.9-1.1-4-1.7-5.8-1.7c-3.2,0-4.6,1.3-4.6,2.9c0,4.5,12.5,1.6,12.5,9.3
			c0,3.4-2.7,6.2-8.5,6.2C1496.6,1225.9,1493.3,1224.9,1491.6,1223.4z"/>
		<path class="st4" d="M1512.4,1204.6h9.2c6.8,0,11.5,4.2,11.5,10.5c0,6.3-4.7,10.5-11.5,10.5h-9.2V1204.6z M1521.4,1222.3
			c4.7,0,7.7-2.8,7.7-7.2c0-4.3-3-7.2-7.7-7.2h-5.1v14.4H1521.4z"/>
	</g>
	<g>
		<path class="st4" d="M658.4,37.5c0,4.8-3.8,7.6-11,7.6h-13.9v-28h13.1c6.7,0,10.3,2.8,10.3,7.3c0,2.9-1.4,5-3.6,6.2
			C656.4,31.5,658.4,33.8,658.4,37.5z M638.7,21.2v7.7h7.4c3.6,0,5.6-1.3,5.6-3.8c0-2.6-2-3.9-5.6-3.9H638.7z M653.2,37
			c0-2.8-2.1-4-6-4h-8.4V41h8.4C651.1,41,653.2,39.8,653.2,37z"/>
		<path class="st4" d="M681.4,32.6v12.5h-4.7v-2.6c-1.2,1.8-3.5,2.9-6.7,2.9c-4.9,0-8-2.7-8-6.4c0-3.6,2.4-6.4,8.9-6.4h5.5v-0.3
			c0-2.9-1.8-4.6-5.3-4.6c-2.4,0-4.9,0.8-6.5,2.1l-2-3.6c2.3-1.8,5.6-2.6,9-2.6C677.8,23.5,681.4,26.4,681.4,32.6z M676.4,38.4v-2.5
			h-5.2c-3.4,0-4.3,1.3-4.3,2.8c0,1.8,1.5,3,4.1,3C673.4,41.7,675.5,40.6,676.4,38.4z M673.1,20.8h-4.3l5.4-5.5h5.9L673.1,20.8z"/>
		<path class="st4" d="M685.3,43l1.9-3.8c1.9,1.2,4.8,2.1,7.4,2.1c3.2,0,4.5-0.9,4.5-2.4c0-4.1-13.2-0.2-13.2-8.8
			c0-4,3.6-6.7,9.4-6.7c2.8,0,6.1,0.7,8,1.8l-1.9,3.8c-2-1.2-4.1-1.6-6.1-1.6c-3,0-4.5,1-4.5,2.4c0,4.3,13.2,0.5,13.2,8.8
			c0,4-3.7,6.6-9.7,6.6C690.8,45.4,687.3,44.3,685.3,43z"/>
		<path class="st4" d="M707.7,17.2c0-1.7,1.4-3,3.2-3c1.8,0,3.2,1.2,3.2,2.9c0,1.8-1.3,3.1-3.2,3.1
			C709.1,20.2,707.7,18.9,707.7,17.2z M708.4,23.7h5v21.4h-5V23.7z"/>
		<path class="st4" d="M718.2,34.4c0-6.4,4.8-10.9,11.6-10.9c4.2,0,7.5,1.7,9.1,5l-3.8,2.2c-1.3-2-3.2-3-5.3-3
			c-3.7,0-6.5,2.6-6.5,6.7c0,4.2,2.8,6.7,6.5,6.7c2.1,0,4-0.9,5.3-3l3.8,2.2c-1.6,3.2-5,5-9.1,5C723,45.4,718.2,40.8,718.2,34.4z"/>
		<path class="st4" d="M761.1,32.6v12.5h-4.7v-2.6c-1.2,1.8-3.5,2.9-6.7,2.9c-4.9,0-8-2.7-8-6.4c0-3.6,2.4-6.4,8.9-6.4h5.5v-0.3
			c0-2.9-1.8-4.6-5.3-4.6c-2.4,0-4.9,0.8-6.5,2.1l-2-3.6c2.3-1.8,5.6-2.6,9-2.6C757.5,23.5,761.1,26.4,761.1,32.6z M756.1,38.4v-2.5
			h-5.2c-3.4,0-4.3,1.3-4.3,2.8c0,1.8,1.5,3,4.1,3C753.1,41.7,755.2,40.6,756.1,38.4z"/>
	</g>
	<g>
		<path class="st4" d="M1008.3,27c0,6.2-4.6,10-11.9,10h-6.3v8.1h-5.2v-28h11.5C1003.8,17.1,1008.3,20.8,1008.3,27z M1003.1,27
			c0-3.5-2.4-5.6-6.9-5.6h-6.1v11.1h6.1C1000.7,32.6,1003.1,30.6,1003.1,27z"/>
		<path class="st4" d="M1025.2,23.5v4.8c-0.4-0.1-0.8-0.1-1.2-0.1c-3.8,0-6.2,2.2-6.2,6.6v10.4h-5V23.7h4.8v3.1
			C1019.1,24.6,1021.7,23.5,1025.2,23.5z"/>
		<path class="st4" d="M1049.3,36h-16.8c0.6,3.1,3.2,5.1,6.9,5.1c2.4,0,4.3-0.8,5.8-2.3l2.7,3.1c-1.9,2.3-4.9,3.5-8.6,3.5
			c-7.2,0-11.8-4.6-11.8-11c0-6.4,4.7-10.9,11-10.9c6.2,0,10.8,4.4,10.8,11C1049.3,34.9,1049.3,35.5,1049.3,36z M1032.5,32.7h12.1
			c-0.4-3.1-2.8-5.2-6-5.2C1035.3,27.5,1032.9,29.6,1032.5,32.7z"/>
		<path class="st4" d="M1089.8,32.8v12.2h-5V33.5c0-3.8-1.8-5.6-4.8-5.6c-3.3,0-5.6,2.2-5.6,6.4v10.8h-5V33.5c0-3.8-1.8-5.6-4.8-5.6
			c-3.3,0-5.6,2.2-5.6,6.4v10.8h-5V23.7h4.8v2.7c1.6-1.9,4.1-3,7-3c3.1,0,5.7,1.2,7.2,3.6c1.7-2.2,4.6-3.6,8-3.6
			C1086.2,23.5,1089.8,26.4,1089.8,32.8z"/>
		<path class="st4" d="M1095.6,17.2c0-1.7,1.4-3,3.2-3s3.2,1.2,3.2,2.9c0,1.8-1.3,3.1-3.2,3.1C1096.9,20.2,1095.6,18.9,1095.6,17.2z
			 M1096.3,23.7h5v21.4h-5V23.7z"/>
		<path class="st4" d="M1128.5,23.7v21.4h-4.8v-2.7c-1.6,2-4.1,3-6.9,3c-5.5,0-9.2-3-9.2-9.4V23.7h5v11.5c0,3.9,1.8,5.7,5,5.7
			c3.5,0,5.8-2.2,5.8-6.4V23.7H1128.5z"/>
		<path class="st4" d="M1170.8,32.8v12.2h-5V33.5c0-3.8-1.8-5.6-4.8-5.6c-3.3,0-5.6,2.2-5.6,6.4v10.8h-5V33.5c0-3.8-1.8-5.6-4.8-5.6
			c-3.3,0-5.6,2.2-5.6,6.4v10.8h-5V23.7h4.8v2.7c1.6-1.9,4.1-3,7-3c3.1,0,5.7,1.2,7.2,3.6c1.7-2.2,4.6-3.6,8-3.6
			C1167.2,23.5,1170.8,26.4,1170.8,32.8z"/>
	</g>
	<g>
		<path class="st4" d="M1420.1,31h4.9v11.2c-2.9,2.4-7,3.6-11,3.6c-8.7,0-15.1-6-15.1-14.4c0-8.4,6.4-14.4,15.2-14.4
			c4.7,0,8.6,1.6,11.2,4.6l-3.3,3.2c-2.2-2.2-4.7-3.2-7.7-3.2c-6,0-10.2,4-10.2,9.8c0,5.7,4.2,9.8,10.1,9.8c2,0,4-0.4,5.8-1.4V31z"
			/>
		<path class="st4" d="M1429.6,34.7c0-6.4,4.8-10.9,11.4-10.9c6.6,0,11.4,4.5,11.4,10.9c0,6.4-4.8,11-11.4,11
			C1434.4,45.6,1429.6,41.1,1429.6,34.7z M1447.4,34.7c0-4.1-2.7-6.7-6.4-6.7c-3.6,0-6.3,2.6-6.3,6.7c0,4.1,2.7,6.7,6.3,6.7
			C1444.6,41.4,1447.4,38.8,1447.4,34.7z"/>
		<path class="st4" d="M1457.2,15.7h5v29.7h-5V15.7z"/>
		<path class="st4" d="M1489.7,15.7v29.7h-4.8v-2.8c-1.7,2-4.2,3-7.1,3c-6.2,0-10.8-4.3-10.8-11c0-6.6,4.6-10.9,10.8-10.9
			c2.8,0,5.2,0.9,6.9,2.9v-11H1489.7z M1484.8,34.7c0-4.1-2.8-6.7-6.4-6.7s-6.4,2.6-6.4,6.7c0,4.1,2.8,6.7,6.4,6.7
			S1484.8,38.8,1484.8,34.7z"/>
	</g>
	<g>
		<g>
			<path class="st4" d="M1341.2,46.7v43.9h-8.2V53.5h-9.3v-6.8H1341.2z"/>
		</g>
		<g>
			<path class="st4" d="M1335.2,108.3c-22.6,0-41-18.4-41-41s18.4-41,41-41c0.6,0,1,0.4,1,1s-0.4,1-1,1c-21.5,0-39,17.5-39,39
				s17.5,39,39,39s39-17.5,39-39c0-10.8-4.3-20.9-12.2-28.3c-0.4-0.4-0.4-1,0-1.4c0.4-0.4,1-0.4,1.4,0c8.2,7.8,12.8,18.4,12.8,29.8
				C1376.3,89.8,1357.8,108.3,1335.2,108.3z"/>
		</g>
		<g>
			<path class="st4" d="M1335.2,101.9c-19.1,0-34.7-15.5-34.7-34.7c0-0.6,0.4-1,1-1s1,0.4,1,1c0,18,14.6,32.7,32.7,32.7
				s32.7-14.6,32.7-32.7s-14.6-32.7-32.7-32.7c-9,0-17.5,3.6-23.7,10.2c-0.4,0.4-1,0.4-1.4,0c-0.4-0.4-0.4-1,0-1.4
				c6.6-7,15.5-10.8,25.1-10.8c19.1,0,34.7,15.5,34.7,34.7S1354.3,101.9,1335.2,101.9z"/>
		</g>
		<g>
			<path class="st4" d="M1320.2,136.3c-0.3,0-0.6-0.1-0.8-0.4l-6.8-8.9l-11.2,0.8c-0.3,0-0.7-0.1-0.9-0.4s-0.2-0.7-0.1-1l10.3-22.6
				c0.2-0.5,0.8-0.7,1.3-0.5c0.5,0.2,0.7,0.8,0.5,1.3l-9.6,21.1l10.1-0.7c0.3,0,0.7,0.1,0.9,0.4l6.1,8l9.6-21
				c0.2-0.5,0.8-0.7,1.3-0.5c0.5,0.2,0.7,0.8,0.5,1.3l-10.3,22.5c-0.1,0.3-0.4,0.5-0.8,0.6C1320.3,136.3,1320.3,136.3,1320.2,136.3z
				"/>
		</g>
		<g>
			<path class="st4" d="M1315.4,122c-0.1,0-0.3,0-0.4-0.1c-0.5-0.2-0.7-0.8-0.5-1.3l3.6-7.8c0.2-0.5,0.8-0.7,1.3-0.5
				c0.5,0.2,0.7,0.8,0.5,1.3l-3.6,7.8C1316.1,121.8,1315.8,122,1315.4,122z"/>
		</g>
		<g>
			<path class="st4" d="M1322.6,150c-0.3,0-0.6-0.1-0.8-0.4l-6.8-8.9l-11.2,0.8c-0.3,0-0.7-0.1-0.9-0.4s-0.2-0.7-0.1-1l4-8.9
				c0.2-0.5,0.8-0.7,1.3-0.5c0.5,0.2,0.7,0.8,0.5,1.3l-3.4,7.4l10.1-0.7c0.3,0,0.7,0.1,0.9,0.4l6.1,8l13-28.6
				c0.2-0.5,0.8-0.7,1.3-0.5c0.5,0.2,0.7,0.8,0.5,1.3l-13.7,30.1c-0.1,0.3-0.4,0.5-0.8,0.6C1322.6,150,1322.6,150,1322.6,150z"/>
		</g>
		<g>
			<path class="st4" d="M1350,136.3c0,0-0.1,0-0.1,0c-0.3,0-0.7-0.3-0.8-0.6l-10.3-22.5c-0.2-0.5,0-1.1,0.5-1.3
				c0.5-0.2,1.1,0,1.3,0.5l9.6,21l6.1-8c0.2-0.3,0.5-0.4,0.9-0.4l10.1,0.7l-9.6-21.1c-0.2-0.5,0-1.1,0.5-1.3c0.5-0.2,1.1,0,1.3,0.5
				l10.3,22.6c0.1,0.3,0.1,0.7-0.1,1s-0.5,0.5-0.9,0.4l-11.2-0.8l-6.8,8.9C1350.6,136.2,1350.3,136.3,1350,136.3z"/>
		</g>
		<g>
			<path class="st4" d="M1354.9,122c-0.4,0-0.7-0.2-0.9-0.6l-3.6-7.8c-0.2-0.5,0-1.1,0.5-1.3c0.5-0.2,1.1,0,1.3,0.5l3.6,7.8
				c0.2,0.5,0,1.1-0.5,1.3C1355.2,122,1355,122,1354.9,122z"/>
		</g>
		<g>
			<g>
				<path class="st4" d="M1346.6,30c-0.2,0-0.4-0.1-0.5-0.2l-8.4-8.4c-0.3-0.3-0.3-0.8,0-1.1c0.3-0.3,0.8-0.3,1.1,0l8.4,8.4
					c0.3,0.3,0.3,0.8,0,1.1C1347,30,1346.8,30,1346.6,30z"/>
			</g>
			<g>
				<path class="st4" d="M1352,28.7c-0.1,0-0.2,0-0.3-0.1c-0.4-0.2-0.5-0.6-0.4-1l3.3-7.1c0.2-0.4,0.6-0.5,1-0.4
					c0.4,0.2,0.5,0.6,0.4,1l-3.3,7.1C1352.5,28.5,1352.3,28.7,1352,28.7z"/>
			</g>
			<g>
				<path class="st4" d="M1365.9,34.2C1365.9,34.2,1365.8,34.2,1365.9,34.2l-11.9-0.9c-0.4,0-0.7-0.4-0.7-0.8c0-0.4,0.4-0.7,0.8-0.7
					l11.9,0.8c0.4,0,0.7,0.4,0.7,0.8C1366.6,33.9,1366.3,34.2,1365.9,34.2z"/>
			</g>
		</g>
		<g>
			<path class="st4" d="M1347.7,150c0,0-0.1,0-0.1,0c-0.3,0-0.6-0.2-0.8-0.6l-10.1-21c-0.2-0.5,0-1.1,0.5-1.3c0.5-0.2,1.1,0,1.3,0.5
				l9.4,19.5l6.1-8c0.2-0.3,0.5-0.4,0.9-0.4l10.1,0.7l-3.4-7.4c-0.2-0.5,0-1.1,0.5-1.3c0.5-0.2,1.1,0,1.3,0.5l4,8.9
				c0.1,0.3,0.1,0.7-0.1,1c-0.2,0.3-0.5,0.5-0.9,0.4l-11.2-0.8l-6.8,8.9C1348.3,149.8,1348,150,1347.7,150z"/>
		</g>
	</g>
</g>
</svg>
