<?xml version="1.0" encoding="utf-8"?>
<!-- Generator: Adobe Illustrator 27.7.0, SVG Export Plug-In . SVG Version: 6.00 Build 0)  -->
<svg version="1.1" id="Capa_1" xmlns="http://www.w3.org/2000/svg" xmlns:xlink="http://www.w3.org/1999/xlink" x="0px" y="0px"
	 viewBox="0 0 90.15 141.7" style="enable-background:new 0 0 90.15 141.7;" xml:space="preserve">
<style type="text/css">
	.st0{fill:#FFFFFF;}
</style>
<g>
	<g>
		<path class="st0" d="M51.07,32.53v43.91h-8.15V39.37h-9.28v-6.84H51.07z"/>
	</g>
	<g>
		<path class="st0" d="M45.08,94.11c-22.63,0-41.04-18.41-41.04-41.04c0-22.63,18.41-41.04,41.04-41.04c0.55,0,1,0.45,1,1
			s-0.45,1-1,1c-21.53,0-39.04,17.51-39.04,39.04c0,21.53,17.51,39.04,39.04,39.04c21.53,0,39.04-17.51,39.04-39.04
			c0-10.81-4.32-20.87-12.16-28.32c-0.4-0.38-0.42-1.01-0.04-1.41c0.38-0.4,1.01-0.42,1.41-0.04c8.25,7.83,12.79,18.4,12.79,29.77
			C86.12,75.7,67.71,94.11,45.08,94.11z"/>
	</g>
	<g>
		<path class="st0" d="M45.08,87.73c-19.11,0-34.65-15.54-34.65-34.65c0-0.55,0.45-1,1-1s1,0.45,1,1c0,18,14.65,32.65,32.65,32.65
			s32.65-14.65,32.65-32.65S63.08,20.42,45.08,20.42c-9.04,0-17.45,3.61-23.68,10.17c-0.38,0.4-1.01,0.42-1.41,0.04
			c-0.4-0.38-0.42-1.01-0.04-1.41c6.61-6.96,15.54-10.79,25.13-10.79c19.11,0,34.65,15.55,34.65,34.65
			C79.73,72.18,64.18,87.73,45.08,87.73z"/>
	</g>
	<g>
		<path class="st0" d="M30.1,122.17c-0.31,0-0.6-0.14-0.79-0.39l-6.81-8.86l-11.19,0.76c-0.36,0.02-0.69-0.14-0.89-0.43
			c-0.2-0.29-0.23-0.66-0.09-0.98l10.3-22.62c0.23-0.5,0.82-0.73,1.32-0.5c0.5,0.23,0.72,0.82,0.5,1.32l-9.61,21.1l10.05-0.68
			c0.34-0.01,0.66,0.12,0.86,0.39l6.12,7.97l9.58-21.03c0.23-0.5,0.82-0.73,1.32-0.5c0.5,0.23,0.72,0.82,0.5,1.32l-10.27,22.54
			c-0.15,0.32-0.45,0.54-0.8,0.58C30.18,122.16,30.14,122.17,30.1,122.17z"/>
	</g>
	<g>
		<path class="st0" d="M25.24,107.9c-0.14,0-0.28-0.03-0.41-0.09c-0.5-0.23-0.72-0.82-0.5-1.32l3.56-7.81
			c0.23-0.5,0.82-0.73,1.32-0.5c0.5,0.23,0.72,0.82,0.5,1.32l-3.56,7.81C25.98,107.68,25.62,107.9,25.24,107.9z"/>
	</g>
	<g>
		<path class="st0" d="M32.43,135.83c-0.31,0-0.6-0.14-0.79-0.39l-6.81-8.86l-11.19,0.76c-0.36,0.02-0.69-0.14-0.89-0.43
			c-0.2-0.29-0.23-0.66-0.09-0.98l4.05-8.89c0.23-0.5,0.82-0.73,1.32-0.5c0.5,0.23,0.72,0.82,0.5,1.32l-3.35,7.36l10.05-0.68
			c0.34-0.02,0.66,0.12,0.86,0.39l6.12,7.97l13.04-28.63c0.23-0.5,0.82-0.73,1.32-0.5c0.5,0.23,0.72,0.82,0.5,1.32l-13.73,30.14
			c-0.15,0.32-0.45,0.54-0.8,0.58C32.51,135.83,32.47,135.83,32.43,135.83z"/>
	</g>
	<g>
		<path class="st0" d="M59.87,122.17c-0.04,0-0.08,0-0.11-0.01c-0.35-0.04-0.65-0.26-0.8-0.58L48.69,99.04
			c-0.23-0.5-0.01-1.09,0.5-1.32c0.5-0.23,1.09-0.01,1.32,0.5l9.58,21.03l6.12-7.97c0.2-0.27,0.53-0.4,0.86-0.39l10.05,0.68
			l-9.61-21.1c-0.23-0.5-0.01-1.1,0.5-1.32c0.5-0.23,1.09-0.01,1.32,0.5l10.3,22.62c0.15,0.32,0.11,0.69-0.09,0.98
			c-0.2,0.29-0.54,0.45-0.89,0.43l-11.19-0.76l-6.81,8.86C60.47,122.02,60.18,122.17,59.87,122.17z"/>
	</g>
	<g>
		<path class="st0" d="M64.74,107.9c-0.38,0-0.74-0.22-0.91-0.59l-3.56-7.81c-0.23-0.5-0.01-1.1,0.5-1.32
			c0.5-0.23,1.09-0.01,1.32,0.5l3.56,7.81c0.23,0.5,0.01,1.1-0.5,1.32C65.01,107.87,64.87,107.9,64.74,107.9z"/>
	</g>
	<g>
		<g>
			<path class="st0" d="M56.51,15.88c-0.19,0-0.38-0.07-0.53-0.22l-8.39-8.43c-0.29-0.29-0.29-0.77,0-1.06
				c0.29-0.29,0.77-0.29,1.06,0l8.39,8.43c0.29,0.29,0.29,0.77,0,1.06C56.89,15.81,56.7,15.88,56.51,15.88z"/>
		</g>
		<g>
			<path class="st0" d="M61.84,14.51c-0.1,0-0.21-0.02-0.31-0.07c-0.38-0.17-0.54-0.62-0.37-0.99l3.27-7.14
				c0.17-0.38,0.62-0.54,0.99-0.37c0.38,0.17,0.54,0.62,0.37,0.99l-3.27,7.14C62.4,14.35,62.12,14.51,61.84,14.51z"/>
		</g>
		<g>
			<path class="st0" d="M75.73,20.1c-0.02,0-0.04,0-0.05,0l-11.86-0.85c-0.41-0.03-0.72-0.39-0.69-0.8c0.03-0.41,0.39-0.73,0.8-0.69
				l11.86,0.85c0.41,0.03,0.72,0.39,0.69,0.8C76.45,19.8,76.12,20.1,75.73,20.1z"/>
		</g>
	</g>
	<g>
		<path class="st0" d="M57.54,135.83c-0.03,0-0.07,0-0.1,0c-0.35-0.04-0.65-0.25-0.8-0.56l-10.09-20.95
			c-0.24-0.5-0.03-1.09,0.47-1.33c0.5-0.24,1.09-0.03,1.33,0.47l9.38,19.49l6.14-8c0.2-0.26,0.53-0.41,0.86-0.39l10.05,0.68
			l-3.35-7.36c-0.23-0.5-0.01-1.09,0.5-1.32c0.5-0.23,1.09-0.01,1.32,0.5l4.05,8.89c0.15,0.32,0.11,0.69-0.09,0.98
			c-0.2,0.29-0.54,0.44-0.89,0.43l-11.19-0.76l-6.81,8.86C58.14,135.68,57.85,135.83,57.54,135.83z"/>
	</g>
</g>
</svg>
