<svg id="Layer_2" data-name="Layer 2" xmlns="http://www.w3.org/2000/svg" width="55" height="55.5" viewBox="0 0 55 55.5">
  <defs>
    <style>
      .cls-1 {
        fill: #fff;
      }

      .cls-2 {
        fill: #1f252d;
      }
    </style>
  </defs>
  <title>youtube_CC</title>
  <g>
    <circle class="cls-1" cx="27.5" cy="27.7" r="27.6"/>
    <path class="cls-2" d="M45.1,18.9a4.5,4.5,0,0,0-3.2-3.3c-2.9-.7-14.4-.7-14.4-.7s-11.5,0-14.4.7a4.8,4.8,0,0,0-3.3,3.3,51.5,51.5,0,0,0-.7,8.8,53.1,53.1,0,0,0,.7,8.9,5,5,0,0,0,3.3,3.3c2.9.7,14.4.7,14.4.7s11.5,0,14.4-.7a4.6,4.6,0,0,0,3.2-3.3c.8-2.9.8-8.9.8-8.9S45.9,21.7,45.1,18.9ZM23.8,33.3V22.2l9.6,5.5Z"/>
  </g>
</svg>
